M48
; DRILL file KiCad 10.0.3 date 2026-06-20T17:32:42
; FORMAT={-:-/ absolute / metric / decimal}
; #@! TF.CreationDate,2026-06-20T17:32:42+08:00
; #@! TF.GenerationSoftware,Kicad,Pcbnew,10.0.3
; #@! TF.FileFunction,NonPlated,1,2,NPTH
FMAT,2
METRIC
; #@! TA.AperFunction,NonPlated,NPTH,ComponentDrill
T1C0.500
; #@! TA.AperFunction,NonPlated,NPTH,ComponentDrill
T2C0.650
%
G90
G05
T1
X116.5Y-45.0
X116.5Y-46.0
X116.5Y-71.0
X116.5Y-72.0
X117.5Y-45.0
X117.5Y-46.0
X117.5Y-71.0
X117.5Y-72.0
X118.5Y-45.0
X118.5Y-46.0
X118.5Y-71.0
X118.5Y-72.0
X119.5Y-45.0
X119.5Y-46.0
X119.5Y-71.0
X119.5Y-72.0
X126.5Y-45.0
X126.5Y-46.0
X126.5Y-71.0
X126.5Y-72.0
X127.5Y-45.0
X127.5Y-46.0
X127.5Y-71.0
X127.5Y-72.0
X128.5Y-45.0
X128.5Y-46.0
X128.5Y-71.0
X128.5Y-72.0
X129.5Y-45.0
X129.5Y-46.0
X129.5Y-71.0
X129.5Y-72.0
X136.5Y-45.0
X136.5Y-46.0
X136.5Y-71.0
X136.5Y-72.0
X137.5Y-45.0
X137.5Y-46.0
X137.5Y-71.0
X137.5Y-72.0
X138.5Y-45.0
X138.5Y-46.0
X138.5Y-71.0
X138.5Y-72.0
X139.5Y-45.0
X139.5Y-46.0
X139.5Y-71.0
X139.5Y-72.0
X148.0Y-26.833
X148.0Y-27.833
X148.0Y-28.833
X148.0Y-29.833
X148.0Y-35.167
X148.0Y-36.167
X148.0Y-37.167
X148.0Y-38.167
X148.0Y-52.833
X148.0Y-53.833
X148.0Y-54.833
X148.0Y-55.833
X148.0Y-61.167
X148.0Y-62.167
X148.0Y-63.167
X148.0Y-64.167
X148.0Y-78.833
X148.0Y-79.833
X148.0Y-80.833
X148.0Y-81.833
X148.0Y-87.167
X148.0Y-88.167
X148.0Y-89.167
X148.0Y-90.167
X149.0Y-26.833
X149.0Y-27.833
X149.0Y-28.833
X149.0Y-29.833
X149.0Y-35.167
X149.0Y-36.167
X149.0Y-37.167
X149.0Y-38.167
X149.0Y-52.833
X149.0Y-53.833
X149.0Y-54.833
X149.0Y-55.833
X149.0Y-61.167
X149.0Y-62.167
X149.0Y-63.167
X149.0Y-64.167
X149.0Y-78.833
X149.0Y-79.833
X149.0Y-80.833
X149.0Y-81.833
X149.0Y-87.167
X149.0Y-88.167
X149.0Y-89.167
X149.0Y-90.167
X157.5Y-45.0
X157.5Y-46.0
X157.5Y-71.0
X157.5Y-72.0
X158.5Y-45.0
X158.5Y-46.0
X158.5Y-71.0
X158.5Y-72.0
X159.5Y-45.0
X159.5Y-46.0
X159.5Y-71.0
X159.5Y-72.0
X160.5Y-45.0
X160.5Y-46.0
X160.5Y-71.0
X160.5Y-72.0
X167.5Y-45.0
X167.5Y-46.0
X167.5Y-71.0
X167.5Y-72.0
X168.5Y-45.0
X168.5Y-46.0
X168.5Y-71.0
X168.5Y-72.0
X169.5Y-45.0
X169.5Y-46.0
X169.5Y-71.0
X169.5Y-72.0
X170.5Y-45.0
X170.5Y-46.0
X170.5Y-71.0
X170.5Y-72.0
X177.5Y-45.0
X177.5Y-46.0
X177.5Y-71.0
X177.5Y-72.0
X178.5Y-45.0
X178.5Y-46.0
X178.5Y-71.0
X178.5Y-72.0
X179.5Y-45.0
X179.5Y-46.0
X179.5Y-71.0
X179.5Y-72.0
X180.5Y-45.0
X180.5Y-46.0
X180.5Y-71.0
X180.5Y-72.0
T2
X114.85Y-29.61
X114.85Y-35.39
X114.85Y-55.61
X114.85Y-61.39
X114.85Y-81.61
X114.85Y-87.39
X155.85Y-29.61
X155.85Y-35.39
X155.85Y-55.61
X155.85Y-61.39
X155.85Y-81.61
X155.85Y-87.39
M30
