%TF.GenerationSoftware,KiCad,Pcbnew,10.0.3*%
%TF.CreationDate,2026-06-20T17:32:41+08:00*%
%TF.ProjectId,usb-booster.panelized,7573622d-626f-46f7-9374-65722e70616e,rev?*%
%TF.SameCoordinates,Original*%
%TF.FileFunction,Legend,Top*%
%TF.FilePolarity,Positive*%
%FSLAX46Y46*%
G04 Gerber Fmt 4.6, Leading zero omitted, Abs format (unit mm)*
G04 Created by KiCad (PCBNEW 10.0.3) date 2026-06-20 17:32:41*
%MOMM*%
%LPD*%
G01*
G04 APERTURE LIST*
%ADD10C,0.250000*%
%ADD11C,0.125000*%
%ADD12C,0.120000*%
G04 APERTURE END LIST*
D10*
X138258095Y-25218666D02*
X139020000Y-25218666D01*
X138639047Y-25599619D02*
X138639047Y-24837714D01*
X140019999Y-25599619D02*
X139448571Y-25599619D01*
X139734285Y-25599619D02*
X139734285Y-24599619D01*
X139734285Y-24599619D02*
X139639047Y-24742476D01*
X139639047Y-24742476D02*
X139543809Y-24837714D01*
X139543809Y-24837714D02*
X139448571Y-24885333D01*
X140400952Y-24694857D02*
X140448571Y-24647238D01*
X140448571Y-24647238D02*
X140543809Y-24599619D01*
X140543809Y-24599619D02*
X140781904Y-24599619D01*
X140781904Y-24599619D02*
X140877142Y-24647238D01*
X140877142Y-24647238D02*
X140924761Y-24694857D01*
X140924761Y-24694857D02*
X140972380Y-24790095D01*
X140972380Y-24790095D02*
X140972380Y-24885333D01*
X140972380Y-24885333D02*
X140924761Y-25028190D01*
X140924761Y-25028190D02*
X140353333Y-25599619D01*
X140353333Y-25599619D02*
X140972380Y-25599619D01*
X141258095Y-24599619D02*
X141591428Y-25599619D01*
X141591428Y-25599619D02*
X141924761Y-24599619D01*
X138258095Y-39618666D02*
X139020000Y-39618666D01*
X140019999Y-39999619D02*
X139448571Y-39999619D01*
X139734285Y-39999619D02*
X139734285Y-38999619D01*
X139734285Y-38999619D02*
X139639047Y-39142476D01*
X139639047Y-39142476D02*
X139543809Y-39237714D01*
X139543809Y-39237714D02*
X139448571Y-39285333D01*
X140400952Y-39094857D02*
X140448571Y-39047238D01*
X140448571Y-39047238D02*
X140543809Y-38999619D01*
X140543809Y-38999619D02*
X140781904Y-38999619D01*
X140781904Y-38999619D02*
X140877142Y-39047238D01*
X140877142Y-39047238D02*
X140924761Y-39094857D01*
X140924761Y-39094857D02*
X140972380Y-39190095D01*
X140972380Y-39190095D02*
X140972380Y-39285333D01*
X140972380Y-39285333D02*
X140924761Y-39428190D01*
X140924761Y-39428190D02*
X140353333Y-39999619D01*
X140353333Y-39999619D02*
X140972380Y-39999619D01*
X141258095Y-38999619D02*
X141591428Y-39999619D01*
X141591428Y-39999619D02*
X141924761Y-38999619D01*
X138258095Y-51218666D02*
X139020000Y-51218666D01*
X138639047Y-51599619D02*
X138639047Y-50837714D01*
X140019999Y-51599619D02*
X139448571Y-51599619D01*
X139734285Y-51599619D02*
X139734285Y-50599619D01*
X139734285Y-50599619D02*
X139639047Y-50742476D01*
X139639047Y-50742476D02*
X139543809Y-50837714D01*
X139543809Y-50837714D02*
X139448571Y-50885333D01*
X140400952Y-50694857D02*
X140448571Y-50647238D01*
X140448571Y-50647238D02*
X140543809Y-50599619D01*
X140543809Y-50599619D02*
X140781904Y-50599619D01*
X140781904Y-50599619D02*
X140877142Y-50647238D01*
X140877142Y-50647238D02*
X140924761Y-50694857D01*
X140924761Y-50694857D02*
X140972380Y-50790095D01*
X140972380Y-50790095D02*
X140972380Y-50885333D01*
X140972380Y-50885333D02*
X140924761Y-51028190D01*
X140924761Y-51028190D02*
X140353333Y-51599619D01*
X140353333Y-51599619D02*
X140972380Y-51599619D01*
X141258095Y-50599619D02*
X141591428Y-51599619D01*
X141591428Y-51599619D02*
X141924761Y-50599619D01*
X138258095Y-65618666D02*
X139020000Y-65618666D01*
X140019999Y-65999619D02*
X139448571Y-65999619D01*
X139734285Y-65999619D02*
X139734285Y-64999619D01*
X139734285Y-64999619D02*
X139639047Y-65142476D01*
X139639047Y-65142476D02*
X139543809Y-65237714D01*
X139543809Y-65237714D02*
X139448571Y-65285333D01*
X140400952Y-65094857D02*
X140448571Y-65047238D01*
X140448571Y-65047238D02*
X140543809Y-64999619D01*
X140543809Y-64999619D02*
X140781904Y-64999619D01*
X140781904Y-64999619D02*
X140877142Y-65047238D01*
X140877142Y-65047238D02*
X140924761Y-65094857D01*
X140924761Y-65094857D02*
X140972380Y-65190095D01*
X140972380Y-65190095D02*
X140972380Y-65285333D01*
X140972380Y-65285333D02*
X140924761Y-65428190D01*
X140924761Y-65428190D02*
X140353333Y-65999619D01*
X140353333Y-65999619D02*
X140972380Y-65999619D01*
X141258095Y-64999619D02*
X141591428Y-65999619D01*
X141591428Y-65999619D02*
X141924761Y-64999619D01*
X138258095Y-77218666D02*
X139020000Y-77218666D01*
X138639047Y-77599619D02*
X138639047Y-76837714D01*
X140019999Y-77599619D02*
X139448571Y-77599619D01*
X139734285Y-77599619D02*
X139734285Y-76599619D01*
X139734285Y-76599619D02*
X139639047Y-76742476D01*
X139639047Y-76742476D02*
X139543809Y-76837714D01*
X139543809Y-76837714D02*
X139448571Y-76885333D01*
X140400952Y-76694857D02*
X140448571Y-76647238D01*
X140448571Y-76647238D02*
X140543809Y-76599619D01*
X140543809Y-76599619D02*
X140781904Y-76599619D01*
X140781904Y-76599619D02*
X140877142Y-76647238D01*
X140877142Y-76647238D02*
X140924761Y-76694857D01*
X140924761Y-76694857D02*
X140972380Y-76790095D01*
X140972380Y-76790095D02*
X140972380Y-76885333D01*
X140972380Y-76885333D02*
X140924761Y-77028190D01*
X140924761Y-77028190D02*
X140353333Y-77599619D01*
X140353333Y-77599619D02*
X140972380Y-77599619D01*
X141258095Y-76599619D02*
X141591428Y-77599619D01*
X141591428Y-77599619D02*
X141924761Y-76599619D01*
X138258095Y-91618666D02*
X139020000Y-91618666D01*
X140019999Y-91999619D02*
X139448571Y-91999619D01*
X139734285Y-91999619D02*
X139734285Y-90999619D01*
X139734285Y-90999619D02*
X139639047Y-91142476D01*
X139639047Y-91142476D02*
X139543809Y-91237714D01*
X139543809Y-91237714D02*
X139448571Y-91285333D01*
X140400952Y-91094857D02*
X140448571Y-91047238D01*
X140448571Y-91047238D02*
X140543809Y-90999619D01*
X140543809Y-90999619D02*
X140781904Y-90999619D01*
X140781904Y-90999619D02*
X140877142Y-91047238D01*
X140877142Y-91047238D02*
X140924761Y-91094857D01*
X140924761Y-91094857D02*
X140972380Y-91190095D01*
X140972380Y-91190095D02*
X140972380Y-91285333D01*
X140972380Y-91285333D02*
X140924761Y-91428190D01*
X140924761Y-91428190D02*
X140353333Y-91999619D01*
X140353333Y-91999619D02*
X140972380Y-91999619D01*
X141258095Y-90999619D02*
X141591428Y-91999619D01*
X141591428Y-91999619D02*
X141924761Y-90999619D01*
X179258095Y-25218666D02*
X180020000Y-25218666D01*
X179639047Y-25599619D02*
X179639047Y-24837714D01*
X181019999Y-25599619D02*
X180448571Y-25599619D01*
X180734285Y-25599619D02*
X180734285Y-24599619D01*
X180734285Y-24599619D02*
X180639047Y-24742476D01*
X180639047Y-24742476D02*
X180543809Y-24837714D01*
X180543809Y-24837714D02*
X180448571Y-24885333D01*
X181400952Y-24694857D02*
X181448571Y-24647238D01*
X181448571Y-24647238D02*
X181543809Y-24599619D01*
X181543809Y-24599619D02*
X181781904Y-24599619D01*
X181781904Y-24599619D02*
X181877142Y-24647238D01*
X181877142Y-24647238D02*
X181924761Y-24694857D01*
X181924761Y-24694857D02*
X181972380Y-24790095D01*
X181972380Y-24790095D02*
X181972380Y-24885333D01*
X181972380Y-24885333D02*
X181924761Y-25028190D01*
X181924761Y-25028190D02*
X181353333Y-25599619D01*
X181353333Y-25599619D02*
X181972380Y-25599619D01*
X182258095Y-24599619D02*
X182591428Y-25599619D01*
X182591428Y-25599619D02*
X182924761Y-24599619D01*
X179258095Y-39618666D02*
X180020000Y-39618666D01*
X181019999Y-39999619D02*
X180448571Y-39999619D01*
X180734285Y-39999619D02*
X180734285Y-38999619D01*
X180734285Y-38999619D02*
X180639047Y-39142476D01*
X180639047Y-39142476D02*
X180543809Y-39237714D01*
X180543809Y-39237714D02*
X180448571Y-39285333D01*
X181400952Y-39094857D02*
X181448571Y-39047238D01*
X181448571Y-39047238D02*
X181543809Y-38999619D01*
X181543809Y-38999619D02*
X181781904Y-38999619D01*
X181781904Y-38999619D02*
X181877142Y-39047238D01*
X181877142Y-39047238D02*
X181924761Y-39094857D01*
X181924761Y-39094857D02*
X181972380Y-39190095D01*
X181972380Y-39190095D02*
X181972380Y-39285333D01*
X181972380Y-39285333D02*
X181924761Y-39428190D01*
X181924761Y-39428190D02*
X181353333Y-39999619D01*
X181353333Y-39999619D02*
X181972380Y-39999619D01*
X182258095Y-38999619D02*
X182591428Y-39999619D01*
X182591428Y-39999619D02*
X182924761Y-38999619D01*
X179258095Y-51218666D02*
X180020000Y-51218666D01*
X179639047Y-51599619D02*
X179639047Y-50837714D01*
X181019999Y-51599619D02*
X180448571Y-51599619D01*
X180734285Y-51599619D02*
X180734285Y-50599619D01*
X180734285Y-50599619D02*
X180639047Y-50742476D01*
X180639047Y-50742476D02*
X180543809Y-50837714D01*
X180543809Y-50837714D02*
X180448571Y-50885333D01*
X181400952Y-50694857D02*
X181448571Y-50647238D01*
X181448571Y-50647238D02*
X181543809Y-50599619D01*
X181543809Y-50599619D02*
X181781904Y-50599619D01*
X181781904Y-50599619D02*
X181877142Y-50647238D01*
X181877142Y-50647238D02*
X181924761Y-50694857D01*
X181924761Y-50694857D02*
X181972380Y-50790095D01*
X181972380Y-50790095D02*
X181972380Y-50885333D01*
X181972380Y-50885333D02*
X181924761Y-51028190D01*
X181924761Y-51028190D02*
X181353333Y-51599619D01*
X181353333Y-51599619D02*
X181972380Y-51599619D01*
X182258095Y-50599619D02*
X182591428Y-51599619D01*
X182591428Y-51599619D02*
X182924761Y-50599619D01*
X179258095Y-65618666D02*
X180020000Y-65618666D01*
X181019999Y-65999619D02*
X180448571Y-65999619D01*
X180734285Y-65999619D02*
X180734285Y-64999619D01*
X180734285Y-64999619D02*
X180639047Y-65142476D01*
X180639047Y-65142476D02*
X180543809Y-65237714D01*
X180543809Y-65237714D02*
X180448571Y-65285333D01*
X181400952Y-65094857D02*
X181448571Y-65047238D01*
X181448571Y-65047238D02*
X181543809Y-64999619D01*
X181543809Y-64999619D02*
X181781904Y-64999619D01*
X181781904Y-64999619D02*
X181877142Y-65047238D01*
X181877142Y-65047238D02*
X181924761Y-65094857D01*
X181924761Y-65094857D02*
X181972380Y-65190095D01*
X181972380Y-65190095D02*
X181972380Y-65285333D01*
X181972380Y-65285333D02*
X181924761Y-65428190D01*
X181924761Y-65428190D02*
X181353333Y-65999619D01*
X181353333Y-65999619D02*
X181972380Y-65999619D01*
X182258095Y-64999619D02*
X182591428Y-65999619D01*
X182591428Y-65999619D02*
X182924761Y-64999619D01*
X179258095Y-77218666D02*
X180020000Y-77218666D01*
X179639047Y-77599619D02*
X179639047Y-76837714D01*
X181019999Y-77599619D02*
X180448571Y-77599619D01*
X180734285Y-77599619D02*
X180734285Y-76599619D01*
X180734285Y-76599619D02*
X180639047Y-76742476D01*
X180639047Y-76742476D02*
X180543809Y-76837714D01*
X180543809Y-76837714D02*
X180448571Y-76885333D01*
X181400952Y-76694857D02*
X181448571Y-76647238D01*
X181448571Y-76647238D02*
X181543809Y-76599619D01*
X181543809Y-76599619D02*
X181781904Y-76599619D01*
X181781904Y-76599619D02*
X181877142Y-76647238D01*
X181877142Y-76647238D02*
X181924761Y-76694857D01*
X181924761Y-76694857D02*
X181972380Y-76790095D01*
X181972380Y-76790095D02*
X181972380Y-76885333D01*
X181972380Y-76885333D02*
X181924761Y-77028190D01*
X181924761Y-77028190D02*
X181353333Y-77599619D01*
X181353333Y-77599619D02*
X181972380Y-77599619D01*
X182258095Y-76599619D02*
X182591428Y-77599619D01*
X182591428Y-77599619D02*
X182924761Y-76599619D01*
X179258095Y-91618666D02*
X180020000Y-91618666D01*
X181019999Y-91999619D02*
X180448571Y-91999619D01*
X180734285Y-91999619D02*
X180734285Y-90999619D01*
X180734285Y-90999619D02*
X180639047Y-91142476D01*
X180639047Y-91142476D02*
X180543809Y-91237714D01*
X180543809Y-91237714D02*
X180448571Y-91285333D01*
X181400952Y-91094857D02*
X181448571Y-91047238D01*
X181448571Y-91047238D02*
X181543809Y-90999619D01*
X181543809Y-90999619D02*
X181781904Y-90999619D01*
X181781904Y-90999619D02*
X181877142Y-91047238D01*
X181877142Y-91047238D02*
X181924761Y-91094857D01*
X181924761Y-91094857D02*
X181972380Y-91190095D01*
X181972380Y-91190095D02*
X181972380Y-91285333D01*
X181972380Y-91285333D02*
X181924761Y-91428190D01*
X181924761Y-91428190D02*
X181353333Y-91999619D01*
X181353333Y-91999619D02*
X181972380Y-91999619D01*
X182258095Y-90999619D02*
X182591428Y-91999619D01*
X182591428Y-91999619D02*
X182924761Y-90999619D01*
D11*
X116823452Y-50429809D02*
X116823452Y-49929809D01*
X116823452Y-49929809D02*
X116942500Y-49929809D01*
X116942500Y-49929809D02*
X117013928Y-49953619D01*
X117013928Y-49953619D02*
X117061547Y-50001238D01*
X117061547Y-50001238D02*
X117085357Y-50048857D01*
X117085357Y-50048857D02*
X117109166Y-50144095D01*
X117109166Y-50144095D02*
X117109166Y-50215523D01*
X117109166Y-50215523D02*
X117085357Y-50310761D01*
X117085357Y-50310761D02*
X117061547Y-50358380D01*
X117061547Y-50358380D02*
X117013928Y-50406000D01*
X117013928Y-50406000D02*
X116942500Y-50429809D01*
X116942500Y-50429809D02*
X116823452Y-50429809D01*
X117299643Y-49977428D02*
X117323452Y-49953619D01*
X117323452Y-49953619D02*
X117371071Y-49929809D01*
X117371071Y-49929809D02*
X117490119Y-49929809D01*
X117490119Y-49929809D02*
X117537738Y-49953619D01*
X117537738Y-49953619D02*
X117561547Y-49977428D01*
X117561547Y-49977428D02*
X117585357Y-50025047D01*
X117585357Y-50025047D02*
X117585357Y-50072666D01*
X117585357Y-50072666D02*
X117561547Y-50144095D01*
X117561547Y-50144095D02*
X117275833Y-50429809D01*
X117275833Y-50429809D02*
X117585357Y-50429809D01*
X153078333Y-26424809D02*
X153078333Y-26781952D01*
X153078333Y-26781952D02*
X153054524Y-26853380D01*
X153054524Y-26853380D02*
X153006905Y-26901000D01*
X153006905Y-26901000D02*
X152935476Y-26924809D01*
X152935476Y-26924809D02*
X152887857Y-26924809D01*
X153578333Y-26924809D02*
X153292619Y-26924809D01*
X153435476Y-26924809D02*
X153435476Y-26424809D01*
X153435476Y-26424809D02*
X153387857Y-26496238D01*
X153387857Y-26496238D02*
X153340238Y-26543857D01*
X153340238Y-26543857D02*
X153292619Y-26567666D01*
X112078333Y-52424809D02*
X112078333Y-52781952D01*
X112078333Y-52781952D02*
X112054524Y-52853380D01*
X112054524Y-52853380D02*
X112006905Y-52901000D01*
X112006905Y-52901000D02*
X111935476Y-52924809D01*
X111935476Y-52924809D02*
X111887857Y-52924809D01*
X112578333Y-52924809D02*
X112292619Y-52924809D01*
X112435476Y-52924809D02*
X112435476Y-52424809D01*
X112435476Y-52424809D02*
X112387857Y-52496238D01*
X112387857Y-52496238D02*
X112340238Y-52543857D01*
X112340238Y-52543857D02*
X112292619Y-52567666D01*
X127561666Y-86499809D02*
X127395000Y-86261714D01*
X127275952Y-86499809D02*
X127275952Y-85999809D01*
X127275952Y-85999809D02*
X127466428Y-85999809D01*
X127466428Y-85999809D02*
X127514047Y-86023619D01*
X127514047Y-86023619D02*
X127537857Y-86047428D01*
X127537857Y-86047428D02*
X127561666Y-86095047D01*
X127561666Y-86095047D02*
X127561666Y-86166476D01*
X127561666Y-86166476D02*
X127537857Y-86214095D01*
X127537857Y-86214095D02*
X127514047Y-86237904D01*
X127514047Y-86237904D02*
X127466428Y-86261714D01*
X127466428Y-86261714D02*
X127275952Y-86261714D01*
X127990238Y-86166476D02*
X127990238Y-86499809D01*
X127871190Y-85976000D02*
X127752143Y-86333142D01*
X127752143Y-86333142D02*
X128061666Y-86333142D01*
X168561666Y-61172190D02*
X168537857Y-61196000D01*
X168537857Y-61196000D02*
X168466428Y-61219809D01*
X168466428Y-61219809D02*
X168418809Y-61219809D01*
X168418809Y-61219809D02*
X168347381Y-61196000D01*
X168347381Y-61196000D02*
X168299762Y-61148380D01*
X168299762Y-61148380D02*
X168275952Y-61100761D01*
X168275952Y-61100761D02*
X168252143Y-61005523D01*
X168252143Y-61005523D02*
X168252143Y-60934095D01*
X168252143Y-60934095D02*
X168275952Y-60838857D01*
X168275952Y-60838857D02*
X168299762Y-60791238D01*
X168299762Y-60791238D02*
X168347381Y-60743619D01*
X168347381Y-60743619D02*
X168418809Y-60719809D01*
X168418809Y-60719809D02*
X168466428Y-60719809D01*
X168466428Y-60719809D02*
X168537857Y-60743619D01*
X168537857Y-60743619D02*
X168561666Y-60767428D01*
X168728333Y-60719809D02*
X169037857Y-60719809D01*
X169037857Y-60719809D02*
X168871190Y-60910285D01*
X168871190Y-60910285D02*
X168942619Y-60910285D01*
X168942619Y-60910285D02*
X168990238Y-60934095D01*
X168990238Y-60934095D02*
X169014047Y-60957904D01*
X169014047Y-60957904D02*
X169037857Y-61005523D01*
X169037857Y-61005523D02*
X169037857Y-61124571D01*
X169037857Y-61124571D02*
X169014047Y-61172190D01*
X169014047Y-61172190D02*
X168990238Y-61196000D01*
X168990238Y-61196000D02*
X168942619Y-61219809D01*
X168942619Y-61219809D02*
X168799762Y-61219809D01*
X168799762Y-61219809D02*
X168752143Y-61196000D01*
X168752143Y-61196000D02*
X168728333Y-61172190D01*
X160151547Y-77199809D02*
X159913452Y-77199809D01*
X159913452Y-77199809D02*
X159913452Y-76699809D01*
X160580119Y-77199809D02*
X160294405Y-77199809D01*
X160437262Y-77199809D02*
X160437262Y-76699809D01*
X160437262Y-76699809D02*
X160389643Y-76771238D01*
X160389643Y-76771238D02*
X160342024Y-76818857D01*
X160342024Y-76818857D02*
X160294405Y-76842666D01*
X142523333Y-52024809D02*
X142523333Y-52381952D01*
X142523333Y-52381952D02*
X142499524Y-52453380D01*
X142499524Y-52453380D02*
X142451905Y-52501000D01*
X142451905Y-52501000D02*
X142380476Y-52524809D01*
X142380476Y-52524809D02*
X142332857Y-52524809D01*
X142737619Y-52072428D02*
X142761428Y-52048619D01*
X142761428Y-52048619D02*
X142809047Y-52024809D01*
X142809047Y-52024809D02*
X142928095Y-52024809D01*
X142928095Y-52024809D02*
X142975714Y-52048619D01*
X142975714Y-52048619D02*
X142999523Y-52072428D01*
X142999523Y-52072428D02*
X143023333Y-52120047D01*
X143023333Y-52120047D02*
X143023333Y-52167666D01*
X143023333Y-52167666D02*
X142999523Y-52239095D01*
X142999523Y-52239095D02*
X142713809Y-52524809D01*
X142713809Y-52524809D02*
X143023333Y-52524809D01*
X137381666Y-48597190D02*
X137357857Y-48621000D01*
X137357857Y-48621000D02*
X137286428Y-48644809D01*
X137286428Y-48644809D02*
X137238809Y-48644809D01*
X137238809Y-48644809D02*
X137167381Y-48621000D01*
X137167381Y-48621000D02*
X137119762Y-48573380D01*
X137119762Y-48573380D02*
X137095952Y-48525761D01*
X137095952Y-48525761D02*
X137072143Y-48430523D01*
X137072143Y-48430523D02*
X137072143Y-48359095D01*
X137072143Y-48359095D02*
X137095952Y-48263857D01*
X137095952Y-48263857D02*
X137119762Y-48216238D01*
X137119762Y-48216238D02*
X137167381Y-48168619D01*
X137167381Y-48168619D02*
X137238809Y-48144809D01*
X137238809Y-48144809D02*
X137286428Y-48144809D01*
X137286428Y-48144809D02*
X137357857Y-48168619D01*
X137357857Y-48168619D02*
X137381666Y-48192428D01*
X137834047Y-48144809D02*
X137595952Y-48144809D01*
X137595952Y-48144809D02*
X137572143Y-48382904D01*
X137572143Y-48382904D02*
X137595952Y-48359095D01*
X137595952Y-48359095D02*
X137643571Y-48335285D01*
X137643571Y-48335285D02*
X137762619Y-48335285D01*
X137762619Y-48335285D02*
X137810238Y-48359095D01*
X137810238Y-48359095D02*
X137834047Y-48382904D01*
X137834047Y-48382904D02*
X137857857Y-48430523D01*
X137857857Y-48430523D02*
X137857857Y-48549571D01*
X137857857Y-48549571D02*
X137834047Y-48597190D01*
X137834047Y-48597190D02*
X137810238Y-48621000D01*
X137810238Y-48621000D02*
X137762619Y-48644809D01*
X137762619Y-48644809D02*
X137643571Y-48644809D01*
X137643571Y-48644809D02*
X137595952Y-48621000D01*
X137595952Y-48621000D02*
X137572143Y-48597190D01*
X133091666Y-39087190D02*
X133067857Y-39111000D01*
X133067857Y-39111000D02*
X132996428Y-39134809D01*
X132996428Y-39134809D02*
X132948809Y-39134809D01*
X132948809Y-39134809D02*
X132877381Y-39111000D01*
X132877381Y-39111000D02*
X132829762Y-39063380D01*
X132829762Y-39063380D02*
X132805952Y-39015761D01*
X132805952Y-39015761D02*
X132782143Y-38920523D01*
X132782143Y-38920523D02*
X132782143Y-38849095D01*
X132782143Y-38849095D02*
X132805952Y-38753857D01*
X132805952Y-38753857D02*
X132829762Y-38706238D01*
X132829762Y-38706238D02*
X132877381Y-38658619D01*
X132877381Y-38658619D02*
X132948809Y-38634809D01*
X132948809Y-38634809D02*
X132996428Y-38634809D01*
X132996428Y-38634809D02*
X133067857Y-38658619D01*
X133067857Y-38658619D02*
X133091666Y-38682428D01*
X133282143Y-38682428D02*
X133305952Y-38658619D01*
X133305952Y-38658619D02*
X133353571Y-38634809D01*
X133353571Y-38634809D02*
X133472619Y-38634809D01*
X133472619Y-38634809D02*
X133520238Y-38658619D01*
X133520238Y-38658619D02*
X133544047Y-38682428D01*
X133544047Y-38682428D02*
X133567857Y-38730047D01*
X133567857Y-38730047D02*
X133567857Y-38777666D01*
X133567857Y-38777666D02*
X133544047Y-38849095D01*
X133544047Y-38849095D02*
X133258333Y-39134809D01*
X133258333Y-39134809D02*
X133567857Y-39134809D01*
X178381666Y-22597190D02*
X178357857Y-22621000D01*
X178357857Y-22621000D02*
X178286428Y-22644809D01*
X178286428Y-22644809D02*
X178238809Y-22644809D01*
X178238809Y-22644809D02*
X178167381Y-22621000D01*
X178167381Y-22621000D02*
X178119762Y-22573380D01*
X178119762Y-22573380D02*
X178095952Y-22525761D01*
X178095952Y-22525761D02*
X178072143Y-22430523D01*
X178072143Y-22430523D02*
X178072143Y-22359095D01*
X178072143Y-22359095D02*
X178095952Y-22263857D01*
X178095952Y-22263857D02*
X178119762Y-22216238D01*
X178119762Y-22216238D02*
X178167381Y-22168619D01*
X178167381Y-22168619D02*
X178238809Y-22144809D01*
X178238809Y-22144809D02*
X178286428Y-22144809D01*
X178286428Y-22144809D02*
X178357857Y-22168619D01*
X178357857Y-22168619D02*
X178381666Y-22192428D01*
X178834047Y-22144809D02*
X178595952Y-22144809D01*
X178595952Y-22144809D02*
X178572143Y-22382904D01*
X178572143Y-22382904D02*
X178595952Y-22359095D01*
X178595952Y-22359095D02*
X178643571Y-22335285D01*
X178643571Y-22335285D02*
X178762619Y-22335285D01*
X178762619Y-22335285D02*
X178810238Y-22359095D01*
X178810238Y-22359095D02*
X178834047Y-22382904D01*
X178834047Y-22382904D02*
X178857857Y-22430523D01*
X178857857Y-22430523D02*
X178857857Y-22549571D01*
X178857857Y-22549571D02*
X178834047Y-22597190D01*
X178834047Y-22597190D02*
X178810238Y-22621000D01*
X178810238Y-22621000D02*
X178762619Y-22644809D01*
X178762619Y-22644809D02*
X178643571Y-22644809D01*
X178643571Y-22644809D02*
X178595952Y-22621000D01*
X178595952Y-22621000D02*
X178572143Y-22597190D01*
X159051666Y-28649809D02*
X158885000Y-28411714D01*
X158765952Y-28649809D02*
X158765952Y-28149809D01*
X158765952Y-28149809D02*
X158956428Y-28149809D01*
X158956428Y-28149809D02*
X159004047Y-28173619D01*
X159004047Y-28173619D02*
X159027857Y-28197428D01*
X159027857Y-28197428D02*
X159051666Y-28245047D01*
X159051666Y-28245047D02*
X159051666Y-28316476D01*
X159051666Y-28316476D02*
X159027857Y-28364095D01*
X159027857Y-28364095D02*
X159004047Y-28387904D01*
X159004047Y-28387904D02*
X158956428Y-28411714D01*
X158956428Y-28411714D02*
X158765952Y-28411714D01*
X159242143Y-28197428D02*
X159265952Y-28173619D01*
X159265952Y-28173619D02*
X159313571Y-28149809D01*
X159313571Y-28149809D02*
X159432619Y-28149809D01*
X159432619Y-28149809D02*
X159480238Y-28173619D01*
X159480238Y-28173619D02*
X159504047Y-28197428D01*
X159504047Y-28197428D02*
X159527857Y-28245047D01*
X159527857Y-28245047D02*
X159527857Y-28292666D01*
X159527857Y-28292666D02*
X159504047Y-28364095D01*
X159504047Y-28364095D02*
X159218333Y-28649809D01*
X159218333Y-28649809D02*
X159527857Y-28649809D01*
X118913452Y-25439809D02*
X118913452Y-25844571D01*
X118913452Y-25844571D02*
X118937262Y-25892190D01*
X118937262Y-25892190D02*
X118961071Y-25916000D01*
X118961071Y-25916000D02*
X119008690Y-25939809D01*
X119008690Y-25939809D02*
X119103928Y-25939809D01*
X119103928Y-25939809D02*
X119151547Y-25916000D01*
X119151547Y-25916000D02*
X119175357Y-25892190D01*
X119175357Y-25892190D02*
X119199166Y-25844571D01*
X119199166Y-25844571D02*
X119199166Y-25439809D01*
X119699167Y-25939809D02*
X119413453Y-25939809D01*
X119556310Y-25939809D02*
X119556310Y-25439809D01*
X119556310Y-25439809D02*
X119508691Y-25511238D01*
X119508691Y-25511238D02*
X119461072Y-25558857D01*
X119461072Y-25558857D02*
X119413453Y-25582666D01*
X135421666Y-81129809D02*
X135255000Y-80891714D01*
X135135952Y-81129809D02*
X135135952Y-80629809D01*
X135135952Y-80629809D02*
X135326428Y-80629809D01*
X135326428Y-80629809D02*
X135374047Y-80653619D01*
X135374047Y-80653619D02*
X135397857Y-80677428D01*
X135397857Y-80677428D02*
X135421666Y-80725047D01*
X135421666Y-80725047D02*
X135421666Y-80796476D01*
X135421666Y-80796476D02*
X135397857Y-80844095D01*
X135397857Y-80844095D02*
X135374047Y-80867904D01*
X135374047Y-80867904D02*
X135326428Y-80891714D01*
X135326428Y-80891714D02*
X135135952Y-80891714D01*
X135850238Y-80629809D02*
X135755000Y-80629809D01*
X135755000Y-80629809D02*
X135707381Y-80653619D01*
X135707381Y-80653619D02*
X135683571Y-80677428D01*
X135683571Y-80677428D02*
X135635952Y-80748857D01*
X135635952Y-80748857D02*
X135612143Y-80844095D01*
X135612143Y-80844095D02*
X135612143Y-81034571D01*
X135612143Y-81034571D02*
X135635952Y-81082190D01*
X135635952Y-81082190D02*
X135659762Y-81106000D01*
X135659762Y-81106000D02*
X135707381Y-81129809D01*
X135707381Y-81129809D02*
X135802619Y-81129809D01*
X135802619Y-81129809D02*
X135850238Y-81106000D01*
X135850238Y-81106000D02*
X135874047Y-81082190D01*
X135874047Y-81082190D02*
X135897857Y-81034571D01*
X135897857Y-81034571D02*
X135897857Y-80915523D01*
X135897857Y-80915523D02*
X135874047Y-80867904D01*
X135874047Y-80867904D02*
X135850238Y-80844095D01*
X135850238Y-80844095D02*
X135802619Y-80820285D01*
X135802619Y-80820285D02*
X135707381Y-80820285D01*
X135707381Y-80820285D02*
X135659762Y-80844095D01*
X135659762Y-80844095D02*
X135635952Y-80867904D01*
X135635952Y-80867904D02*
X135612143Y-80915523D01*
X160151547Y-51199809D02*
X159913452Y-51199809D01*
X159913452Y-51199809D02*
X159913452Y-50699809D01*
X160580119Y-51199809D02*
X160294405Y-51199809D01*
X160437262Y-51199809D02*
X160437262Y-50699809D01*
X160437262Y-50699809D02*
X160389643Y-50771238D01*
X160389643Y-50771238D02*
X160342024Y-50818857D01*
X160342024Y-50818857D02*
X160294405Y-50842666D01*
X119151547Y-77199809D02*
X118913452Y-77199809D01*
X118913452Y-77199809D02*
X118913452Y-76699809D01*
X119580119Y-77199809D02*
X119294405Y-77199809D01*
X119437262Y-77199809D02*
X119437262Y-76699809D01*
X119437262Y-76699809D02*
X119389643Y-76771238D01*
X119389643Y-76771238D02*
X119342024Y-76818857D01*
X119342024Y-76818857D02*
X119294405Y-76842666D01*
X175181666Y-54847190D02*
X175157857Y-54871000D01*
X175157857Y-54871000D02*
X175086428Y-54894809D01*
X175086428Y-54894809D02*
X175038809Y-54894809D01*
X175038809Y-54894809D02*
X174967381Y-54871000D01*
X174967381Y-54871000D02*
X174919762Y-54823380D01*
X174919762Y-54823380D02*
X174895952Y-54775761D01*
X174895952Y-54775761D02*
X174872143Y-54680523D01*
X174872143Y-54680523D02*
X174872143Y-54609095D01*
X174872143Y-54609095D02*
X174895952Y-54513857D01*
X174895952Y-54513857D02*
X174919762Y-54466238D01*
X174919762Y-54466238D02*
X174967381Y-54418619D01*
X174967381Y-54418619D02*
X175038809Y-54394809D01*
X175038809Y-54394809D02*
X175086428Y-54394809D01*
X175086428Y-54394809D02*
X175157857Y-54418619D01*
X175157857Y-54418619D02*
X175181666Y-54442428D01*
X175610238Y-54394809D02*
X175515000Y-54394809D01*
X175515000Y-54394809D02*
X175467381Y-54418619D01*
X175467381Y-54418619D02*
X175443571Y-54442428D01*
X175443571Y-54442428D02*
X175395952Y-54513857D01*
X175395952Y-54513857D02*
X175372143Y-54609095D01*
X175372143Y-54609095D02*
X175372143Y-54799571D01*
X175372143Y-54799571D02*
X175395952Y-54847190D01*
X175395952Y-54847190D02*
X175419762Y-54871000D01*
X175419762Y-54871000D02*
X175467381Y-54894809D01*
X175467381Y-54894809D02*
X175562619Y-54894809D01*
X175562619Y-54894809D02*
X175610238Y-54871000D01*
X175610238Y-54871000D02*
X175634047Y-54847190D01*
X175634047Y-54847190D02*
X175657857Y-54799571D01*
X175657857Y-54799571D02*
X175657857Y-54680523D01*
X175657857Y-54680523D02*
X175634047Y-54632904D01*
X175634047Y-54632904D02*
X175610238Y-54609095D01*
X175610238Y-54609095D02*
X175562619Y-54585285D01*
X175562619Y-54585285D02*
X175467381Y-54585285D01*
X175467381Y-54585285D02*
X175419762Y-54609095D01*
X175419762Y-54609095D02*
X175395952Y-54632904D01*
X175395952Y-54632904D02*
X175372143Y-54680523D01*
X174091666Y-39087190D02*
X174067857Y-39111000D01*
X174067857Y-39111000D02*
X173996428Y-39134809D01*
X173996428Y-39134809D02*
X173948809Y-39134809D01*
X173948809Y-39134809D02*
X173877381Y-39111000D01*
X173877381Y-39111000D02*
X173829762Y-39063380D01*
X173829762Y-39063380D02*
X173805952Y-39015761D01*
X173805952Y-39015761D02*
X173782143Y-38920523D01*
X173782143Y-38920523D02*
X173782143Y-38849095D01*
X173782143Y-38849095D02*
X173805952Y-38753857D01*
X173805952Y-38753857D02*
X173829762Y-38706238D01*
X173829762Y-38706238D02*
X173877381Y-38658619D01*
X173877381Y-38658619D02*
X173948809Y-38634809D01*
X173948809Y-38634809D02*
X173996428Y-38634809D01*
X173996428Y-38634809D02*
X174067857Y-38658619D01*
X174067857Y-38658619D02*
X174091666Y-38682428D01*
X174282143Y-38682428D02*
X174305952Y-38658619D01*
X174305952Y-38658619D02*
X174353571Y-38634809D01*
X174353571Y-38634809D02*
X174472619Y-38634809D01*
X174472619Y-38634809D02*
X174520238Y-38658619D01*
X174520238Y-38658619D02*
X174544047Y-38682428D01*
X174544047Y-38682428D02*
X174567857Y-38730047D01*
X174567857Y-38730047D02*
X174567857Y-38777666D01*
X174567857Y-38777666D02*
X174544047Y-38849095D01*
X174544047Y-38849095D02*
X174258333Y-39134809D01*
X174258333Y-39134809D02*
X174567857Y-39134809D01*
X176421666Y-28459809D02*
X176255000Y-28221714D01*
X176135952Y-28459809D02*
X176135952Y-27959809D01*
X176135952Y-27959809D02*
X176326428Y-27959809D01*
X176326428Y-27959809D02*
X176374047Y-27983619D01*
X176374047Y-27983619D02*
X176397857Y-28007428D01*
X176397857Y-28007428D02*
X176421666Y-28055047D01*
X176421666Y-28055047D02*
X176421666Y-28126476D01*
X176421666Y-28126476D02*
X176397857Y-28174095D01*
X176397857Y-28174095D02*
X176374047Y-28197904D01*
X176374047Y-28197904D02*
X176326428Y-28221714D01*
X176326428Y-28221714D02*
X176135952Y-28221714D01*
X176874047Y-27959809D02*
X176635952Y-27959809D01*
X176635952Y-27959809D02*
X176612143Y-28197904D01*
X176612143Y-28197904D02*
X176635952Y-28174095D01*
X176635952Y-28174095D02*
X176683571Y-28150285D01*
X176683571Y-28150285D02*
X176802619Y-28150285D01*
X176802619Y-28150285D02*
X176850238Y-28174095D01*
X176850238Y-28174095D02*
X176874047Y-28197904D01*
X176874047Y-28197904D02*
X176897857Y-28245523D01*
X176897857Y-28245523D02*
X176897857Y-28364571D01*
X176897857Y-28364571D02*
X176874047Y-28412190D01*
X176874047Y-28412190D02*
X176850238Y-28436000D01*
X176850238Y-28436000D02*
X176802619Y-28459809D01*
X176802619Y-28459809D02*
X176683571Y-28459809D01*
X176683571Y-28459809D02*
X176635952Y-28436000D01*
X176635952Y-28436000D02*
X176612143Y-28412190D01*
X158096666Y-26159809D02*
X157930000Y-25921714D01*
X157810952Y-26159809D02*
X157810952Y-25659809D01*
X157810952Y-25659809D02*
X158001428Y-25659809D01*
X158001428Y-25659809D02*
X158049047Y-25683619D01*
X158049047Y-25683619D02*
X158072857Y-25707428D01*
X158072857Y-25707428D02*
X158096666Y-25755047D01*
X158096666Y-25755047D02*
X158096666Y-25826476D01*
X158096666Y-25826476D02*
X158072857Y-25874095D01*
X158072857Y-25874095D02*
X158049047Y-25897904D01*
X158049047Y-25897904D02*
X158001428Y-25921714D01*
X158001428Y-25921714D02*
X157810952Y-25921714D01*
X158263333Y-25659809D02*
X158572857Y-25659809D01*
X158572857Y-25659809D02*
X158406190Y-25850285D01*
X158406190Y-25850285D02*
X158477619Y-25850285D01*
X158477619Y-25850285D02*
X158525238Y-25874095D01*
X158525238Y-25874095D02*
X158549047Y-25897904D01*
X158549047Y-25897904D02*
X158572857Y-25945523D01*
X158572857Y-25945523D02*
X158572857Y-26064571D01*
X158572857Y-26064571D02*
X158549047Y-26112190D01*
X158549047Y-26112190D02*
X158525238Y-26136000D01*
X158525238Y-26136000D02*
X158477619Y-26159809D01*
X158477619Y-26159809D02*
X158334762Y-26159809D01*
X158334762Y-26159809D02*
X158287143Y-26136000D01*
X158287143Y-26136000D02*
X158263333Y-26112190D01*
X157823452Y-50429809D02*
X157823452Y-49929809D01*
X157823452Y-49929809D02*
X157942500Y-49929809D01*
X157942500Y-49929809D02*
X158013928Y-49953619D01*
X158013928Y-49953619D02*
X158061547Y-50001238D01*
X158061547Y-50001238D02*
X158085357Y-50048857D01*
X158085357Y-50048857D02*
X158109166Y-50144095D01*
X158109166Y-50144095D02*
X158109166Y-50215523D01*
X158109166Y-50215523D02*
X158085357Y-50310761D01*
X158085357Y-50310761D02*
X158061547Y-50358380D01*
X158061547Y-50358380D02*
X158013928Y-50406000D01*
X158013928Y-50406000D02*
X157942500Y-50429809D01*
X157942500Y-50429809D02*
X157823452Y-50429809D01*
X158299643Y-49977428D02*
X158323452Y-49953619D01*
X158323452Y-49953619D02*
X158371071Y-49929809D01*
X158371071Y-49929809D02*
X158490119Y-49929809D01*
X158490119Y-49929809D02*
X158537738Y-49953619D01*
X158537738Y-49953619D02*
X158561547Y-49977428D01*
X158561547Y-49977428D02*
X158585357Y-50025047D01*
X158585357Y-50025047D02*
X158585357Y-50072666D01*
X158585357Y-50072666D02*
X158561547Y-50144095D01*
X158561547Y-50144095D02*
X158275833Y-50429809D01*
X158275833Y-50429809D02*
X158585357Y-50429809D01*
X118051666Y-32649809D02*
X117885000Y-32411714D01*
X117765952Y-32649809D02*
X117765952Y-32149809D01*
X117765952Y-32149809D02*
X117956428Y-32149809D01*
X117956428Y-32149809D02*
X118004047Y-32173619D01*
X118004047Y-32173619D02*
X118027857Y-32197428D01*
X118027857Y-32197428D02*
X118051666Y-32245047D01*
X118051666Y-32245047D02*
X118051666Y-32316476D01*
X118051666Y-32316476D02*
X118027857Y-32364095D01*
X118027857Y-32364095D02*
X118004047Y-32387904D01*
X118004047Y-32387904D02*
X117956428Y-32411714D01*
X117956428Y-32411714D02*
X117765952Y-32411714D01*
X118527857Y-32649809D02*
X118242143Y-32649809D01*
X118385000Y-32649809D02*
X118385000Y-32149809D01*
X118385000Y-32149809D02*
X118337381Y-32221238D01*
X118337381Y-32221238D02*
X118289762Y-32268857D01*
X118289762Y-32268857D02*
X118242143Y-32292666D01*
X112078333Y-78424809D02*
X112078333Y-78781952D01*
X112078333Y-78781952D02*
X112054524Y-78853380D01*
X112054524Y-78853380D02*
X112006905Y-78901000D01*
X112006905Y-78901000D02*
X111935476Y-78924809D01*
X111935476Y-78924809D02*
X111887857Y-78924809D01*
X112578333Y-78924809D02*
X112292619Y-78924809D01*
X112435476Y-78924809D02*
X112435476Y-78424809D01*
X112435476Y-78424809D02*
X112387857Y-78496238D01*
X112387857Y-78496238D02*
X112340238Y-78543857D01*
X112340238Y-78543857D02*
X112292619Y-78567666D01*
X127716666Y-69162190D02*
X127692857Y-69186000D01*
X127692857Y-69186000D02*
X127621428Y-69209809D01*
X127621428Y-69209809D02*
X127573809Y-69209809D01*
X127573809Y-69209809D02*
X127502381Y-69186000D01*
X127502381Y-69186000D02*
X127454762Y-69138380D01*
X127454762Y-69138380D02*
X127430952Y-69090761D01*
X127430952Y-69090761D02*
X127407143Y-68995523D01*
X127407143Y-68995523D02*
X127407143Y-68924095D01*
X127407143Y-68924095D02*
X127430952Y-68828857D01*
X127430952Y-68828857D02*
X127454762Y-68781238D01*
X127454762Y-68781238D02*
X127502381Y-68733619D01*
X127502381Y-68733619D02*
X127573809Y-68709809D01*
X127573809Y-68709809D02*
X127621428Y-68709809D01*
X127621428Y-68709809D02*
X127692857Y-68733619D01*
X127692857Y-68733619D02*
X127716666Y-68757428D01*
X128192857Y-69209809D02*
X127907143Y-69209809D01*
X128050000Y-69209809D02*
X128050000Y-68709809D01*
X128050000Y-68709809D02*
X128002381Y-68781238D01*
X128002381Y-68781238D02*
X127954762Y-68828857D01*
X127954762Y-68828857D02*
X127907143Y-68852666D01*
X117096666Y-52159809D02*
X116930000Y-51921714D01*
X116810952Y-52159809D02*
X116810952Y-51659809D01*
X116810952Y-51659809D02*
X117001428Y-51659809D01*
X117001428Y-51659809D02*
X117049047Y-51683619D01*
X117049047Y-51683619D02*
X117072857Y-51707428D01*
X117072857Y-51707428D02*
X117096666Y-51755047D01*
X117096666Y-51755047D02*
X117096666Y-51826476D01*
X117096666Y-51826476D02*
X117072857Y-51874095D01*
X117072857Y-51874095D02*
X117049047Y-51897904D01*
X117049047Y-51897904D02*
X117001428Y-51921714D01*
X117001428Y-51921714D02*
X116810952Y-51921714D01*
X117263333Y-51659809D02*
X117572857Y-51659809D01*
X117572857Y-51659809D02*
X117406190Y-51850285D01*
X117406190Y-51850285D02*
X117477619Y-51850285D01*
X117477619Y-51850285D02*
X117525238Y-51874095D01*
X117525238Y-51874095D02*
X117549047Y-51897904D01*
X117549047Y-51897904D02*
X117572857Y-51945523D01*
X117572857Y-51945523D02*
X117572857Y-52064571D01*
X117572857Y-52064571D02*
X117549047Y-52112190D01*
X117549047Y-52112190D02*
X117525238Y-52136000D01*
X117525238Y-52136000D02*
X117477619Y-52159809D01*
X117477619Y-52159809D02*
X117334762Y-52159809D01*
X117334762Y-52159809D02*
X117287143Y-52136000D01*
X117287143Y-52136000D02*
X117263333Y-52112190D01*
X117096666Y-26159809D02*
X116930000Y-25921714D01*
X116810952Y-26159809D02*
X116810952Y-25659809D01*
X116810952Y-25659809D02*
X117001428Y-25659809D01*
X117001428Y-25659809D02*
X117049047Y-25683619D01*
X117049047Y-25683619D02*
X117072857Y-25707428D01*
X117072857Y-25707428D02*
X117096666Y-25755047D01*
X117096666Y-25755047D02*
X117096666Y-25826476D01*
X117096666Y-25826476D02*
X117072857Y-25874095D01*
X117072857Y-25874095D02*
X117049047Y-25897904D01*
X117049047Y-25897904D02*
X117001428Y-25921714D01*
X117001428Y-25921714D02*
X116810952Y-25921714D01*
X117263333Y-25659809D02*
X117572857Y-25659809D01*
X117572857Y-25659809D02*
X117406190Y-25850285D01*
X117406190Y-25850285D02*
X117477619Y-25850285D01*
X117477619Y-25850285D02*
X117525238Y-25874095D01*
X117525238Y-25874095D02*
X117549047Y-25897904D01*
X117549047Y-25897904D02*
X117572857Y-25945523D01*
X117572857Y-25945523D02*
X117572857Y-26064571D01*
X117572857Y-26064571D02*
X117549047Y-26112190D01*
X117549047Y-26112190D02*
X117525238Y-26136000D01*
X117525238Y-26136000D02*
X117477619Y-26159809D01*
X117477619Y-26159809D02*
X117334762Y-26159809D01*
X117334762Y-26159809D02*
X117287143Y-26136000D01*
X117287143Y-26136000D02*
X117263333Y-26112190D01*
X134181666Y-54847190D02*
X134157857Y-54871000D01*
X134157857Y-54871000D02*
X134086428Y-54894809D01*
X134086428Y-54894809D02*
X134038809Y-54894809D01*
X134038809Y-54894809D02*
X133967381Y-54871000D01*
X133967381Y-54871000D02*
X133919762Y-54823380D01*
X133919762Y-54823380D02*
X133895952Y-54775761D01*
X133895952Y-54775761D02*
X133872143Y-54680523D01*
X133872143Y-54680523D02*
X133872143Y-54609095D01*
X133872143Y-54609095D02*
X133895952Y-54513857D01*
X133895952Y-54513857D02*
X133919762Y-54466238D01*
X133919762Y-54466238D02*
X133967381Y-54418619D01*
X133967381Y-54418619D02*
X134038809Y-54394809D01*
X134038809Y-54394809D02*
X134086428Y-54394809D01*
X134086428Y-54394809D02*
X134157857Y-54418619D01*
X134157857Y-54418619D02*
X134181666Y-54442428D01*
X134610238Y-54394809D02*
X134515000Y-54394809D01*
X134515000Y-54394809D02*
X134467381Y-54418619D01*
X134467381Y-54418619D02*
X134443571Y-54442428D01*
X134443571Y-54442428D02*
X134395952Y-54513857D01*
X134395952Y-54513857D02*
X134372143Y-54609095D01*
X134372143Y-54609095D02*
X134372143Y-54799571D01*
X134372143Y-54799571D02*
X134395952Y-54847190D01*
X134395952Y-54847190D02*
X134419762Y-54871000D01*
X134419762Y-54871000D02*
X134467381Y-54894809D01*
X134467381Y-54894809D02*
X134562619Y-54894809D01*
X134562619Y-54894809D02*
X134610238Y-54871000D01*
X134610238Y-54871000D02*
X134634047Y-54847190D01*
X134634047Y-54847190D02*
X134657857Y-54799571D01*
X134657857Y-54799571D02*
X134657857Y-54680523D01*
X134657857Y-54680523D02*
X134634047Y-54632904D01*
X134634047Y-54632904D02*
X134610238Y-54609095D01*
X134610238Y-54609095D02*
X134562619Y-54585285D01*
X134562619Y-54585285D02*
X134467381Y-54585285D01*
X134467381Y-54585285D02*
X134419762Y-54609095D01*
X134419762Y-54609095D02*
X134395952Y-54632904D01*
X134395952Y-54632904D02*
X134372143Y-54680523D01*
X127561666Y-87172190D02*
X127537857Y-87196000D01*
X127537857Y-87196000D02*
X127466428Y-87219809D01*
X127466428Y-87219809D02*
X127418809Y-87219809D01*
X127418809Y-87219809D02*
X127347381Y-87196000D01*
X127347381Y-87196000D02*
X127299762Y-87148380D01*
X127299762Y-87148380D02*
X127275952Y-87100761D01*
X127275952Y-87100761D02*
X127252143Y-87005523D01*
X127252143Y-87005523D02*
X127252143Y-86934095D01*
X127252143Y-86934095D02*
X127275952Y-86838857D01*
X127275952Y-86838857D02*
X127299762Y-86791238D01*
X127299762Y-86791238D02*
X127347381Y-86743619D01*
X127347381Y-86743619D02*
X127418809Y-86719809D01*
X127418809Y-86719809D02*
X127466428Y-86719809D01*
X127466428Y-86719809D02*
X127537857Y-86743619D01*
X127537857Y-86743619D02*
X127561666Y-86767428D01*
X127728333Y-86719809D02*
X128037857Y-86719809D01*
X128037857Y-86719809D02*
X127871190Y-86910285D01*
X127871190Y-86910285D02*
X127942619Y-86910285D01*
X127942619Y-86910285D02*
X127990238Y-86934095D01*
X127990238Y-86934095D02*
X128014047Y-86957904D01*
X128014047Y-86957904D02*
X128037857Y-87005523D01*
X128037857Y-87005523D02*
X128037857Y-87124571D01*
X128037857Y-87124571D02*
X128014047Y-87172190D01*
X128014047Y-87172190D02*
X127990238Y-87196000D01*
X127990238Y-87196000D02*
X127942619Y-87219809D01*
X127942619Y-87219809D02*
X127799762Y-87219809D01*
X127799762Y-87219809D02*
X127752143Y-87196000D01*
X127752143Y-87196000D02*
X127728333Y-87172190D01*
X159051666Y-33362190D02*
X159027857Y-33386000D01*
X159027857Y-33386000D02*
X158956428Y-33409809D01*
X158956428Y-33409809D02*
X158908809Y-33409809D01*
X158908809Y-33409809D02*
X158837381Y-33386000D01*
X158837381Y-33386000D02*
X158789762Y-33338380D01*
X158789762Y-33338380D02*
X158765952Y-33290761D01*
X158765952Y-33290761D02*
X158742143Y-33195523D01*
X158742143Y-33195523D02*
X158742143Y-33124095D01*
X158742143Y-33124095D02*
X158765952Y-33028857D01*
X158765952Y-33028857D02*
X158789762Y-32981238D01*
X158789762Y-32981238D02*
X158837381Y-32933619D01*
X158837381Y-32933619D02*
X158908809Y-32909809D01*
X158908809Y-32909809D02*
X158956428Y-32909809D01*
X158956428Y-32909809D02*
X159027857Y-32933619D01*
X159027857Y-32933619D02*
X159051666Y-32957428D01*
X159480238Y-33076476D02*
X159480238Y-33409809D01*
X159361190Y-32886000D02*
X159242143Y-33243142D01*
X159242143Y-33243142D02*
X159551666Y-33243142D01*
X118913452Y-50494809D02*
X118913452Y-49994809D01*
X118913452Y-49994809D02*
X119032500Y-49994809D01*
X119032500Y-49994809D02*
X119103928Y-50018619D01*
X119103928Y-50018619D02*
X119151547Y-50066238D01*
X119151547Y-50066238D02*
X119175357Y-50113857D01*
X119175357Y-50113857D02*
X119199166Y-50209095D01*
X119199166Y-50209095D02*
X119199166Y-50280523D01*
X119199166Y-50280523D02*
X119175357Y-50375761D01*
X119175357Y-50375761D02*
X119151547Y-50423380D01*
X119151547Y-50423380D02*
X119103928Y-50471000D01*
X119103928Y-50471000D02*
X119032500Y-50494809D01*
X119032500Y-50494809D02*
X118913452Y-50494809D01*
X119365833Y-49994809D02*
X119675357Y-49994809D01*
X119675357Y-49994809D02*
X119508690Y-50185285D01*
X119508690Y-50185285D02*
X119580119Y-50185285D01*
X119580119Y-50185285D02*
X119627738Y-50209095D01*
X119627738Y-50209095D02*
X119651547Y-50232904D01*
X119651547Y-50232904D02*
X119675357Y-50280523D01*
X119675357Y-50280523D02*
X119675357Y-50399571D01*
X119675357Y-50399571D02*
X119651547Y-50447190D01*
X119651547Y-50447190D02*
X119627738Y-50471000D01*
X119627738Y-50471000D02*
X119580119Y-50494809D01*
X119580119Y-50494809D02*
X119437262Y-50494809D01*
X119437262Y-50494809D02*
X119389643Y-50471000D01*
X119389643Y-50471000D02*
X119365833Y-50447190D01*
X127561666Y-35172190D02*
X127537857Y-35196000D01*
X127537857Y-35196000D02*
X127466428Y-35219809D01*
X127466428Y-35219809D02*
X127418809Y-35219809D01*
X127418809Y-35219809D02*
X127347381Y-35196000D01*
X127347381Y-35196000D02*
X127299762Y-35148380D01*
X127299762Y-35148380D02*
X127275952Y-35100761D01*
X127275952Y-35100761D02*
X127252143Y-35005523D01*
X127252143Y-35005523D02*
X127252143Y-34934095D01*
X127252143Y-34934095D02*
X127275952Y-34838857D01*
X127275952Y-34838857D02*
X127299762Y-34791238D01*
X127299762Y-34791238D02*
X127347381Y-34743619D01*
X127347381Y-34743619D02*
X127418809Y-34719809D01*
X127418809Y-34719809D02*
X127466428Y-34719809D01*
X127466428Y-34719809D02*
X127537857Y-34743619D01*
X127537857Y-34743619D02*
X127561666Y-34767428D01*
X127728333Y-34719809D02*
X128037857Y-34719809D01*
X128037857Y-34719809D02*
X127871190Y-34910285D01*
X127871190Y-34910285D02*
X127942619Y-34910285D01*
X127942619Y-34910285D02*
X127990238Y-34934095D01*
X127990238Y-34934095D02*
X128014047Y-34957904D01*
X128014047Y-34957904D02*
X128037857Y-35005523D01*
X128037857Y-35005523D02*
X128037857Y-35124571D01*
X128037857Y-35124571D02*
X128014047Y-35172190D01*
X128014047Y-35172190D02*
X127990238Y-35196000D01*
X127990238Y-35196000D02*
X127942619Y-35219809D01*
X127942619Y-35219809D02*
X127799762Y-35219809D01*
X127799762Y-35219809D02*
X127752143Y-35196000D01*
X127752143Y-35196000D02*
X127728333Y-35172190D01*
X168561666Y-87172190D02*
X168537857Y-87196000D01*
X168537857Y-87196000D02*
X168466428Y-87219809D01*
X168466428Y-87219809D02*
X168418809Y-87219809D01*
X168418809Y-87219809D02*
X168347381Y-87196000D01*
X168347381Y-87196000D02*
X168299762Y-87148380D01*
X168299762Y-87148380D02*
X168275952Y-87100761D01*
X168275952Y-87100761D02*
X168252143Y-87005523D01*
X168252143Y-87005523D02*
X168252143Y-86934095D01*
X168252143Y-86934095D02*
X168275952Y-86838857D01*
X168275952Y-86838857D02*
X168299762Y-86791238D01*
X168299762Y-86791238D02*
X168347381Y-86743619D01*
X168347381Y-86743619D02*
X168418809Y-86719809D01*
X168418809Y-86719809D02*
X168466428Y-86719809D01*
X168466428Y-86719809D02*
X168537857Y-86743619D01*
X168537857Y-86743619D02*
X168561666Y-86767428D01*
X168728333Y-86719809D02*
X169037857Y-86719809D01*
X169037857Y-86719809D02*
X168871190Y-86910285D01*
X168871190Y-86910285D02*
X168942619Y-86910285D01*
X168942619Y-86910285D02*
X168990238Y-86934095D01*
X168990238Y-86934095D02*
X169014047Y-86957904D01*
X169014047Y-86957904D02*
X169037857Y-87005523D01*
X169037857Y-87005523D02*
X169037857Y-87124571D01*
X169037857Y-87124571D02*
X169014047Y-87172190D01*
X169014047Y-87172190D02*
X168990238Y-87196000D01*
X168990238Y-87196000D02*
X168942619Y-87219809D01*
X168942619Y-87219809D02*
X168799762Y-87219809D01*
X168799762Y-87219809D02*
X168752143Y-87196000D01*
X168752143Y-87196000D02*
X168728333Y-87172190D01*
X158096666Y-78159809D02*
X157930000Y-77921714D01*
X157810952Y-78159809D02*
X157810952Y-77659809D01*
X157810952Y-77659809D02*
X158001428Y-77659809D01*
X158001428Y-77659809D02*
X158049047Y-77683619D01*
X158049047Y-77683619D02*
X158072857Y-77707428D01*
X158072857Y-77707428D02*
X158096666Y-77755047D01*
X158096666Y-77755047D02*
X158096666Y-77826476D01*
X158096666Y-77826476D02*
X158072857Y-77874095D01*
X158072857Y-77874095D02*
X158049047Y-77897904D01*
X158049047Y-77897904D02*
X158001428Y-77921714D01*
X158001428Y-77921714D02*
X157810952Y-77921714D01*
X158263333Y-77659809D02*
X158572857Y-77659809D01*
X158572857Y-77659809D02*
X158406190Y-77850285D01*
X158406190Y-77850285D02*
X158477619Y-77850285D01*
X158477619Y-77850285D02*
X158525238Y-77874095D01*
X158525238Y-77874095D02*
X158549047Y-77897904D01*
X158549047Y-77897904D02*
X158572857Y-77945523D01*
X158572857Y-77945523D02*
X158572857Y-78064571D01*
X158572857Y-78064571D02*
X158549047Y-78112190D01*
X158549047Y-78112190D02*
X158525238Y-78136000D01*
X158525238Y-78136000D02*
X158477619Y-78159809D01*
X158477619Y-78159809D02*
X158334762Y-78159809D01*
X158334762Y-78159809D02*
X158287143Y-78136000D01*
X158287143Y-78136000D02*
X158263333Y-78112190D01*
X116823452Y-76429809D02*
X116823452Y-75929809D01*
X116823452Y-75929809D02*
X116942500Y-75929809D01*
X116942500Y-75929809D02*
X117013928Y-75953619D01*
X117013928Y-75953619D02*
X117061547Y-76001238D01*
X117061547Y-76001238D02*
X117085357Y-76048857D01*
X117085357Y-76048857D02*
X117109166Y-76144095D01*
X117109166Y-76144095D02*
X117109166Y-76215523D01*
X117109166Y-76215523D02*
X117085357Y-76310761D01*
X117085357Y-76310761D02*
X117061547Y-76358380D01*
X117061547Y-76358380D02*
X117013928Y-76406000D01*
X117013928Y-76406000D02*
X116942500Y-76429809D01*
X116942500Y-76429809D02*
X116823452Y-76429809D01*
X117299643Y-75977428D02*
X117323452Y-75953619D01*
X117323452Y-75953619D02*
X117371071Y-75929809D01*
X117371071Y-75929809D02*
X117490119Y-75929809D01*
X117490119Y-75929809D02*
X117537738Y-75953619D01*
X117537738Y-75953619D02*
X117561547Y-75977428D01*
X117561547Y-75977428D02*
X117585357Y-76025047D01*
X117585357Y-76025047D02*
X117585357Y-76072666D01*
X117585357Y-76072666D02*
X117561547Y-76144095D01*
X117561547Y-76144095D02*
X117275833Y-76429809D01*
X117275833Y-76429809D02*
X117585357Y-76429809D01*
X159051666Y-32649809D02*
X158885000Y-32411714D01*
X158765952Y-32649809D02*
X158765952Y-32149809D01*
X158765952Y-32149809D02*
X158956428Y-32149809D01*
X158956428Y-32149809D02*
X159004047Y-32173619D01*
X159004047Y-32173619D02*
X159027857Y-32197428D01*
X159027857Y-32197428D02*
X159051666Y-32245047D01*
X159051666Y-32245047D02*
X159051666Y-32316476D01*
X159051666Y-32316476D02*
X159027857Y-32364095D01*
X159027857Y-32364095D02*
X159004047Y-32387904D01*
X159004047Y-32387904D02*
X158956428Y-32411714D01*
X158956428Y-32411714D02*
X158765952Y-32411714D01*
X159527857Y-32649809D02*
X159242143Y-32649809D01*
X159385000Y-32649809D02*
X159385000Y-32149809D01*
X159385000Y-32149809D02*
X159337381Y-32221238D01*
X159337381Y-32221238D02*
X159289762Y-32268857D01*
X159289762Y-32268857D02*
X159242143Y-32292666D01*
X159913452Y-77439809D02*
X159913452Y-77844571D01*
X159913452Y-77844571D02*
X159937262Y-77892190D01*
X159937262Y-77892190D02*
X159961071Y-77916000D01*
X159961071Y-77916000D02*
X160008690Y-77939809D01*
X160008690Y-77939809D02*
X160103928Y-77939809D01*
X160103928Y-77939809D02*
X160151547Y-77916000D01*
X160151547Y-77916000D02*
X160175357Y-77892190D01*
X160175357Y-77892190D02*
X160199166Y-77844571D01*
X160199166Y-77844571D02*
X160199166Y-77439809D01*
X160699167Y-77939809D02*
X160413453Y-77939809D01*
X160556310Y-77939809D02*
X160556310Y-77439809D01*
X160556310Y-77439809D02*
X160508691Y-77511238D01*
X160508691Y-77511238D02*
X160461072Y-77558857D01*
X160461072Y-77558857D02*
X160413453Y-77582666D01*
X119151547Y-51199809D02*
X118913452Y-51199809D01*
X118913452Y-51199809D02*
X118913452Y-50699809D01*
X119580119Y-51199809D02*
X119294405Y-51199809D01*
X119437262Y-51199809D02*
X119437262Y-50699809D01*
X119437262Y-50699809D02*
X119389643Y-50771238D01*
X119389643Y-50771238D02*
X119342024Y-50818857D01*
X119342024Y-50818857D02*
X119294405Y-50842666D01*
X153078333Y-52424809D02*
X153078333Y-52781952D01*
X153078333Y-52781952D02*
X153054524Y-52853380D01*
X153054524Y-52853380D02*
X153006905Y-52901000D01*
X153006905Y-52901000D02*
X152935476Y-52924809D01*
X152935476Y-52924809D02*
X152887857Y-52924809D01*
X153578333Y-52924809D02*
X153292619Y-52924809D01*
X153435476Y-52924809D02*
X153435476Y-52424809D01*
X153435476Y-52424809D02*
X153387857Y-52496238D01*
X153387857Y-52496238D02*
X153340238Y-52543857D01*
X153340238Y-52543857D02*
X153292619Y-52567666D01*
X127716666Y-95162190D02*
X127692857Y-95186000D01*
X127692857Y-95186000D02*
X127621428Y-95209809D01*
X127621428Y-95209809D02*
X127573809Y-95209809D01*
X127573809Y-95209809D02*
X127502381Y-95186000D01*
X127502381Y-95186000D02*
X127454762Y-95138380D01*
X127454762Y-95138380D02*
X127430952Y-95090761D01*
X127430952Y-95090761D02*
X127407143Y-94995523D01*
X127407143Y-94995523D02*
X127407143Y-94924095D01*
X127407143Y-94924095D02*
X127430952Y-94828857D01*
X127430952Y-94828857D02*
X127454762Y-94781238D01*
X127454762Y-94781238D02*
X127502381Y-94733619D01*
X127502381Y-94733619D02*
X127573809Y-94709809D01*
X127573809Y-94709809D02*
X127621428Y-94709809D01*
X127621428Y-94709809D02*
X127692857Y-94733619D01*
X127692857Y-94733619D02*
X127716666Y-94757428D01*
X128192857Y-95209809D02*
X127907143Y-95209809D01*
X128050000Y-95209809D02*
X128050000Y-94709809D01*
X128050000Y-94709809D02*
X128002381Y-94781238D01*
X128002381Y-94781238D02*
X127954762Y-94828857D01*
X127954762Y-94828857D02*
X127907143Y-94852666D01*
X127561666Y-34499809D02*
X127395000Y-34261714D01*
X127275952Y-34499809D02*
X127275952Y-33999809D01*
X127275952Y-33999809D02*
X127466428Y-33999809D01*
X127466428Y-33999809D02*
X127514047Y-34023619D01*
X127514047Y-34023619D02*
X127537857Y-34047428D01*
X127537857Y-34047428D02*
X127561666Y-34095047D01*
X127561666Y-34095047D02*
X127561666Y-34166476D01*
X127561666Y-34166476D02*
X127537857Y-34214095D01*
X127537857Y-34214095D02*
X127514047Y-34237904D01*
X127514047Y-34237904D02*
X127466428Y-34261714D01*
X127466428Y-34261714D02*
X127275952Y-34261714D01*
X127990238Y-34166476D02*
X127990238Y-34499809D01*
X127871190Y-33976000D02*
X127752143Y-34333142D01*
X127752143Y-34333142D02*
X128061666Y-34333142D01*
X159913452Y-25439809D02*
X159913452Y-25844571D01*
X159913452Y-25844571D02*
X159937262Y-25892190D01*
X159937262Y-25892190D02*
X159961071Y-25916000D01*
X159961071Y-25916000D02*
X160008690Y-25939809D01*
X160008690Y-25939809D02*
X160103928Y-25939809D01*
X160103928Y-25939809D02*
X160151547Y-25916000D01*
X160151547Y-25916000D02*
X160175357Y-25892190D01*
X160175357Y-25892190D02*
X160199166Y-25844571D01*
X160199166Y-25844571D02*
X160199166Y-25439809D01*
X160699167Y-25939809D02*
X160413453Y-25939809D01*
X160556310Y-25939809D02*
X160556310Y-25439809D01*
X160556310Y-25439809D02*
X160508691Y-25511238D01*
X160508691Y-25511238D02*
X160461072Y-25558857D01*
X160461072Y-25558857D02*
X160413453Y-25582666D01*
X137381666Y-74597190D02*
X137357857Y-74621000D01*
X137357857Y-74621000D02*
X137286428Y-74644809D01*
X137286428Y-74644809D02*
X137238809Y-74644809D01*
X137238809Y-74644809D02*
X137167381Y-74621000D01*
X137167381Y-74621000D02*
X137119762Y-74573380D01*
X137119762Y-74573380D02*
X137095952Y-74525761D01*
X137095952Y-74525761D02*
X137072143Y-74430523D01*
X137072143Y-74430523D02*
X137072143Y-74359095D01*
X137072143Y-74359095D02*
X137095952Y-74263857D01*
X137095952Y-74263857D02*
X137119762Y-74216238D01*
X137119762Y-74216238D02*
X137167381Y-74168619D01*
X137167381Y-74168619D02*
X137238809Y-74144809D01*
X137238809Y-74144809D02*
X137286428Y-74144809D01*
X137286428Y-74144809D02*
X137357857Y-74168619D01*
X137357857Y-74168619D02*
X137381666Y-74192428D01*
X137834047Y-74144809D02*
X137595952Y-74144809D01*
X137595952Y-74144809D02*
X137572143Y-74382904D01*
X137572143Y-74382904D02*
X137595952Y-74359095D01*
X137595952Y-74359095D02*
X137643571Y-74335285D01*
X137643571Y-74335285D02*
X137762619Y-74335285D01*
X137762619Y-74335285D02*
X137810238Y-74359095D01*
X137810238Y-74359095D02*
X137834047Y-74382904D01*
X137834047Y-74382904D02*
X137857857Y-74430523D01*
X137857857Y-74430523D02*
X137857857Y-74549571D01*
X137857857Y-74549571D02*
X137834047Y-74597190D01*
X137834047Y-74597190D02*
X137810238Y-74621000D01*
X137810238Y-74621000D02*
X137762619Y-74644809D01*
X137762619Y-74644809D02*
X137643571Y-74644809D01*
X137643571Y-74644809D02*
X137595952Y-74621000D01*
X137595952Y-74621000D02*
X137572143Y-74597190D01*
X168716666Y-69162190D02*
X168692857Y-69186000D01*
X168692857Y-69186000D02*
X168621428Y-69209809D01*
X168621428Y-69209809D02*
X168573809Y-69209809D01*
X168573809Y-69209809D02*
X168502381Y-69186000D01*
X168502381Y-69186000D02*
X168454762Y-69138380D01*
X168454762Y-69138380D02*
X168430952Y-69090761D01*
X168430952Y-69090761D02*
X168407143Y-68995523D01*
X168407143Y-68995523D02*
X168407143Y-68924095D01*
X168407143Y-68924095D02*
X168430952Y-68828857D01*
X168430952Y-68828857D02*
X168454762Y-68781238D01*
X168454762Y-68781238D02*
X168502381Y-68733619D01*
X168502381Y-68733619D02*
X168573809Y-68709809D01*
X168573809Y-68709809D02*
X168621428Y-68709809D01*
X168621428Y-68709809D02*
X168692857Y-68733619D01*
X168692857Y-68733619D02*
X168716666Y-68757428D01*
X169192857Y-69209809D02*
X168907143Y-69209809D01*
X169050000Y-69209809D02*
X169050000Y-68709809D01*
X169050000Y-68709809D02*
X169002381Y-68781238D01*
X169002381Y-68781238D02*
X168954762Y-68828857D01*
X168954762Y-68828857D02*
X168907143Y-68852666D01*
X134181666Y-80847190D02*
X134157857Y-80871000D01*
X134157857Y-80871000D02*
X134086428Y-80894809D01*
X134086428Y-80894809D02*
X134038809Y-80894809D01*
X134038809Y-80894809D02*
X133967381Y-80871000D01*
X133967381Y-80871000D02*
X133919762Y-80823380D01*
X133919762Y-80823380D02*
X133895952Y-80775761D01*
X133895952Y-80775761D02*
X133872143Y-80680523D01*
X133872143Y-80680523D02*
X133872143Y-80609095D01*
X133872143Y-80609095D02*
X133895952Y-80513857D01*
X133895952Y-80513857D02*
X133919762Y-80466238D01*
X133919762Y-80466238D02*
X133967381Y-80418619D01*
X133967381Y-80418619D02*
X134038809Y-80394809D01*
X134038809Y-80394809D02*
X134086428Y-80394809D01*
X134086428Y-80394809D02*
X134157857Y-80418619D01*
X134157857Y-80418619D02*
X134181666Y-80442428D01*
X134610238Y-80394809D02*
X134515000Y-80394809D01*
X134515000Y-80394809D02*
X134467381Y-80418619D01*
X134467381Y-80418619D02*
X134443571Y-80442428D01*
X134443571Y-80442428D02*
X134395952Y-80513857D01*
X134395952Y-80513857D02*
X134372143Y-80609095D01*
X134372143Y-80609095D02*
X134372143Y-80799571D01*
X134372143Y-80799571D02*
X134395952Y-80847190D01*
X134395952Y-80847190D02*
X134419762Y-80871000D01*
X134419762Y-80871000D02*
X134467381Y-80894809D01*
X134467381Y-80894809D02*
X134562619Y-80894809D01*
X134562619Y-80894809D02*
X134610238Y-80871000D01*
X134610238Y-80871000D02*
X134634047Y-80847190D01*
X134634047Y-80847190D02*
X134657857Y-80799571D01*
X134657857Y-80799571D02*
X134657857Y-80680523D01*
X134657857Y-80680523D02*
X134634047Y-80632904D01*
X134634047Y-80632904D02*
X134610238Y-80609095D01*
X134610238Y-80609095D02*
X134562619Y-80585285D01*
X134562619Y-80585285D02*
X134467381Y-80585285D01*
X134467381Y-80585285D02*
X134419762Y-80609095D01*
X134419762Y-80609095D02*
X134395952Y-80632904D01*
X134395952Y-80632904D02*
X134372143Y-80680523D01*
X167450952Y-69209809D02*
X167450952Y-68709809D01*
X167450952Y-68709809D02*
X167570000Y-68709809D01*
X167570000Y-68709809D02*
X167641428Y-68733619D01*
X167641428Y-68733619D02*
X167689047Y-68781238D01*
X167689047Y-68781238D02*
X167712857Y-68828857D01*
X167712857Y-68828857D02*
X167736666Y-68924095D01*
X167736666Y-68924095D02*
X167736666Y-68995523D01*
X167736666Y-68995523D02*
X167712857Y-69090761D01*
X167712857Y-69090761D02*
X167689047Y-69138380D01*
X167689047Y-69138380D02*
X167641428Y-69186000D01*
X167641428Y-69186000D02*
X167570000Y-69209809D01*
X167570000Y-69209809D02*
X167450952Y-69209809D01*
X168212857Y-69209809D02*
X167927143Y-69209809D01*
X168070000Y-69209809D02*
X168070000Y-68709809D01*
X168070000Y-68709809D02*
X168022381Y-68781238D01*
X168022381Y-68781238D02*
X167974762Y-68828857D01*
X167974762Y-68828857D02*
X167927143Y-68852666D01*
X126450952Y-95209809D02*
X126450952Y-94709809D01*
X126450952Y-94709809D02*
X126570000Y-94709809D01*
X126570000Y-94709809D02*
X126641428Y-94733619D01*
X126641428Y-94733619D02*
X126689047Y-94781238D01*
X126689047Y-94781238D02*
X126712857Y-94828857D01*
X126712857Y-94828857D02*
X126736666Y-94924095D01*
X126736666Y-94924095D02*
X126736666Y-94995523D01*
X126736666Y-94995523D02*
X126712857Y-95090761D01*
X126712857Y-95090761D02*
X126689047Y-95138380D01*
X126689047Y-95138380D02*
X126641428Y-95186000D01*
X126641428Y-95186000D02*
X126570000Y-95209809D01*
X126570000Y-95209809D02*
X126450952Y-95209809D01*
X127212857Y-95209809D02*
X126927143Y-95209809D01*
X127070000Y-95209809D02*
X127070000Y-94709809D01*
X127070000Y-94709809D02*
X127022381Y-94781238D01*
X127022381Y-94781238D02*
X126974762Y-94828857D01*
X126974762Y-94828857D02*
X126927143Y-94852666D01*
X135421666Y-29129809D02*
X135255000Y-28891714D01*
X135135952Y-29129809D02*
X135135952Y-28629809D01*
X135135952Y-28629809D02*
X135326428Y-28629809D01*
X135326428Y-28629809D02*
X135374047Y-28653619D01*
X135374047Y-28653619D02*
X135397857Y-28677428D01*
X135397857Y-28677428D02*
X135421666Y-28725047D01*
X135421666Y-28725047D02*
X135421666Y-28796476D01*
X135421666Y-28796476D02*
X135397857Y-28844095D01*
X135397857Y-28844095D02*
X135374047Y-28867904D01*
X135374047Y-28867904D02*
X135326428Y-28891714D01*
X135326428Y-28891714D02*
X135135952Y-28891714D01*
X135850238Y-28629809D02*
X135755000Y-28629809D01*
X135755000Y-28629809D02*
X135707381Y-28653619D01*
X135707381Y-28653619D02*
X135683571Y-28677428D01*
X135683571Y-28677428D02*
X135635952Y-28748857D01*
X135635952Y-28748857D02*
X135612143Y-28844095D01*
X135612143Y-28844095D02*
X135612143Y-29034571D01*
X135612143Y-29034571D02*
X135635952Y-29082190D01*
X135635952Y-29082190D02*
X135659762Y-29106000D01*
X135659762Y-29106000D02*
X135707381Y-29129809D01*
X135707381Y-29129809D02*
X135802619Y-29129809D01*
X135802619Y-29129809D02*
X135850238Y-29106000D01*
X135850238Y-29106000D02*
X135874047Y-29082190D01*
X135874047Y-29082190D02*
X135897857Y-29034571D01*
X135897857Y-29034571D02*
X135897857Y-28915523D01*
X135897857Y-28915523D02*
X135874047Y-28867904D01*
X135874047Y-28867904D02*
X135850238Y-28844095D01*
X135850238Y-28844095D02*
X135802619Y-28820285D01*
X135802619Y-28820285D02*
X135707381Y-28820285D01*
X135707381Y-28820285D02*
X135659762Y-28844095D01*
X135659762Y-28844095D02*
X135635952Y-28867904D01*
X135635952Y-28867904D02*
X135612143Y-28915523D01*
X168716666Y-95162190D02*
X168692857Y-95186000D01*
X168692857Y-95186000D02*
X168621428Y-95209809D01*
X168621428Y-95209809D02*
X168573809Y-95209809D01*
X168573809Y-95209809D02*
X168502381Y-95186000D01*
X168502381Y-95186000D02*
X168454762Y-95138380D01*
X168454762Y-95138380D02*
X168430952Y-95090761D01*
X168430952Y-95090761D02*
X168407143Y-94995523D01*
X168407143Y-94995523D02*
X168407143Y-94924095D01*
X168407143Y-94924095D02*
X168430952Y-94828857D01*
X168430952Y-94828857D02*
X168454762Y-94781238D01*
X168454762Y-94781238D02*
X168502381Y-94733619D01*
X168502381Y-94733619D02*
X168573809Y-94709809D01*
X168573809Y-94709809D02*
X168621428Y-94709809D01*
X168621428Y-94709809D02*
X168692857Y-94733619D01*
X168692857Y-94733619D02*
X168716666Y-94757428D01*
X169192857Y-95209809D02*
X168907143Y-95209809D01*
X169050000Y-95209809D02*
X169050000Y-94709809D01*
X169050000Y-94709809D02*
X169002381Y-94781238D01*
X169002381Y-94781238D02*
X168954762Y-94828857D01*
X168954762Y-94828857D02*
X168907143Y-94852666D01*
X127561666Y-60499809D02*
X127395000Y-60261714D01*
X127275952Y-60499809D02*
X127275952Y-59999809D01*
X127275952Y-59999809D02*
X127466428Y-59999809D01*
X127466428Y-59999809D02*
X127514047Y-60023619D01*
X127514047Y-60023619D02*
X127537857Y-60047428D01*
X127537857Y-60047428D02*
X127561666Y-60095047D01*
X127561666Y-60095047D02*
X127561666Y-60166476D01*
X127561666Y-60166476D02*
X127537857Y-60214095D01*
X127537857Y-60214095D02*
X127514047Y-60237904D01*
X127514047Y-60237904D02*
X127466428Y-60261714D01*
X127466428Y-60261714D02*
X127275952Y-60261714D01*
X127990238Y-60166476D02*
X127990238Y-60499809D01*
X127871190Y-59976000D02*
X127752143Y-60333142D01*
X127752143Y-60333142D02*
X128061666Y-60333142D01*
X142523333Y-26024809D02*
X142523333Y-26381952D01*
X142523333Y-26381952D02*
X142499524Y-26453380D01*
X142499524Y-26453380D02*
X142451905Y-26501000D01*
X142451905Y-26501000D02*
X142380476Y-26524809D01*
X142380476Y-26524809D02*
X142332857Y-26524809D01*
X142737619Y-26072428D02*
X142761428Y-26048619D01*
X142761428Y-26048619D02*
X142809047Y-26024809D01*
X142809047Y-26024809D02*
X142928095Y-26024809D01*
X142928095Y-26024809D02*
X142975714Y-26048619D01*
X142975714Y-26048619D02*
X142999523Y-26072428D01*
X142999523Y-26072428D02*
X143023333Y-26120047D01*
X143023333Y-26120047D02*
X143023333Y-26167666D01*
X143023333Y-26167666D02*
X142999523Y-26239095D01*
X142999523Y-26239095D02*
X142713809Y-26524809D01*
X142713809Y-26524809D02*
X143023333Y-26524809D01*
X118051666Y-59362190D02*
X118027857Y-59386000D01*
X118027857Y-59386000D02*
X117956428Y-59409809D01*
X117956428Y-59409809D02*
X117908809Y-59409809D01*
X117908809Y-59409809D02*
X117837381Y-59386000D01*
X117837381Y-59386000D02*
X117789762Y-59338380D01*
X117789762Y-59338380D02*
X117765952Y-59290761D01*
X117765952Y-59290761D02*
X117742143Y-59195523D01*
X117742143Y-59195523D02*
X117742143Y-59124095D01*
X117742143Y-59124095D02*
X117765952Y-59028857D01*
X117765952Y-59028857D02*
X117789762Y-58981238D01*
X117789762Y-58981238D02*
X117837381Y-58933619D01*
X117837381Y-58933619D02*
X117908809Y-58909809D01*
X117908809Y-58909809D02*
X117956428Y-58909809D01*
X117956428Y-58909809D02*
X118027857Y-58933619D01*
X118027857Y-58933619D02*
X118051666Y-58957428D01*
X118480238Y-59076476D02*
X118480238Y-59409809D01*
X118361190Y-58886000D02*
X118242143Y-59243142D01*
X118242143Y-59243142D02*
X118551666Y-59243142D01*
X135421666Y-55129809D02*
X135255000Y-54891714D01*
X135135952Y-55129809D02*
X135135952Y-54629809D01*
X135135952Y-54629809D02*
X135326428Y-54629809D01*
X135326428Y-54629809D02*
X135374047Y-54653619D01*
X135374047Y-54653619D02*
X135397857Y-54677428D01*
X135397857Y-54677428D02*
X135421666Y-54725047D01*
X135421666Y-54725047D02*
X135421666Y-54796476D01*
X135421666Y-54796476D02*
X135397857Y-54844095D01*
X135397857Y-54844095D02*
X135374047Y-54867904D01*
X135374047Y-54867904D02*
X135326428Y-54891714D01*
X135326428Y-54891714D02*
X135135952Y-54891714D01*
X135850238Y-54629809D02*
X135755000Y-54629809D01*
X135755000Y-54629809D02*
X135707381Y-54653619D01*
X135707381Y-54653619D02*
X135683571Y-54677428D01*
X135683571Y-54677428D02*
X135635952Y-54748857D01*
X135635952Y-54748857D02*
X135612143Y-54844095D01*
X135612143Y-54844095D02*
X135612143Y-55034571D01*
X135612143Y-55034571D02*
X135635952Y-55082190D01*
X135635952Y-55082190D02*
X135659762Y-55106000D01*
X135659762Y-55106000D02*
X135707381Y-55129809D01*
X135707381Y-55129809D02*
X135802619Y-55129809D01*
X135802619Y-55129809D02*
X135850238Y-55106000D01*
X135850238Y-55106000D02*
X135874047Y-55082190D01*
X135874047Y-55082190D02*
X135897857Y-55034571D01*
X135897857Y-55034571D02*
X135897857Y-54915523D01*
X135897857Y-54915523D02*
X135874047Y-54867904D01*
X135874047Y-54867904D02*
X135850238Y-54844095D01*
X135850238Y-54844095D02*
X135802619Y-54820285D01*
X135802619Y-54820285D02*
X135707381Y-54820285D01*
X135707381Y-54820285D02*
X135659762Y-54844095D01*
X135659762Y-54844095D02*
X135635952Y-54867904D01*
X135635952Y-54867904D02*
X135612143Y-54915523D01*
X118913452Y-76494809D02*
X118913452Y-75994809D01*
X118913452Y-75994809D02*
X119032500Y-75994809D01*
X119032500Y-75994809D02*
X119103928Y-76018619D01*
X119103928Y-76018619D02*
X119151547Y-76066238D01*
X119151547Y-76066238D02*
X119175357Y-76113857D01*
X119175357Y-76113857D02*
X119199166Y-76209095D01*
X119199166Y-76209095D02*
X119199166Y-76280523D01*
X119199166Y-76280523D02*
X119175357Y-76375761D01*
X119175357Y-76375761D02*
X119151547Y-76423380D01*
X119151547Y-76423380D02*
X119103928Y-76471000D01*
X119103928Y-76471000D02*
X119032500Y-76494809D01*
X119032500Y-76494809D02*
X118913452Y-76494809D01*
X119365833Y-75994809D02*
X119675357Y-75994809D01*
X119675357Y-75994809D02*
X119508690Y-76185285D01*
X119508690Y-76185285D02*
X119580119Y-76185285D01*
X119580119Y-76185285D02*
X119627738Y-76209095D01*
X119627738Y-76209095D02*
X119651547Y-76232904D01*
X119651547Y-76232904D02*
X119675357Y-76280523D01*
X119675357Y-76280523D02*
X119675357Y-76399571D01*
X119675357Y-76399571D02*
X119651547Y-76447190D01*
X119651547Y-76447190D02*
X119627738Y-76471000D01*
X119627738Y-76471000D02*
X119580119Y-76494809D01*
X119580119Y-76494809D02*
X119437262Y-76494809D01*
X119437262Y-76494809D02*
X119389643Y-76471000D01*
X119389643Y-76471000D02*
X119365833Y-76447190D01*
X118913452Y-51439809D02*
X118913452Y-51844571D01*
X118913452Y-51844571D02*
X118937262Y-51892190D01*
X118937262Y-51892190D02*
X118961071Y-51916000D01*
X118961071Y-51916000D02*
X119008690Y-51939809D01*
X119008690Y-51939809D02*
X119103928Y-51939809D01*
X119103928Y-51939809D02*
X119151547Y-51916000D01*
X119151547Y-51916000D02*
X119175357Y-51892190D01*
X119175357Y-51892190D02*
X119199166Y-51844571D01*
X119199166Y-51844571D02*
X119199166Y-51439809D01*
X119699167Y-51939809D02*
X119413453Y-51939809D01*
X119556310Y-51939809D02*
X119556310Y-51439809D01*
X119556310Y-51439809D02*
X119508691Y-51511238D01*
X119508691Y-51511238D02*
X119461072Y-51558857D01*
X119461072Y-51558857D02*
X119413453Y-51582666D01*
X153078333Y-78424809D02*
X153078333Y-78781952D01*
X153078333Y-78781952D02*
X153054524Y-78853380D01*
X153054524Y-78853380D02*
X153006905Y-78901000D01*
X153006905Y-78901000D02*
X152935476Y-78924809D01*
X152935476Y-78924809D02*
X152887857Y-78924809D01*
X153578333Y-78924809D02*
X153292619Y-78924809D01*
X153435476Y-78924809D02*
X153435476Y-78424809D01*
X153435476Y-78424809D02*
X153387857Y-78496238D01*
X153387857Y-78496238D02*
X153340238Y-78543857D01*
X153340238Y-78543857D02*
X153292619Y-78567666D01*
X174091666Y-65087190D02*
X174067857Y-65111000D01*
X174067857Y-65111000D02*
X173996428Y-65134809D01*
X173996428Y-65134809D02*
X173948809Y-65134809D01*
X173948809Y-65134809D02*
X173877381Y-65111000D01*
X173877381Y-65111000D02*
X173829762Y-65063380D01*
X173829762Y-65063380D02*
X173805952Y-65015761D01*
X173805952Y-65015761D02*
X173782143Y-64920523D01*
X173782143Y-64920523D02*
X173782143Y-64849095D01*
X173782143Y-64849095D02*
X173805952Y-64753857D01*
X173805952Y-64753857D02*
X173829762Y-64706238D01*
X173829762Y-64706238D02*
X173877381Y-64658619D01*
X173877381Y-64658619D02*
X173948809Y-64634809D01*
X173948809Y-64634809D02*
X173996428Y-64634809D01*
X173996428Y-64634809D02*
X174067857Y-64658619D01*
X174067857Y-64658619D02*
X174091666Y-64682428D01*
X174282143Y-64682428D02*
X174305952Y-64658619D01*
X174305952Y-64658619D02*
X174353571Y-64634809D01*
X174353571Y-64634809D02*
X174472619Y-64634809D01*
X174472619Y-64634809D02*
X174520238Y-64658619D01*
X174520238Y-64658619D02*
X174544047Y-64682428D01*
X174544047Y-64682428D02*
X174567857Y-64730047D01*
X174567857Y-64730047D02*
X174567857Y-64777666D01*
X174567857Y-64777666D02*
X174544047Y-64849095D01*
X174544047Y-64849095D02*
X174258333Y-65134809D01*
X174258333Y-65134809D02*
X174567857Y-65134809D01*
X159051666Y-85362190D02*
X159027857Y-85386000D01*
X159027857Y-85386000D02*
X158956428Y-85409809D01*
X158956428Y-85409809D02*
X158908809Y-85409809D01*
X158908809Y-85409809D02*
X158837381Y-85386000D01*
X158837381Y-85386000D02*
X158789762Y-85338380D01*
X158789762Y-85338380D02*
X158765952Y-85290761D01*
X158765952Y-85290761D02*
X158742143Y-85195523D01*
X158742143Y-85195523D02*
X158742143Y-85124095D01*
X158742143Y-85124095D02*
X158765952Y-85028857D01*
X158765952Y-85028857D02*
X158789762Y-84981238D01*
X158789762Y-84981238D02*
X158837381Y-84933619D01*
X158837381Y-84933619D02*
X158908809Y-84909809D01*
X158908809Y-84909809D02*
X158956428Y-84909809D01*
X158956428Y-84909809D02*
X159027857Y-84933619D01*
X159027857Y-84933619D02*
X159051666Y-84957428D01*
X159480238Y-85076476D02*
X159480238Y-85409809D01*
X159361190Y-84886000D02*
X159242143Y-85243142D01*
X159242143Y-85243142D02*
X159551666Y-85243142D01*
X118051666Y-85362190D02*
X118027857Y-85386000D01*
X118027857Y-85386000D02*
X117956428Y-85409809D01*
X117956428Y-85409809D02*
X117908809Y-85409809D01*
X117908809Y-85409809D02*
X117837381Y-85386000D01*
X117837381Y-85386000D02*
X117789762Y-85338380D01*
X117789762Y-85338380D02*
X117765952Y-85290761D01*
X117765952Y-85290761D02*
X117742143Y-85195523D01*
X117742143Y-85195523D02*
X117742143Y-85124095D01*
X117742143Y-85124095D02*
X117765952Y-85028857D01*
X117765952Y-85028857D02*
X117789762Y-84981238D01*
X117789762Y-84981238D02*
X117837381Y-84933619D01*
X117837381Y-84933619D02*
X117908809Y-84909809D01*
X117908809Y-84909809D02*
X117956428Y-84909809D01*
X117956428Y-84909809D02*
X118027857Y-84933619D01*
X118027857Y-84933619D02*
X118051666Y-84957428D01*
X118480238Y-85076476D02*
X118480238Y-85409809D01*
X118361190Y-84886000D02*
X118242143Y-85243142D01*
X118242143Y-85243142D02*
X118551666Y-85243142D01*
X126450952Y-69209809D02*
X126450952Y-68709809D01*
X126450952Y-68709809D02*
X126570000Y-68709809D01*
X126570000Y-68709809D02*
X126641428Y-68733619D01*
X126641428Y-68733619D02*
X126689047Y-68781238D01*
X126689047Y-68781238D02*
X126712857Y-68828857D01*
X126712857Y-68828857D02*
X126736666Y-68924095D01*
X126736666Y-68924095D02*
X126736666Y-68995523D01*
X126736666Y-68995523D02*
X126712857Y-69090761D01*
X126712857Y-69090761D02*
X126689047Y-69138380D01*
X126689047Y-69138380D02*
X126641428Y-69186000D01*
X126641428Y-69186000D02*
X126570000Y-69209809D01*
X126570000Y-69209809D02*
X126450952Y-69209809D01*
X127212857Y-69209809D02*
X126927143Y-69209809D01*
X127070000Y-69209809D02*
X127070000Y-68709809D01*
X127070000Y-68709809D02*
X127022381Y-68781238D01*
X127022381Y-68781238D02*
X126974762Y-68828857D01*
X126974762Y-68828857D02*
X126927143Y-68852666D01*
X134181666Y-28847190D02*
X134157857Y-28871000D01*
X134157857Y-28871000D02*
X134086428Y-28894809D01*
X134086428Y-28894809D02*
X134038809Y-28894809D01*
X134038809Y-28894809D02*
X133967381Y-28871000D01*
X133967381Y-28871000D02*
X133919762Y-28823380D01*
X133919762Y-28823380D02*
X133895952Y-28775761D01*
X133895952Y-28775761D02*
X133872143Y-28680523D01*
X133872143Y-28680523D02*
X133872143Y-28609095D01*
X133872143Y-28609095D02*
X133895952Y-28513857D01*
X133895952Y-28513857D02*
X133919762Y-28466238D01*
X133919762Y-28466238D02*
X133967381Y-28418619D01*
X133967381Y-28418619D02*
X134038809Y-28394809D01*
X134038809Y-28394809D02*
X134086428Y-28394809D01*
X134086428Y-28394809D02*
X134157857Y-28418619D01*
X134157857Y-28418619D02*
X134181666Y-28442428D01*
X134610238Y-28394809D02*
X134515000Y-28394809D01*
X134515000Y-28394809D02*
X134467381Y-28418619D01*
X134467381Y-28418619D02*
X134443571Y-28442428D01*
X134443571Y-28442428D02*
X134395952Y-28513857D01*
X134395952Y-28513857D02*
X134372143Y-28609095D01*
X134372143Y-28609095D02*
X134372143Y-28799571D01*
X134372143Y-28799571D02*
X134395952Y-28847190D01*
X134395952Y-28847190D02*
X134419762Y-28871000D01*
X134419762Y-28871000D02*
X134467381Y-28894809D01*
X134467381Y-28894809D02*
X134562619Y-28894809D01*
X134562619Y-28894809D02*
X134610238Y-28871000D01*
X134610238Y-28871000D02*
X134634047Y-28847190D01*
X134634047Y-28847190D02*
X134657857Y-28799571D01*
X134657857Y-28799571D02*
X134657857Y-28680523D01*
X134657857Y-28680523D02*
X134634047Y-28632904D01*
X134634047Y-28632904D02*
X134610238Y-28609095D01*
X134610238Y-28609095D02*
X134562619Y-28585285D01*
X134562619Y-28585285D02*
X134467381Y-28585285D01*
X134467381Y-28585285D02*
X134419762Y-28609095D01*
X134419762Y-28609095D02*
X134395952Y-28632904D01*
X134395952Y-28632904D02*
X134372143Y-28680523D01*
X168561666Y-35172190D02*
X168537857Y-35196000D01*
X168537857Y-35196000D02*
X168466428Y-35219809D01*
X168466428Y-35219809D02*
X168418809Y-35219809D01*
X168418809Y-35219809D02*
X168347381Y-35196000D01*
X168347381Y-35196000D02*
X168299762Y-35148380D01*
X168299762Y-35148380D02*
X168275952Y-35100761D01*
X168275952Y-35100761D02*
X168252143Y-35005523D01*
X168252143Y-35005523D02*
X168252143Y-34934095D01*
X168252143Y-34934095D02*
X168275952Y-34838857D01*
X168275952Y-34838857D02*
X168299762Y-34791238D01*
X168299762Y-34791238D02*
X168347381Y-34743619D01*
X168347381Y-34743619D02*
X168418809Y-34719809D01*
X168418809Y-34719809D02*
X168466428Y-34719809D01*
X168466428Y-34719809D02*
X168537857Y-34743619D01*
X168537857Y-34743619D02*
X168561666Y-34767428D01*
X168728333Y-34719809D02*
X169037857Y-34719809D01*
X169037857Y-34719809D02*
X168871190Y-34910285D01*
X168871190Y-34910285D02*
X168942619Y-34910285D01*
X168942619Y-34910285D02*
X168990238Y-34934095D01*
X168990238Y-34934095D02*
X169014047Y-34957904D01*
X169014047Y-34957904D02*
X169037857Y-35005523D01*
X169037857Y-35005523D02*
X169037857Y-35124571D01*
X169037857Y-35124571D02*
X169014047Y-35172190D01*
X169014047Y-35172190D02*
X168990238Y-35196000D01*
X168990238Y-35196000D02*
X168942619Y-35219809D01*
X168942619Y-35219809D02*
X168799762Y-35219809D01*
X168799762Y-35219809D02*
X168752143Y-35196000D01*
X168752143Y-35196000D02*
X168728333Y-35172190D01*
X157823452Y-24429809D02*
X157823452Y-23929809D01*
X157823452Y-23929809D02*
X157942500Y-23929809D01*
X157942500Y-23929809D02*
X158013928Y-23953619D01*
X158013928Y-23953619D02*
X158061547Y-24001238D01*
X158061547Y-24001238D02*
X158085357Y-24048857D01*
X158085357Y-24048857D02*
X158109166Y-24144095D01*
X158109166Y-24144095D02*
X158109166Y-24215523D01*
X158109166Y-24215523D02*
X158085357Y-24310761D01*
X158085357Y-24310761D02*
X158061547Y-24358380D01*
X158061547Y-24358380D02*
X158013928Y-24406000D01*
X158013928Y-24406000D02*
X157942500Y-24429809D01*
X157942500Y-24429809D02*
X157823452Y-24429809D01*
X158299643Y-23977428D02*
X158323452Y-23953619D01*
X158323452Y-23953619D02*
X158371071Y-23929809D01*
X158371071Y-23929809D02*
X158490119Y-23929809D01*
X158490119Y-23929809D02*
X158537738Y-23953619D01*
X158537738Y-23953619D02*
X158561547Y-23977428D01*
X158561547Y-23977428D02*
X158585357Y-24025047D01*
X158585357Y-24025047D02*
X158585357Y-24072666D01*
X158585357Y-24072666D02*
X158561547Y-24144095D01*
X158561547Y-24144095D02*
X158275833Y-24429809D01*
X158275833Y-24429809D02*
X158585357Y-24429809D01*
X176421666Y-55129809D02*
X176255000Y-54891714D01*
X176135952Y-55129809D02*
X176135952Y-54629809D01*
X176135952Y-54629809D02*
X176326428Y-54629809D01*
X176326428Y-54629809D02*
X176374047Y-54653619D01*
X176374047Y-54653619D02*
X176397857Y-54677428D01*
X176397857Y-54677428D02*
X176421666Y-54725047D01*
X176421666Y-54725047D02*
X176421666Y-54796476D01*
X176421666Y-54796476D02*
X176397857Y-54844095D01*
X176397857Y-54844095D02*
X176374047Y-54867904D01*
X176374047Y-54867904D02*
X176326428Y-54891714D01*
X176326428Y-54891714D02*
X176135952Y-54891714D01*
X176850238Y-54629809D02*
X176755000Y-54629809D01*
X176755000Y-54629809D02*
X176707381Y-54653619D01*
X176707381Y-54653619D02*
X176683571Y-54677428D01*
X176683571Y-54677428D02*
X176635952Y-54748857D01*
X176635952Y-54748857D02*
X176612143Y-54844095D01*
X176612143Y-54844095D02*
X176612143Y-55034571D01*
X176612143Y-55034571D02*
X176635952Y-55082190D01*
X176635952Y-55082190D02*
X176659762Y-55106000D01*
X176659762Y-55106000D02*
X176707381Y-55129809D01*
X176707381Y-55129809D02*
X176802619Y-55129809D01*
X176802619Y-55129809D02*
X176850238Y-55106000D01*
X176850238Y-55106000D02*
X176874047Y-55082190D01*
X176874047Y-55082190D02*
X176897857Y-55034571D01*
X176897857Y-55034571D02*
X176897857Y-54915523D01*
X176897857Y-54915523D02*
X176874047Y-54867904D01*
X176874047Y-54867904D02*
X176850238Y-54844095D01*
X176850238Y-54844095D02*
X176802619Y-54820285D01*
X176802619Y-54820285D02*
X176707381Y-54820285D01*
X176707381Y-54820285D02*
X176659762Y-54844095D01*
X176659762Y-54844095D02*
X176635952Y-54867904D01*
X176635952Y-54867904D02*
X176612143Y-54915523D01*
X158096666Y-52159809D02*
X157930000Y-51921714D01*
X157810952Y-52159809D02*
X157810952Y-51659809D01*
X157810952Y-51659809D02*
X158001428Y-51659809D01*
X158001428Y-51659809D02*
X158049047Y-51683619D01*
X158049047Y-51683619D02*
X158072857Y-51707428D01*
X158072857Y-51707428D02*
X158096666Y-51755047D01*
X158096666Y-51755047D02*
X158096666Y-51826476D01*
X158096666Y-51826476D02*
X158072857Y-51874095D01*
X158072857Y-51874095D02*
X158049047Y-51897904D01*
X158049047Y-51897904D02*
X158001428Y-51921714D01*
X158001428Y-51921714D02*
X157810952Y-51921714D01*
X158263333Y-51659809D02*
X158572857Y-51659809D01*
X158572857Y-51659809D02*
X158406190Y-51850285D01*
X158406190Y-51850285D02*
X158477619Y-51850285D01*
X158477619Y-51850285D02*
X158525238Y-51874095D01*
X158525238Y-51874095D02*
X158549047Y-51897904D01*
X158549047Y-51897904D02*
X158572857Y-51945523D01*
X158572857Y-51945523D02*
X158572857Y-52064571D01*
X158572857Y-52064571D02*
X158549047Y-52112190D01*
X158549047Y-52112190D02*
X158525238Y-52136000D01*
X158525238Y-52136000D02*
X158477619Y-52159809D01*
X158477619Y-52159809D02*
X158334762Y-52159809D01*
X158334762Y-52159809D02*
X158287143Y-52136000D01*
X158287143Y-52136000D02*
X158263333Y-52112190D01*
X178381666Y-74597190D02*
X178357857Y-74621000D01*
X178357857Y-74621000D02*
X178286428Y-74644809D01*
X178286428Y-74644809D02*
X178238809Y-74644809D01*
X178238809Y-74644809D02*
X178167381Y-74621000D01*
X178167381Y-74621000D02*
X178119762Y-74573380D01*
X178119762Y-74573380D02*
X178095952Y-74525761D01*
X178095952Y-74525761D02*
X178072143Y-74430523D01*
X178072143Y-74430523D02*
X178072143Y-74359095D01*
X178072143Y-74359095D02*
X178095952Y-74263857D01*
X178095952Y-74263857D02*
X178119762Y-74216238D01*
X178119762Y-74216238D02*
X178167381Y-74168619D01*
X178167381Y-74168619D02*
X178238809Y-74144809D01*
X178238809Y-74144809D02*
X178286428Y-74144809D01*
X178286428Y-74144809D02*
X178357857Y-74168619D01*
X178357857Y-74168619D02*
X178381666Y-74192428D01*
X178834047Y-74144809D02*
X178595952Y-74144809D01*
X178595952Y-74144809D02*
X178572143Y-74382904D01*
X178572143Y-74382904D02*
X178595952Y-74359095D01*
X178595952Y-74359095D02*
X178643571Y-74335285D01*
X178643571Y-74335285D02*
X178762619Y-74335285D01*
X178762619Y-74335285D02*
X178810238Y-74359095D01*
X178810238Y-74359095D02*
X178834047Y-74382904D01*
X178834047Y-74382904D02*
X178857857Y-74430523D01*
X178857857Y-74430523D02*
X178857857Y-74549571D01*
X178857857Y-74549571D02*
X178834047Y-74597190D01*
X178834047Y-74597190D02*
X178810238Y-74621000D01*
X178810238Y-74621000D02*
X178762619Y-74644809D01*
X178762619Y-74644809D02*
X178643571Y-74644809D01*
X178643571Y-74644809D02*
X178595952Y-74621000D01*
X178595952Y-74621000D02*
X178572143Y-74597190D01*
X183523333Y-52024809D02*
X183523333Y-52381952D01*
X183523333Y-52381952D02*
X183499524Y-52453380D01*
X183499524Y-52453380D02*
X183451905Y-52501000D01*
X183451905Y-52501000D02*
X183380476Y-52524809D01*
X183380476Y-52524809D02*
X183332857Y-52524809D01*
X183737619Y-52072428D02*
X183761428Y-52048619D01*
X183761428Y-52048619D02*
X183809047Y-52024809D01*
X183809047Y-52024809D02*
X183928095Y-52024809D01*
X183928095Y-52024809D02*
X183975714Y-52048619D01*
X183975714Y-52048619D02*
X183999523Y-52072428D01*
X183999523Y-52072428D02*
X184023333Y-52120047D01*
X184023333Y-52120047D02*
X184023333Y-52167666D01*
X184023333Y-52167666D02*
X183999523Y-52239095D01*
X183999523Y-52239095D02*
X183713809Y-52524809D01*
X183713809Y-52524809D02*
X184023333Y-52524809D01*
X168561666Y-60499809D02*
X168395000Y-60261714D01*
X168275952Y-60499809D02*
X168275952Y-59999809D01*
X168275952Y-59999809D02*
X168466428Y-59999809D01*
X168466428Y-59999809D02*
X168514047Y-60023619D01*
X168514047Y-60023619D02*
X168537857Y-60047428D01*
X168537857Y-60047428D02*
X168561666Y-60095047D01*
X168561666Y-60095047D02*
X168561666Y-60166476D01*
X168561666Y-60166476D02*
X168537857Y-60214095D01*
X168537857Y-60214095D02*
X168514047Y-60237904D01*
X168514047Y-60237904D02*
X168466428Y-60261714D01*
X168466428Y-60261714D02*
X168275952Y-60261714D01*
X168990238Y-60166476D02*
X168990238Y-60499809D01*
X168871190Y-59976000D02*
X168752143Y-60333142D01*
X168752143Y-60333142D02*
X169061666Y-60333142D01*
X135421666Y-28459809D02*
X135255000Y-28221714D01*
X135135952Y-28459809D02*
X135135952Y-27959809D01*
X135135952Y-27959809D02*
X135326428Y-27959809D01*
X135326428Y-27959809D02*
X135374047Y-27983619D01*
X135374047Y-27983619D02*
X135397857Y-28007428D01*
X135397857Y-28007428D02*
X135421666Y-28055047D01*
X135421666Y-28055047D02*
X135421666Y-28126476D01*
X135421666Y-28126476D02*
X135397857Y-28174095D01*
X135397857Y-28174095D02*
X135374047Y-28197904D01*
X135374047Y-28197904D02*
X135326428Y-28221714D01*
X135326428Y-28221714D02*
X135135952Y-28221714D01*
X135874047Y-27959809D02*
X135635952Y-27959809D01*
X135635952Y-27959809D02*
X135612143Y-28197904D01*
X135612143Y-28197904D02*
X135635952Y-28174095D01*
X135635952Y-28174095D02*
X135683571Y-28150285D01*
X135683571Y-28150285D02*
X135802619Y-28150285D01*
X135802619Y-28150285D02*
X135850238Y-28174095D01*
X135850238Y-28174095D02*
X135874047Y-28197904D01*
X135874047Y-28197904D02*
X135897857Y-28245523D01*
X135897857Y-28245523D02*
X135897857Y-28364571D01*
X135897857Y-28364571D02*
X135874047Y-28412190D01*
X135874047Y-28412190D02*
X135850238Y-28436000D01*
X135850238Y-28436000D02*
X135802619Y-28459809D01*
X135802619Y-28459809D02*
X135683571Y-28459809D01*
X135683571Y-28459809D02*
X135635952Y-28436000D01*
X135635952Y-28436000D02*
X135612143Y-28412190D01*
X175181666Y-28847190D02*
X175157857Y-28871000D01*
X175157857Y-28871000D02*
X175086428Y-28894809D01*
X175086428Y-28894809D02*
X175038809Y-28894809D01*
X175038809Y-28894809D02*
X174967381Y-28871000D01*
X174967381Y-28871000D02*
X174919762Y-28823380D01*
X174919762Y-28823380D02*
X174895952Y-28775761D01*
X174895952Y-28775761D02*
X174872143Y-28680523D01*
X174872143Y-28680523D02*
X174872143Y-28609095D01*
X174872143Y-28609095D02*
X174895952Y-28513857D01*
X174895952Y-28513857D02*
X174919762Y-28466238D01*
X174919762Y-28466238D02*
X174967381Y-28418619D01*
X174967381Y-28418619D02*
X175038809Y-28394809D01*
X175038809Y-28394809D02*
X175086428Y-28394809D01*
X175086428Y-28394809D02*
X175157857Y-28418619D01*
X175157857Y-28418619D02*
X175181666Y-28442428D01*
X175610238Y-28394809D02*
X175515000Y-28394809D01*
X175515000Y-28394809D02*
X175467381Y-28418619D01*
X175467381Y-28418619D02*
X175443571Y-28442428D01*
X175443571Y-28442428D02*
X175395952Y-28513857D01*
X175395952Y-28513857D02*
X175372143Y-28609095D01*
X175372143Y-28609095D02*
X175372143Y-28799571D01*
X175372143Y-28799571D02*
X175395952Y-28847190D01*
X175395952Y-28847190D02*
X175419762Y-28871000D01*
X175419762Y-28871000D02*
X175467381Y-28894809D01*
X175467381Y-28894809D02*
X175562619Y-28894809D01*
X175562619Y-28894809D02*
X175610238Y-28871000D01*
X175610238Y-28871000D02*
X175634047Y-28847190D01*
X175634047Y-28847190D02*
X175657857Y-28799571D01*
X175657857Y-28799571D02*
X175657857Y-28680523D01*
X175657857Y-28680523D02*
X175634047Y-28632904D01*
X175634047Y-28632904D02*
X175610238Y-28609095D01*
X175610238Y-28609095D02*
X175562619Y-28585285D01*
X175562619Y-28585285D02*
X175467381Y-28585285D01*
X175467381Y-28585285D02*
X175419762Y-28609095D01*
X175419762Y-28609095D02*
X175395952Y-28632904D01*
X175395952Y-28632904D02*
X175372143Y-28680523D01*
X118913452Y-24494809D02*
X118913452Y-23994809D01*
X118913452Y-23994809D02*
X119032500Y-23994809D01*
X119032500Y-23994809D02*
X119103928Y-24018619D01*
X119103928Y-24018619D02*
X119151547Y-24066238D01*
X119151547Y-24066238D02*
X119175357Y-24113857D01*
X119175357Y-24113857D02*
X119199166Y-24209095D01*
X119199166Y-24209095D02*
X119199166Y-24280523D01*
X119199166Y-24280523D02*
X119175357Y-24375761D01*
X119175357Y-24375761D02*
X119151547Y-24423380D01*
X119151547Y-24423380D02*
X119103928Y-24471000D01*
X119103928Y-24471000D02*
X119032500Y-24494809D01*
X119032500Y-24494809D02*
X118913452Y-24494809D01*
X119365833Y-23994809D02*
X119675357Y-23994809D01*
X119675357Y-23994809D02*
X119508690Y-24185285D01*
X119508690Y-24185285D02*
X119580119Y-24185285D01*
X119580119Y-24185285D02*
X119627738Y-24209095D01*
X119627738Y-24209095D02*
X119651547Y-24232904D01*
X119651547Y-24232904D02*
X119675357Y-24280523D01*
X119675357Y-24280523D02*
X119675357Y-24399571D01*
X119675357Y-24399571D02*
X119651547Y-24447190D01*
X119651547Y-24447190D02*
X119627738Y-24471000D01*
X119627738Y-24471000D02*
X119580119Y-24494809D01*
X119580119Y-24494809D02*
X119437262Y-24494809D01*
X119437262Y-24494809D02*
X119389643Y-24471000D01*
X119389643Y-24471000D02*
X119365833Y-24447190D01*
X174091666Y-91087190D02*
X174067857Y-91111000D01*
X174067857Y-91111000D02*
X173996428Y-91134809D01*
X173996428Y-91134809D02*
X173948809Y-91134809D01*
X173948809Y-91134809D02*
X173877381Y-91111000D01*
X173877381Y-91111000D02*
X173829762Y-91063380D01*
X173829762Y-91063380D02*
X173805952Y-91015761D01*
X173805952Y-91015761D02*
X173782143Y-90920523D01*
X173782143Y-90920523D02*
X173782143Y-90849095D01*
X173782143Y-90849095D02*
X173805952Y-90753857D01*
X173805952Y-90753857D02*
X173829762Y-90706238D01*
X173829762Y-90706238D02*
X173877381Y-90658619D01*
X173877381Y-90658619D02*
X173948809Y-90634809D01*
X173948809Y-90634809D02*
X173996428Y-90634809D01*
X173996428Y-90634809D02*
X174067857Y-90658619D01*
X174067857Y-90658619D02*
X174091666Y-90682428D01*
X174282143Y-90682428D02*
X174305952Y-90658619D01*
X174305952Y-90658619D02*
X174353571Y-90634809D01*
X174353571Y-90634809D02*
X174472619Y-90634809D01*
X174472619Y-90634809D02*
X174520238Y-90658619D01*
X174520238Y-90658619D02*
X174544047Y-90682428D01*
X174544047Y-90682428D02*
X174567857Y-90730047D01*
X174567857Y-90730047D02*
X174567857Y-90777666D01*
X174567857Y-90777666D02*
X174544047Y-90849095D01*
X174544047Y-90849095D02*
X174258333Y-91134809D01*
X174258333Y-91134809D02*
X174567857Y-91134809D01*
X167450952Y-43209809D02*
X167450952Y-42709809D01*
X167450952Y-42709809D02*
X167570000Y-42709809D01*
X167570000Y-42709809D02*
X167641428Y-42733619D01*
X167641428Y-42733619D02*
X167689047Y-42781238D01*
X167689047Y-42781238D02*
X167712857Y-42828857D01*
X167712857Y-42828857D02*
X167736666Y-42924095D01*
X167736666Y-42924095D02*
X167736666Y-42995523D01*
X167736666Y-42995523D02*
X167712857Y-43090761D01*
X167712857Y-43090761D02*
X167689047Y-43138380D01*
X167689047Y-43138380D02*
X167641428Y-43186000D01*
X167641428Y-43186000D02*
X167570000Y-43209809D01*
X167570000Y-43209809D02*
X167450952Y-43209809D01*
X168212857Y-43209809D02*
X167927143Y-43209809D01*
X168070000Y-43209809D02*
X168070000Y-42709809D01*
X168070000Y-42709809D02*
X168022381Y-42781238D01*
X168022381Y-42781238D02*
X167974762Y-42828857D01*
X167974762Y-42828857D02*
X167927143Y-42852666D01*
X118051666Y-58649809D02*
X117885000Y-58411714D01*
X117765952Y-58649809D02*
X117765952Y-58149809D01*
X117765952Y-58149809D02*
X117956428Y-58149809D01*
X117956428Y-58149809D02*
X118004047Y-58173619D01*
X118004047Y-58173619D02*
X118027857Y-58197428D01*
X118027857Y-58197428D02*
X118051666Y-58245047D01*
X118051666Y-58245047D02*
X118051666Y-58316476D01*
X118051666Y-58316476D02*
X118027857Y-58364095D01*
X118027857Y-58364095D02*
X118004047Y-58387904D01*
X118004047Y-58387904D02*
X117956428Y-58411714D01*
X117956428Y-58411714D02*
X117765952Y-58411714D01*
X118527857Y-58649809D02*
X118242143Y-58649809D01*
X118385000Y-58649809D02*
X118385000Y-58149809D01*
X118385000Y-58149809D02*
X118337381Y-58221238D01*
X118337381Y-58221238D02*
X118289762Y-58268857D01*
X118289762Y-58268857D02*
X118242143Y-58292666D01*
X183523333Y-78024809D02*
X183523333Y-78381952D01*
X183523333Y-78381952D02*
X183499524Y-78453380D01*
X183499524Y-78453380D02*
X183451905Y-78501000D01*
X183451905Y-78501000D02*
X183380476Y-78524809D01*
X183380476Y-78524809D02*
X183332857Y-78524809D01*
X183737619Y-78072428D02*
X183761428Y-78048619D01*
X183761428Y-78048619D02*
X183809047Y-78024809D01*
X183809047Y-78024809D02*
X183928095Y-78024809D01*
X183928095Y-78024809D02*
X183975714Y-78048619D01*
X183975714Y-78048619D02*
X183999523Y-78072428D01*
X183999523Y-78072428D02*
X184023333Y-78120047D01*
X184023333Y-78120047D02*
X184023333Y-78167666D01*
X184023333Y-78167666D02*
X183999523Y-78239095D01*
X183999523Y-78239095D02*
X183713809Y-78524809D01*
X183713809Y-78524809D02*
X184023333Y-78524809D01*
X168561666Y-86499809D02*
X168395000Y-86261714D01*
X168275952Y-86499809D02*
X168275952Y-85999809D01*
X168275952Y-85999809D02*
X168466428Y-85999809D01*
X168466428Y-85999809D02*
X168514047Y-86023619D01*
X168514047Y-86023619D02*
X168537857Y-86047428D01*
X168537857Y-86047428D02*
X168561666Y-86095047D01*
X168561666Y-86095047D02*
X168561666Y-86166476D01*
X168561666Y-86166476D02*
X168537857Y-86214095D01*
X168537857Y-86214095D02*
X168514047Y-86237904D01*
X168514047Y-86237904D02*
X168466428Y-86261714D01*
X168466428Y-86261714D02*
X168275952Y-86261714D01*
X168990238Y-86166476D02*
X168990238Y-86499809D01*
X168871190Y-85976000D02*
X168752143Y-86333142D01*
X168752143Y-86333142D02*
X169061666Y-86333142D01*
X137381666Y-22597190D02*
X137357857Y-22621000D01*
X137357857Y-22621000D02*
X137286428Y-22644809D01*
X137286428Y-22644809D02*
X137238809Y-22644809D01*
X137238809Y-22644809D02*
X137167381Y-22621000D01*
X137167381Y-22621000D02*
X137119762Y-22573380D01*
X137119762Y-22573380D02*
X137095952Y-22525761D01*
X137095952Y-22525761D02*
X137072143Y-22430523D01*
X137072143Y-22430523D02*
X137072143Y-22359095D01*
X137072143Y-22359095D02*
X137095952Y-22263857D01*
X137095952Y-22263857D02*
X137119762Y-22216238D01*
X137119762Y-22216238D02*
X137167381Y-22168619D01*
X137167381Y-22168619D02*
X137238809Y-22144809D01*
X137238809Y-22144809D02*
X137286428Y-22144809D01*
X137286428Y-22144809D02*
X137357857Y-22168619D01*
X137357857Y-22168619D02*
X137381666Y-22192428D01*
X137834047Y-22144809D02*
X137595952Y-22144809D01*
X137595952Y-22144809D02*
X137572143Y-22382904D01*
X137572143Y-22382904D02*
X137595952Y-22359095D01*
X137595952Y-22359095D02*
X137643571Y-22335285D01*
X137643571Y-22335285D02*
X137762619Y-22335285D01*
X137762619Y-22335285D02*
X137810238Y-22359095D01*
X137810238Y-22359095D02*
X137834047Y-22382904D01*
X137834047Y-22382904D02*
X137857857Y-22430523D01*
X137857857Y-22430523D02*
X137857857Y-22549571D01*
X137857857Y-22549571D02*
X137834047Y-22597190D01*
X137834047Y-22597190D02*
X137810238Y-22621000D01*
X137810238Y-22621000D02*
X137762619Y-22644809D01*
X137762619Y-22644809D02*
X137643571Y-22644809D01*
X137643571Y-22644809D02*
X137595952Y-22621000D01*
X137595952Y-22621000D02*
X137572143Y-22597190D01*
X167450952Y-95209809D02*
X167450952Y-94709809D01*
X167450952Y-94709809D02*
X167570000Y-94709809D01*
X167570000Y-94709809D02*
X167641428Y-94733619D01*
X167641428Y-94733619D02*
X167689047Y-94781238D01*
X167689047Y-94781238D02*
X167712857Y-94828857D01*
X167712857Y-94828857D02*
X167736666Y-94924095D01*
X167736666Y-94924095D02*
X167736666Y-94995523D01*
X167736666Y-94995523D02*
X167712857Y-95090761D01*
X167712857Y-95090761D02*
X167689047Y-95138380D01*
X167689047Y-95138380D02*
X167641428Y-95186000D01*
X167641428Y-95186000D02*
X167570000Y-95209809D01*
X167570000Y-95209809D02*
X167450952Y-95209809D01*
X168212857Y-95209809D02*
X167927143Y-95209809D01*
X168070000Y-95209809D02*
X168070000Y-94709809D01*
X168070000Y-94709809D02*
X168022381Y-94781238D01*
X168022381Y-94781238D02*
X167974762Y-94828857D01*
X167974762Y-94828857D02*
X167927143Y-94852666D01*
X168561666Y-34499809D02*
X168395000Y-34261714D01*
X168275952Y-34499809D02*
X168275952Y-33999809D01*
X168275952Y-33999809D02*
X168466428Y-33999809D01*
X168466428Y-33999809D02*
X168514047Y-34023619D01*
X168514047Y-34023619D02*
X168537857Y-34047428D01*
X168537857Y-34047428D02*
X168561666Y-34095047D01*
X168561666Y-34095047D02*
X168561666Y-34166476D01*
X168561666Y-34166476D02*
X168537857Y-34214095D01*
X168537857Y-34214095D02*
X168514047Y-34237904D01*
X168514047Y-34237904D02*
X168466428Y-34261714D01*
X168466428Y-34261714D02*
X168275952Y-34261714D01*
X168990238Y-34166476D02*
X168990238Y-34499809D01*
X168871190Y-33976000D02*
X168752143Y-34333142D01*
X168752143Y-34333142D02*
X169061666Y-34333142D01*
X127561666Y-61172190D02*
X127537857Y-61196000D01*
X127537857Y-61196000D02*
X127466428Y-61219809D01*
X127466428Y-61219809D02*
X127418809Y-61219809D01*
X127418809Y-61219809D02*
X127347381Y-61196000D01*
X127347381Y-61196000D02*
X127299762Y-61148380D01*
X127299762Y-61148380D02*
X127275952Y-61100761D01*
X127275952Y-61100761D02*
X127252143Y-61005523D01*
X127252143Y-61005523D02*
X127252143Y-60934095D01*
X127252143Y-60934095D02*
X127275952Y-60838857D01*
X127275952Y-60838857D02*
X127299762Y-60791238D01*
X127299762Y-60791238D02*
X127347381Y-60743619D01*
X127347381Y-60743619D02*
X127418809Y-60719809D01*
X127418809Y-60719809D02*
X127466428Y-60719809D01*
X127466428Y-60719809D02*
X127537857Y-60743619D01*
X127537857Y-60743619D02*
X127561666Y-60767428D01*
X127728333Y-60719809D02*
X128037857Y-60719809D01*
X128037857Y-60719809D02*
X127871190Y-60910285D01*
X127871190Y-60910285D02*
X127942619Y-60910285D01*
X127942619Y-60910285D02*
X127990238Y-60934095D01*
X127990238Y-60934095D02*
X128014047Y-60957904D01*
X128014047Y-60957904D02*
X128037857Y-61005523D01*
X128037857Y-61005523D02*
X128037857Y-61124571D01*
X128037857Y-61124571D02*
X128014047Y-61172190D01*
X128014047Y-61172190D02*
X127990238Y-61196000D01*
X127990238Y-61196000D02*
X127942619Y-61219809D01*
X127942619Y-61219809D02*
X127799762Y-61219809D01*
X127799762Y-61219809D02*
X127752143Y-61196000D01*
X127752143Y-61196000D02*
X127728333Y-61172190D01*
X176421666Y-81129809D02*
X176255000Y-80891714D01*
X176135952Y-81129809D02*
X176135952Y-80629809D01*
X176135952Y-80629809D02*
X176326428Y-80629809D01*
X176326428Y-80629809D02*
X176374047Y-80653619D01*
X176374047Y-80653619D02*
X176397857Y-80677428D01*
X176397857Y-80677428D02*
X176421666Y-80725047D01*
X176421666Y-80725047D02*
X176421666Y-80796476D01*
X176421666Y-80796476D02*
X176397857Y-80844095D01*
X176397857Y-80844095D02*
X176374047Y-80867904D01*
X176374047Y-80867904D02*
X176326428Y-80891714D01*
X176326428Y-80891714D02*
X176135952Y-80891714D01*
X176850238Y-80629809D02*
X176755000Y-80629809D01*
X176755000Y-80629809D02*
X176707381Y-80653619D01*
X176707381Y-80653619D02*
X176683571Y-80677428D01*
X176683571Y-80677428D02*
X176635952Y-80748857D01*
X176635952Y-80748857D02*
X176612143Y-80844095D01*
X176612143Y-80844095D02*
X176612143Y-81034571D01*
X176612143Y-81034571D02*
X176635952Y-81082190D01*
X176635952Y-81082190D02*
X176659762Y-81106000D01*
X176659762Y-81106000D02*
X176707381Y-81129809D01*
X176707381Y-81129809D02*
X176802619Y-81129809D01*
X176802619Y-81129809D02*
X176850238Y-81106000D01*
X176850238Y-81106000D02*
X176874047Y-81082190D01*
X176874047Y-81082190D02*
X176897857Y-81034571D01*
X176897857Y-81034571D02*
X176897857Y-80915523D01*
X176897857Y-80915523D02*
X176874047Y-80867904D01*
X176874047Y-80867904D02*
X176850238Y-80844095D01*
X176850238Y-80844095D02*
X176802619Y-80820285D01*
X176802619Y-80820285D02*
X176707381Y-80820285D01*
X176707381Y-80820285D02*
X176659762Y-80844095D01*
X176659762Y-80844095D02*
X176635952Y-80867904D01*
X176635952Y-80867904D02*
X176612143Y-80915523D01*
X159051666Y-54649809D02*
X158885000Y-54411714D01*
X158765952Y-54649809D02*
X158765952Y-54149809D01*
X158765952Y-54149809D02*
X158956428Y-54149809D01*
X158956428Y-54149809D02*
X159004047Y-54173619D01*
X159004047Y-54173619D02*
X159027857Y-54197428D01*
X159027857Y-54197428D02*
X159051666Y-54245047D01*
X159051666Y-54245047D02*
X159051666Y-54316476D01*
X159051666Y-54316476D02*
X159027857Y-54364095D01*
X159027857Y-54364095D02*
X159004047Y-54387904D01*
X159004047Y-54387904D02*
X158956428Y-54411714D01*
X158956428Y-54411714D02*
X158765952Y-54411714D01*
X159242143Y-54197428D02*
X159265952Y-54173619D01*
X159265952Y-54173619D02*
X159313571Y-54149809D01*
X159313571Y-54149809D02*
X159432619Y-54149809D01*
X159432619Y-54149809D02*
X159480238Y-54173619D01*
X159480238Y-54173619D02*
X159504047Y-54197428D01*
X159504047Y-54197428D02*
X159527857Y-54245047D01*
X159527857Y-54245047D02*
X159527857Y-54292666D01*
X159527857Y-54292666D02*
X159504047Y-54364095D01*
X159504047Y-54364095D02*
X159218333Y-54649809D01*
X159218333Y-54649809D02*
X159527857Y-54649809D01*
X159051666Y-58649809D02*
X158885000Y-58411714D01*
X158765952Y-58649809D02*
X158765952Y-58149809D01*
X158765952Y-58149809D02*
X158956428Y-58149809D01*
X158956428Y-58149809D02*
X159004047Y-58173619D01*
X159004047Y-58173619D02*
X159027857Y-58197428D01*
X159027857Y-58197428D02*
X159051666Y-58245047D01*
X159051666Y-58245047D02*
X159051666Y-58316476D01*
X159051666Y-58316476D02*
X159027857Y-58364095D01*
X159027857Y-58364095D02*
X159004047Y-58387904D01*
X159004047Y-58387904D02*
X158956428Y-58411714D01*
X158956428Y-58411714D02*
X158765952Y-58411714D01*
X159527857Y-58649809D02*
X159242143Y-58649809D01*
X159385000Y-58649809D02*
X159385000Y-58149809D01*
X159385000Y-58149809D02*
X159337381Y-58221238D01*
X159337381Y-58221238D02*
X159289762Y-58268857D01*
X159289762Y-58268857D02*
X159242143Y-58292666D01*
X159913452Y-24494809D02*
X159913452Y-23994809D01*
X159913452Y-23994809D02*
X160032500Y-23994809D01*
X160032500Y-23994809D02*
X160103928Y-24018619D01*
X160103928Y-24018619D02*
X160151547Y-24066238D01*
X160151547Y-24066238D02*
X160175357Y-24113857D01*
X160175357Y-24113857D02*
X160199166Y-24209095D01*
X160199166Y-24209095D02*
X160199166Y-24280523D01*
X160199166Y-24280523D02*
X160175357Y-24375761D01*
X160175357Y-24375761D02*
X160151547Y-24423380D01*
X160151547Y-24423380D02*
X160103928Y-24471000D01*
X160103928Y-24471000D02*
X160032500Y-24494809D01*
X160032500Y-24494809D02*
X159913452Y-24494809D01*
X160365833Y-23994809D02*
X160675357Y-23994809D01*
X160675357Y-23994809D02*
X160508690Y-24185285D01*
X160508690Y-24185285D02*
X160580119Y-24185285D01*
X160580119Y-24185285D02*
X160627738Y-24209095D01*
X160627738Y-24209095D02*
X160651547Y-24232904D01*
X160651547Y-24232904D02*
X160675357Y-24280523D01*
X160675357Y-24280523D02*
X160675357Y-24399571D01*
X160675357Y-24399571D02*
X160651547Y-24447190D01*
X160651547Y-24447190D02*
X160627738Y-24471000D01*
X160627738Y-24471000D02*
X160580119Y-24494809D01*
X160580119Y-24494809D02*
X160437262Y-24494809D01*
X160437262Y-24494809D02*
X160389643Y-24471000D01*
X160389643Y-24471000D02*
X160365833Y-24447190D01*
X159051666Y-84649809D02*
X158885000Y-84411714D01*
X158765952Y-84649809D02*
X158765952Y-84149809D01*
X158765952Y-84149809D02*
X158956428Y-84149809D01*
X158956428Y-84149809D02*
X159004047Y-84173619D01*
X159004047Y-84173619D02*
X159027857Y-84197428D01*
X159027857Y-84197428D02*
X159051666Y-84245047D01*
X159051666Y-84245047D02*
X159051666Y-84316476D01*
X159051666Y-84316476D02*
X159027857Y-84364095D01*
X159027857Y-84364095D02*
X159004047Y-84387904D01*
X159004047Y-84387904D02*
X158956428Y-84411714D01*
X158956428Y-84411714D02*
X158765952Y-84411714D01*
X159527857Y-84649809D02*
X159242143Y-84649809D01*
X159385000Y-84649809D02*
X159385000Y-84149809D01*
X159385000Y-84149809D02*
X159337381Y-84221238D01*
X159337381Y-84221238D02*
X159289762Y-84268857D01*
X159289762Y-84268857D02*
X159242143Y-84292666D01*
X116823452Y-24429809D02*
X116823452Y-23929809D01*
X116823452Y-23929809D02*
X116942500Y-23929809D01*
X116942500Y-23929809D02*
X117013928Y-23953619D01*
X117013928Y-23953619D02*
X117061547Y-24001238D01*
X117061547Y-24001238D02*
X117085357Y-24048857D01*
X117085357Y-24048857D02*
X117109166Y-24144095D01*
X117109166Y-24144095D02*
X117109166Y-24215523D01*
X117109166Y-24215523D02*
X117085357Y-24310761D01*
X117085357Y-24310761D02*
X117061547Y-24358380D01*
X117061547Y-24358380D02*
X117013928Y-24406000D01*
X117013928Y-24406000D02*
X116942500Y-24429809D01*
X116942500Y-24429809D02*
X116823452Y-24429809D01*
X117299643Y-23977428D02*
X117323452Y-23953619D01*
X117323452Y-23953619D02*
X117371071Y-23929809D01*
X117371071Y-23929809D02*
X117490119Y-23929809D01*
X117490119Y-23929809D02*
X117537738Y-23953619D01*
X117537738Y-23953619D02*
X117561547Y-23977428D01*
X117561547Y-23977428D02*
X117585357Y-24025047D01*
X117585357Y-24025047D02*
X117585357Y-24072666D01*
X117585357Y-24072666D02*
X117561547Y-24144095D01*
X117561547Y-24144095D02*
X117275833Y-24429809D01*
X117275833Y-24429809D02*
X117585357Y-24429809D01*
X176421666Y-80459809D02*
X176255000Y-80221714D01*
X176135952Y-80459809D02*
X176135952Y-79959809D01*
X176135952Y-79959809D02*
X176326428Y-79959809D01*
X176326428Y-79959809D02*
X176374047Y-79983619D01*
X176374047Y-79983619D02*
X176397857Y-80007428D01*
X176397857Y-80007428D02*
X176421666Y-80055047D01*
X176421666Y-80055047D02*
X176421666Y-80126476D01*
X176421666Y-80126476D02*
X176397857Y-80174095D01*
X176397857Y-80174095D02*
X176374047Y-80197904D01*
X176374047Y-80197904D02*
X176326428Y-80221714D01*
X176326428Y-80221714D02*
X176135952Y-80221714D01*
X176874047Y-79959809D02*
X176635952Y-79959809D01*
X176635952Y-79959809D02*
X176612143Y-80197904D01*
X176612143Y-80197904D02*
X176635952Y-80174095D01*
X176635952Y-80174095D02*
X176683571Y-80150285D01*
X176683571Y-80150285D02*
X176802619Y-80150285D01*
X176802619Y-80150285D02*
X176850238Y-80174095D01*
X176850238Y-80174095D02*
X176874047Y-80197904D01*
X176874047Y-80197904D02*
X176897857Y-80245523D01*
X176897857Y-80245523D02*
X176897857Y-80364571D01*
X176897857Y-80364571D02*
X176874047Y-80412190D01*
X176874047Y-80412190D02*
X176850238Y-80436000D01*
X176850238Y-80436000D02*
X176802619Y-80459809D01*
X176802619Y-80459809D02*
X176683571Y-80459809D01*
X176683571Y-80459809D02*
X176635952Y-80436000D01*
X176635952Y-80436000D02*
X176612143Y-80412190D01*
X135421666Y-54459809D02*
X135255000Y-54221714D01*
X135135952Y-54459809D02*
X135135952Y-53959809D01*
X135135952Y-53959809D02*
X135326428Y-53959809D01*
X135326428Y-53959809D02*
X135374047Y-53983619D01*
X135374047Y-53983619D02*
X135397857Y-54007428D01*
X135397857Y-54007428D02*
X135421666Y-54055047D01*
X135421666Y-54055047D02*
X135421666Y-54126476D01*
X135421666Y-54126476D02*
X135397857Y-54174095D01*
X135397857Y-54174095D02*
X135374047Y-54197904D01*
X135374047Y-54197904D02*
X135326428Y-54221714D01*
X135326428Y-54221714D02*
X135135952Y-54221714D01*
X135874047Y-53959809D02*
X135635952Y-53959809D01*
X135635952Y-53959809D02*
X135612143Y-54197904D01*
X135612143Y-54197904D02*
X135635952Y-54174095D01*
X135635952Y-54174095D02*
X135683571Y-54150285D01*
X135683571Y-54150285D02*
X135802619Y-54150285D01*
X135802619Y-54150285D02*
X135850238Y-54174095D01*
X135850238Y-54174095D02*
X135874047Y-54197904D01*
X135874047Y-54197904D02*
X135897857Y-54245523D01*
X135897857Y-54245523D02*
X135897857Y-54364571D01*
X135897857Y-54364571D02*
X135874047Y-54412190D01*
X135874047Y-54412190D02*
X135850238Y-54436000D01*
X135850238Y-54436000D02*
X135802619Y-54459809D01*
X135802619Y-54459809D02*
X135683571Y-54459809D01*
X135683571Y-54459809D02*
X135635952Y-54436000D01*
X135635952Y-54436000D02*
X135612143Y-54412190D01*
X159913452Y-76494809D02*
X159913452Y-75994809D01*
X159913452Y-75994809D02*
X160032500Y-75994809D01*
X160032500Y-75994809D02*
X160103928Y-76018619D01*
X160103928Y-76018619D02*
X160151547Y-76066238D01*
X160151547Y-76066238D02*
X160175357Y-76113857D01*
X160175357Y-76113857D02*
X160199166Y-76209095D01*
X160199166Y-76209095D02*
X160199166Y-76280523D01*
X160199166Y-76280523D02*
X160175357Y-76375761D01*
X160175357Y-76375761D02*
X160151547Y-76423380D01*
X160151547Y-76423380D02*
X160103928Y-76471000D01*
X160103928Y-76471000D02*
X160032500Y-76494809D01*
X160032500Y-76494809D02*
X159913452Y-76494809D01*
X160365833Y-75994809D02*
X160675357Y-75994809D01*
X160675357Y-75994809D02*
X160508690Y-76185285D01*
X160508690Y-76185285D02*
X160580119Y-76185285D01*
X160580119Y-76185285D02*
X160627738Y-76209095D01*
X160627738Y-76209095D02*
X160651547Y-76232904D01*
X160651547Y-76232904D02*
X160675357Y-76280523D01*
X160675357Y-76280523D02*
X160675357Y-76399571D01*
X160675357Y-76399571D02*
X160651547Y-76447190D01*
X160651547Y-76447190D02*
X160627738Y-76471000D01*
X160627738Y-76471000D02*
X160580119Y-76494809D01*
X160580119Y-76494809D02*
X160437262Y-76494809D01*
X160437262Y-76494809D02*
X160389643Y-76471000D01*
X160389643Y-76471000D02*
X160365833Y-76447190D01*
X183523333Y-26024809D02*
X183523333Y-26381952D01*
X183523333Y-26381952D02*
X183499524Y-26453380D01*
X183499524Y-26453380D02*
X183451905Y-26501000D01*
X183451905Y-26501000D02*
X183380476Y-26524809D01*
X183380476Y-26524809D02*
X183332857Y-26524809D01*
X183737619Y-26072428D02*
X183761428Y-26048619D01*
X183761428Y-26048619D02*
X183809047Y-26024809D01*
X183809047Y-26024809D02*
X183928095Y-26024809D01*
X183928095Y-26024809D02*
X183975714Y-26048619D01*
X183975714Y-26048619D02*
X183999523Y-26072428D01*
X183999523Y-26072428D02*
X184023333Y-26120047D01*
X184023333Y-26120047D02*
X184023333Y-26167666D01*
X184023333Y-26167666D02*
X183999523Y-26239095D01*
X183999523Y-26239095D02*
X183713809Y-26524809D01*
X183713809Y-26524809D02*
X184023333Y-26524809D01*
X175181666Y-80847190D02*
X175157857Y-80871000D01*
X175157857Y-80871000D02*
X175086428Y-80894809D01*
X175086428Y-80894809D02*
X175038809Y-80894809D01*
X175038809Y-80894809D02*
X174967381Y-80871000D01*
X174967381Y-80871000D02*
X174919762Y-80823380D01*
X174919762Y-80823380D02*
X174895952Y-80775761D01*
X174895952Y-80775761D02*
X174872143Y-80680523D01*
X174872143Y-80680523D02*
X174872143Y-80609095D01*
X174872143Y-80609095D02*
X174895952Y-80513857D01*
X174895952Y-80513857D02*
X174919762Y-80466238D01*
X174919762Y-80466238D02*
X174967381Y-80418619D01*
X174967381Y-80418619D02*
X175038809Y-80394809D01*
X175038809Y-80394809D02*
X175086428Y-80394809D01*
X175086428Y-80394809D02*
X175157857Y-80418619D01*
X175157857Y-80418619D02*
X175181666Y-80442428D01*
X175610238Y-80394809D02*
X175515000Y-80394809D01*
X175515000Y-80394809D02*
X175467381Y-80418619D01*
X175467381Y-80418619D02*
X175443571Y-80442428D01*
X175443571Y-80442428D02*
X175395952Y-80513857D01*
X175395952Y-80513857D02*
X175372143Y-80609095D01*
X175372143Y-80609095D02*
X175372143Y-80799571D01*
X175372143Y-80799571D02*
X175395952Y-80847190D01*
X175395952Y-80847190D02*
X175419762Y-80871000D01*
X175419762Y-80871000D02*
X175467381Y-80894809D01*
X175467381Y-80894809D02*
X175562619Y-80894809D01*
X175562619Y-80894809D02*
X175610238Y-80871000D01*
X175610238Y-80871000D02*
X175634047Y-80847190D01*
X175634047Y-80847190D02*
X175657857Y-80799571D01*
X175657857Y-80799571D02*
X175657857Y-80680523D01*
X175657857Y-80680523D02*
X175634047Y-80632904D01*
X175634047Y-80632904D02*
X175610238Y-80609095D01*
X175610238Y-80609095D02*
X175562619Y-80585285D01*
X175562619Y-80585285D02*
X175467381Y-80585285D01*
X175467381Y-80585285D02*
X175419762Y-80609095D01*
X175419762Y-80609095D02*
X175395952Y-80632904D01*
X175395952Y-80632904D02*
X175372143Y-80680523D01*
X117096666Y-78159809D02*
X116930000Y-77921714D01*
X116810952Y-78159809D02*
X116810952Y-77659809D01*
X116810952Y-77659809D02*
X117001428Y-77659809D01*
X117001428Y-77659809D02*
X117049047Y-77683619D01*
X117049047Y-77683619D02*
X117072857Y-77707428D01*
X117072857Y-77707428D02*
X117096666Y-77755047D01*
X117096666Y-77755047D02*
X117096666Y-77826476D01*
X117096666Y-77826476D02*
X117072857Y-77874095D01*
X117072857Y-77874095D02*
X117049047Y-77897904D01*
X117049047Y-77897904D02*
X117001428Y-77921714D01*
X117001428Y-77921714D02*
X116810952Y-77921714D01*
X117263333Y-77659809D02*
X117572857Y-77659809D01*
X117572857Y-77659809D02*
X117406190Y-77850285D01*
X117406190Y-77850285D02*
X117477619Y-77850285D01*
X117477619Y-77850285D02*
X117525238Y-77874095D01*
X117525238Y-77874095D02*
X117549047Y-77897904D01*
X117549047Y-77897904D02*
X117572857Y-77945523D01*
X117572857Y-77945523D02*
X117572857Y-78064571D01*
X117572857Y-78064571D02*
X117549047Y-78112190D01*
X117549047Y-78112190D02*
X117525238Y-78136000D01*
X117525238Y-78136000D02*
X117477619Y-78159809D01*
X117477619Y-78159809D02*
X117334762Y-78159809D01*
X117334762Y-78159809D02*
X117287143Y-78136000D01*
X117287143Y-78136000D02*
X117263333Y-78112190D01*
X159913452Y-50494809D02*
X159913452Y-49994809D01*
X159913452Y-49994809D02*
X160032500Y-49994809D01*
X160032500Y-49994809D02*
X160103928Y-50018619D01*
X160103928Y-50018619D02*
X160151547Y-50066238D01*
X160151547Y-50066238D02*
X160175357Y-50113857D01*
X160175357Y-50113857D02*
X160199166Y-50209095D01*
X160199166Y-50209095D02*
X160199166Y-50280523D01*
X160199166Y-50280523D02*
X160175357Y-50375761D01*
X160175357Y-50375761D02*
X160151547Y-50423380D01*
X160151547Y-50423380D02*
X160103928Y-50471000D01*
X160103928Y-50471000D02*
X160032500Y-50494809D01*
X160032500Y-50494809D02*
X159913452Y-50494809D01*
X160365833Y-49994809D02*
X160675357Y-49994809D01*
X160675357Y-49994809D02*
X160508690Y-50185285D01*
X160508690Y-50185285D02*
X160580119Y-50185285D01*
X160580119Y-50185285D02*
X160627738Y-50209095D01*
X160627738Y-50209095D02*
X160651547Y-50232904D01*
X160651547Y-50232904D02*
X160675357Y-50280523D01*
X160675357Y-50280523D02*
X160675357Y-50399571D01*
X160675357Y-50399571D02*
X160651547Y-50447190D01*
X160651547Y-50447190D02*
X160627738Y-50471000D01*
X160627738Y-50471000D02*
X160580119Y-50494809D01*
X160580119Y-50494809D02*
X160437262Y-50494809D01*
X160437262Y-50494809D02*
X160389643Y-50471000D01*
X160389643Y-50471000D02*
X160365833Y-50447190D01*
X133091666Y-91087190D02*
X133067857Y-91111000D01*
X133067857Y-91111000D02*
X132996428Y-91134809D01*
X132996428Y-91134809D02*
X132948809Y-91134809D01*
X132948809Y-91134809D02*
X132877381Y-91111000D01*
X132877381Y-91111000D02*
X132829762Y-91063380D01*
X132829762Y-91063380D02*
X132805952Y-91015761D01*
X132805952Y-91015761D02*
X132782143Y-90920523D01*
X132782143Y-90920523D02*
X132782143Y-90849095D01*
X132782143Y-90849095D02*
X132805952Y-90753857D01*
X132805952Y-90753857D02*
X132829762Y-90706238D01*
X132829762Y-90706238D02*
X132877381Y-90658619D01*
X132877381Y-90658619D02*
X132948809Y-90634809D01*
X132948809Y-90634809D02*
X132996428Y-90634809D01*
X132996428Y-90634809D02*
X133067857Y-90658619D01*
X133067857Y-90658619D02*
X133091666Y-90682428D01*
X133282143Y-90682428D02*
X133305952Y-90658619D01*
X133305952Y-90658619D02*
X133353571Y-90634809D01*
X133353571Y-90634809D02*
X133472619Y-90634809D01*
X133472619Y-90634809D02*
X133520238Y-90658619D01*
X133520238Y-90658619D02*
X133544047Y-90682428D01*
X133544047Y-90682428D02*
X133567857Y-90730047D01*
X133567857Y-90730047D02*
X133567857Y-90777666D01*
X133567857Y-90777666D02*
X133544047Y-90849095D01*
X133544047Y-90849095D02*
X133258333Y-91134809D01*
X133258333Y-91134809D02*
X133567857Y-91134809D01*
X178381666Y-48597190D02*
X178357857Y-48621000D01*
X178357857Y-48621000D02*
X178286428Y-48644809D01*
X178286428Y-48644809D02*
X178238809Y-48644809D01*
X178238809Y-48644809D02*
X178167381Y-48621000D01*
X178167381Y-48621000D02*
X178119762Y-48573380D01*
X178119762Y-48573380D02*
X178095952Y-48525761D01*
X178095952Y-48525761D02*
X178072143Y-48430523D01*
X178072143Y-48430523D02*
X178072143Y-48359095D01*
X178072143Y-48359095D02*
X178095952Y-48263857D01*
X178095952Y-48263857D02*
X178119762Y-48216238D01*
X178119762Y-48216238D02*
X178167381Y-48168619D01*
X178167381Y-48168619D02*
X178238809Y-48144809D01*
X178238809Y-48144809D02*
X178286428Y-48144809D01*
X178286428Y-48144809D02*
X178357857Y-48168619D01*
X178357857Y-48168619D02*
X178381666Y-48192428D01*
X178834047Y-48144809D02*
X178595952Y-48144809D01*
X178595952Y-48144809D02*
X178572143Y-48382904D01*
X178572143Y-48382904D02*
X178595952Y-48359095D01*
X178595952Y-48359095D02*
X178643571Y-48335285D01*
X178643571Y-48335285D02*
X178762619Y-48335285D01*
X178762619Y-48335285D02*
X178810238Y-48359095D01*
X178810238Y-48359095D02*
X178834047Y-48382904D01*
X178834047Y-48382904D02*
X178857857Y-48430523D01*
X178857857Y-48430523D02*
X178857857Y-48549571D01*
X178857857Y-48549571D02*
X178834047Y-48597190D01*
X178834047Y-48597190D02*
X178810238Y-48621000D01*
X178810238Y-48621000D02*
X178762619Y-48644809D01*
X178762619Y-48644809D02*
X178643571Y-48644809D01*
X178643571Y-48644809D02*
X178595952Y-48621000D01*
X178595952Y-48621000D02*
X178572143Y-48597190D01*
X118051666Y-54649809D02*
X117885000Y-54411714D01*
X117765952Y-54649809D02*
X117765952Y-54149809D01*
X117765952Y-54149809D02*
X117956428Y-54149809D01*
X117956428Y-54149809D02*
X118004047Y-54173619D01*
X118004047Y-54173619D02*
X118027857Y-54197428D01*
X118027857Y-54197428D02*
X118051666Y-54245047D01*
X118051666Y-54245047D02*
X118051666Y-54316476D01*
X118051666Y-54316476D02*
X118027857Y-54364095D01*
X118027857Y-54364095D02*
X118004047Y-54387904D01*
X118004047Y-54387904D02*
X117956428Y-54411714D01*
X117956428Y-54411714D02*
X117765952Y-54411714D01*
X118242143Y-54197428D02*
X118265952Y-54173619D01*
X118265952Y-54173619D02*
X118313571Y-54149809D01*
X118313571Y-54149809D02*
X118432619Y-54149809D01*
X118432619Y-54149809D02*
X118480238Y-54173619D01*
X118480238Y-54173619D02*
X118504047Y-54197428D01*
X118504047Y-54197428D02*
X118527857Y-54245047D01*
X118527857Y-54245047D02*
X118527857Y-54292666D01*
X118527857Y-54292666D02*
X118504047Y-54364095D01*
X118504047Y-54364095D02*
X118218333Y-54649809D01*
X118218333Y-54649809D02*
X118527857Y-54649809D01*
X135421666Y-80459809D02*
X135255000Y-80221714D01*
X135135952Y-80459809D02*
X135135952Y-79959809D01*
X135135952Y-79959809D02*
X135326428Y-79959809D01*
X135326428Y-79959809D02*
X135374047Y-79983619D01*
X135374047Y-79983619D02*
X135397857Y-80007428D01*
X135397857Y-80007428D02*
X135421666Y-80055047D01*
X135421666Y-80055047D02*
X135421666Y-80126476D01*
X135421666Y-80126476D02*
X135397857Y-80174095D01*
X135397857Y-80174095D02*
X135374047Y-80197904D01*
X135374047Y-80197904D02*
X135326428Y-80221714D01*
X135326428Y-80221714D02*
X135135952Y-80221714D01*
X135874047Y-79959809D02*
X135635952Y-79959809D01*
X135635952Y-79959809D02*
X135612143Y-80197904D01*
X135612143Y-80197904D02*
X135635952Y-80174095D01*
X135635952Y-80174095D02*
X135683571Y-80150285D01*
X135683571Y-80150285D02*
X135802619Y-80150285D01*
X135802619Y-80150285D02*
X135850238Y-80174095D01*
X135850238Y-80174095D02*
X135874047Y-80197904D01*
X135874047Y-80197904D02*
X135897857Y-80245523D01*
X135897857Y-80245523D02*
X135897857Y-80364571D01*
X135897857Y-80364571D02*
X135874047Y-80412190D01*
X135874047Y-80412190D02*
X135850238Y-80436000D01*
X135850238Y-80436000D02*
X135802619Y-80459809D01*
X135802619Y-80459809D02*
X135683571Y-80459809D01*
X135683571Y-80459809D02*
X135635952Y-80436000D01*
X135635952Y-80436000D02*
X135612143Y-80412190D01*
X176421666Y-54459809D02*
X176255000Y-54221714D01*
X176135952Y-54459809D02*
X176135952Y-53959809D01*
X176135952Y-53959809D02*
X176326428Y-53959809D01*
X176326428Y-53959809D02*
X176374047Y-53983619D01*
X176374047Y-53983619D02*
X176397857Y-54007428D01*
X176397857Y-54007428D02*
X176421666Y-54055047D01*
X176421666Y-54055047D02*
X176421666Y-54126476D01*
X176421666Y-54126476D02*
X176397857Y-54174095D01*
X176397857Y-54174095D02*
X176374047Y-54197904D01*
X176374047Y-54197904D02*
X176326428Y-54221714D01*
X176326428Y-54221714D02*
X176135952Y-54221714D01*
X176874047Y-53959809D02*
X176635952Y-53959809D01*
X176635952Y-53959809D02*
X176612143Y-54197904D01*
X176612143Y-54197904D02*
X176635952Y-54174095D01*
X176635952Y-54174095D02*
X176683571Y-54150285D01*
X176683571Y-54150285D02*
X176802619Y-54150285D01*
X176802619Y-54150285D02*
X176850238Y-54174095D01*
X176850238Y-54174095D02*
X176874047Y-54197904D01*
X176874047Y-54197904D02*
X176897857Y-54245523D01*
X176897857Y-54245523D02*
X176897857Y-54364571D01*
X176897857Y-54364571D02*
X176874047Y-54412190D01*
X176874047Y-54412190D02*
X176850238Y-54436000D01*
X176850238Y-54436000D02*
X176802619Y-54459809D01*
X176802619Y-54459809D02*
X176683571Y-54459809D01*
X176683571Y-54459809D02*
X176635952Y-54436000D01*
X176635952Y-54436000D02*
X176612143Y-54412190D01*
X118051666Y-33362190D02*
X118027857Y-33386000D01*
X118027857Y-33386000D02*
X117956428Y-33409809D01*
X117956428Y-33409809D02*
X117908809Y-33409809D01*
X117908809Y-33409809D02*
X117837381Y-33386000D01*
X117837381Y-33386000D02*
X117789762Y-33338380D01*
X117789762Y-33338380D02*
X117765952Y-33290761D01*
X117765952Y-33290761D02*
X117742143Y-33195523D01*
X117742143Y-33195523D02*
X117742143Y-33124095D01*
X117742143Y-33124095D02*
X117765952Y-33028857D01*
X117765952Y-33028857D02*
X117789762Y-32981238D01*
X117789762Y-32981238D02*
X117837381Y-32933619D01*
X117837381Y-32933619D02*
X117908809Y-32909809D01*
X117908809Y-32909809D02*
X117956428Y-32909809D01*
X117956428Y-32909809D02*
X118027857Y-32933619D01*
X118027857Y-32933619D02*
X118051666Y-32957428D01*
X118480238Y-33076476D02*
X118480238Y-33409809D01*
X118361190Y-32886000D02*
X118242143Y-33243142D01*
X118242143Y-33243142D02*
X118551666Y-33243142D01*
X159051666Y-80649809D02*
X158885000Y-80411714D01*
X158765952Y-80649809D02*
X158765952Y-80149809D01*
X158765952Y-80149809D02*
X158956428Y-80149809D01*
X158956428Y-80149809D02*
X159004047Y-80173619D01*
X159004047Y-80173619D02*
X159027857Y-80197428D01*
X159027857Y-80197428D02*
X159051666Y-80245047D01*
X159051666Y-80245047D02*
X159051666Y-80316476D01*
X159051666Y-80316476D02*
X159027857Y-80364095D01*
X159027857Y-80364095D02*
X159004047Y-80387904D01*
X159004047Y-80387904D02*
X158956428Y-80411714D01*
X158956428Y-80411714D02*
X158765952Y-80411714D01*
X159242143Y-80197428D02*
X159265952Y-80173619D01*
X159265952Y-80173619D02*
X159313571Y-80149809D01*
X159313571Y-80149809D02*
X159432619Y-80149809D01*
X159432619Y-80149809D02*
X159480238Y-80173619D01*
X159480238Y-80173619D02*
X159504047Y-80197428D01*
X159504047Y-80197428D02*
X159527857Y-80245047D01*
X159527857Y-80245047D02*
X159527857Y-80292666D01*
X159527857Y-80292666D02*
X159504047Y-80364095D01*
X159504047Y-80364095D02*
X159218333Y-80649809D01*
X159218333Y-80649809D02*
X159527857Y-80649809D01*
X127716666Y-43162190D02*
X127692857Y-43186000D01*
X127692857Y-43186000D02*
X127621428Y-43209809D01*
X127621428Y-43209809D02*
X127573809Y-43209809D01*
X127573809Y-43209809D02*
X127502381Y-43186000D01*
X127502381Y-43186000D02*
X127454762Y-43138380D01*
X127454762Y-43138380D02*
X127430952Y-43090761D01*
X127430952Y-43090761D02*
X127407143Y-42995523D01*
X127407143Y-42995523D02*
X127407143Y-42924095D01*
X127407143Y-42924095D02*
X127430952Y-42828857D01*
X127430952Y-42828857D02*
X127454762Y-42781238D01*
X127454762Y-42781238D02*
X127502381Y-42733619D01*
X127502381Y-42733619D02*
X127573809Y-42709809D01*
X127573809Y-42709809D02*
X127621428Y-42709809D01*
X127621428Y-42709809D02*
X127692857Y-42733619D01*
X127692857Y-42733619D02*
X127716666Y-42757428D01*
X128192857Y-43209809D02*
X127907143Y-43209809D01*
X128050000Y-43209809D02*
X128050000Y-42709809D01*
X128050000Y-42709809D02*
X128002381Y-42781238D01*
X128002381Y-42781238D02*
X127954762Y-42828857D01*
X127954762Y-42828857D02*
X127907143Y-42852666D01*
X118913452Y-77439809D02*
X118913452Y-77844571D01*
X118913452Y-77844571D02*
X118937262Y-77892190D01*
X118937262Y-77892190D02*
X118961071Y-77916000D01*
X118961071Y-77916000D02*
X119008690Y-77939809D01*
X119008690Y-77939809D02*
X119103928Y-77939809D01*
X119103928Y-77939809D02*
X119151547Y-77916000D01*
X119151547Y-77916000D02*
X119175357Y-77892190D01*
X119175357Y-77892190D02*
X119199166Y-77844571D01*
X119199166Y-77844571D02*
X119199166Y-77439809D01*
X119699167Y-77939809D02*
X119413453Y-77939809D01*
X119556310Y-77939809D02*
X119556310Y-77439809D01*
X119556310Y-77439809D02*
X119508691Y-77511238D01*
X119508691Y-77511238D02*
X119461072Y-77558857D01*
X119461072Y-77558857D02*
X119413453Y-77582666D01*
X142523333Y-78024809D02*
X142523333Y-78381952D01*
X142523333Y-78381952D02*
X142499524Y-78453380D01*
X142499524Y-78453380D02*
X142451905Y-78501000D01*
X142451905Y-78501000D02*
X142380476Y-78524809D01*
X142380476Y-78524809D02*
X142332857Y-78524809D01*
X142737619Y-78072428D02*
X142761428Y-78048619D01*
X142761428Y-78048619D02*
X142809047Y-78024809D01*
X142809047Y-78024809D02*
X142928095Y-78024809D01*
X142928095Y-78024809D02*
X142975714Y-78048619D01*
X142975714Y-78048619D02*
X142999523Y-78072428D01*
X142999523Y-78072428D02*
X143023333Y-78120047D01*
X143023333Y-78120047D02*
X143023333Y-78167666D01*
X143023333Y-78167666D02*
X142999523Y-78239095D01*
X142999523Y-78239095D02*
X142713809Y-78524809D01*
X142713809Y-78524809D02*
X143023333Y-78524809D01*
X118051666Y-80649809D02*
X117885000Y-80411714D01*
X117765952Y-80649809D02*
X117765952Y-80149809D01*
X117765952Y-80149809D02*
X117956428Y-80149809D01*
X117956428Y-80149809D02*
X118004047Y-80173619D01*
X118004047Y-80173619D02*
X118027857Y-80197428D01*
X118027857Y-80197428D02*
X118051666Y-80245047D01*
X118051666Y-80245047D02*
X118051666Y-80316476D01*
X118051666Y-80316476D02*
X118027857Y-80364095D01*
X118027857Y-80364095D02*
X118004047Y-80387904D01*
X118004047Y-80387904D02*
X117956428Y-80411714D01*
X117956428Y-80411714D02*
X117765952Y-80411714D01*
X118242143Y-80197428D02*
X118265952Y-80173619D01*
X118265952Y-80173619D02*
X118313571Y-80149809D01*
X118313571Y-80149809D02*
X118432619Y-80149809D01*
X118432619Y-80149809D02*
X118480238Y-80173619D01*
X118480238Y-80173619D02*
X118504047Y-80197428D01*
X118504047Y-80197428D02*
X118527857Y-80245047D01*
X118527857Y-80245047D02*
X118527857Y-80292666D01*
X118527857Y-80292666D02*
X118504047Y-80364095D01*
X118504047Y-80364095D02*
X118218333Y-80649809D01*
X118218333Y-80649809D02*
X118527857Y-80649809D01*
X157823452Y-76429809D02*
X157823452Y-75929809D01*
X157823452Y-75929809D02*
X157942500Y-75929809D01*
X157942500Y-75929809D02*
X158013928Y-75953619D01*
X158013928Y-75953619D02*
X158061547Y-76001238D01*
X158061547Y-76001238D02*
X158085357Y-76048857D01*
X158085357Y-76048857D02*
X158109166Y-76144095D01*
X158109166Y-76144095D02*
X158109166Y-76215523D01*
X158109166Y-76215523D02*
X158085357Y-76310761D01*
X158085357Y-76310761D02*
X158061547Y-76358380D01*
X158061547Y-76358380D02*
X158013928Y-76406000D01*
X158013928Y-76406000D02*
X157942500Y-76429809D01*
X157942500Y-76429809D02*
X157823452Y-76429809D01*
X158299643Y-75977428D02*
X158323452Y-75953619D01*
X158323452Y-75953619D02*
X158371071Y-75929809D01*
X158371071Y-75929809D02*
X158490119Y-75929809D01*
X158490119Y-75929809D02*
X158537738Y-75953619D01*
X158537738Y-75953619D02*
X158561547Y-75977428D01*
X158561547Y-75977428D02*
X158585357Y-76025047D01*
X158585357Y-76025047D02*
X158585357Y-76072666D01*
X158585357Y-76072666D02*
X158561547Y-76144095D01*
X158561547Y-76144095D02*
X158275833Y-76429809D01*
X158275833Y-76429809D02*
X158585357Y-76429809D01*
X176421666Y-29129809D02*
X176255000Y-28891714D01*
X176135952Y-29129809D02*
X176135952Y-28629809D01*
X176135952Y-28629809D02*
X176326428Y-28629809D01*
X176326428Y-28629809D02*
X176374047Y-28653619D01*
X176374047Y-28653619D02*
X176397857Y-28677428D01*
X176397857Y-28677428D02*
X176421666Y-28725047D01*
X176421666Y-28725047D02*
X176421666Y-28796476D01*
X176421666Y-28796476D02*
X176397857Y-28844095D01*
X176397857Y-28844095D02*
X176374047Y-28867904D01*
X176374047Y-28867904D02*
X176326428Y-28891714D01*
X176326428Y-28891714D02*
X176135952Y-28891714D01*
X176850238Y-28629809D02*
X176755000Y-28629809D01*
X176755000Y-28629809D02*
X176707381Y-28653619D01*
X176707381Y-28653619D02*
X176683571Y-28677428D01*
X176683571Y-28677428D02*
X176635952Y-28748857D01*
X176635952Y-28748857D02*
X176612143Y-28844095D01*
X176612143Y-28844095D02*
X176612143Y-29034571D01*
X176612143Y-29034571D02*
X176635952Y-29082190D01*
X176635952Y-29082190D02*
X176659762Y-29106000D01*
X176659762Y-29106000D02*
X176707381Y-29129809D01*
X176707381Y-29129809D02*
X176802619Y-29129809D01*
X176802619Y-29129809D02*
X176850238Y-29106000D01*
X176850238Y-29106000D02*
X176874047Y-29082190D01*
X176874047Y-29082190D02*
X176897857Y-29034571D01*
X176897857Y-29034571D02*
X176897857Y-28915523D01*
X176897857Y-28915523D02*
X176874047Y-28867904D01*
X176874047Y-28867904D02*
X176850238Y-28844095D01*
X176850238Y-28844095D02*
X176802619Y-28820285D01*
X176802619Y-28820285D02*
X176707381Y-28820285D01*
X176707381Y-28820285D02*
X176659762Y-28844095D01*
X176659762Y-28844095D02*
X176635952Y-28867904D01*
X176635952Y-28867904D02*
X176612143Y-28915523D01*
X133091666Y-65087190D02*
X133067857Y-65111000D01*
X133067857Y-65111000D02*
X132996428Y-65134809D01*
X132996428Y-65134809D02*
X132948809Y-65134809D01*
X132948809Y-65134809D02*
X132877381Y-65111000D01*
X132877381Y-65111000D02*
X132829762Y-65063380D01*
X132829762Y-65063380D02*
X132805952Y-65015761D01*
X132805952Y-65015761D02*
X132782143Y-64920523D01*
X132782143Y-64920523D02*
X132782143Y-64849095D01*
X132782143Y-64849095D02*
X132805952Y-64753857D01*
X132805952Y-64753857D02*
X132829762Y-64706238D01*
X132829762Y-64706238D02*
X132877381Y-64658619D01*
X132877381Y-64658619D02*
X132948809Y-64634809D01*
X132948809Y-64634809D02*
X132996428Y-64634809D01*
X132996428Y-64634809D02*
X133067857Y-64658619D01*
X133067857Y-64658619D02*
X133091666Y-64682428D01*
X133282143Y-64682428D02*
X133305952Y-64658619D01*
X133305952Y-64658619D02*
X133353571Y-64634809D01*
X133353571Y-64634809D02*
X133472619Y-64634809D01*
X133472619Y-64634809D02*
X133520238Y-64658619D01*
X133520238Y-64658619D02*
X133544047Y-64682428D01*
X133544047Y-64682428D02*
X133567857Y-64730047D01*
X133567857Y-64730047D02*
X133567857Y-64777666D01*
X133567857Y-64777666D02*
X133544047Y-64849095D01*
X133544047Y-64849095D02*
X133258333Y-65134809D01*
X133258333Y-65134809D02*
X133567857Y-65134809D01*
X160151547Y-25199809D02*
X159913452Y-25199809D01*
X159913452Y-25199809D02*
X159913452Y-24699809D01*
X160580119Y-25199809D02*
X160294405Y-25199809D01*
X160437262Y-25199809D02*
X160437262Y-24699809D01*
X160437262Y-24699809D02*
X160389643Y-24771238D01*
X160389643Y-24771238D02*
X160342024Y-24818857D01*
X160342024Y-24818857D02*
X160294405Y-24842666D01*
X168716666Y-43162190D02*
X168692857Y-43186000D01*
X168692857Y-43186000D02*
X168621428Y-43209809D01*
X168621428Y-43209809D02*
X168573809Y-43209809D01*
X168573809Y-43209809D02*
X168502381Y-43186000D01*
X168502381Y-43186000D02*
X168454762Y-43138380D01*
X168454762Y-43138380D02*
X168430952Y-43090761D01*
X168430952Y-43090761D02*
X168407143Y-42995523D01*
X168407143Y-42995523D02*
X168407143Y-42924095D01*
X168407143Y-42924095D02*
X168430952Y-42828857D01*
X168430952Y-42828857D02*
X168454762Y-42781238D01*
X168454762Y-42781238D02*
X168502381Y-42733619D01*
X168502381Y-42733619D02*
X168573809Y-42709809D01*
X168573809Y-42709809D02*
X168621428Y-42709809D01*
X168621428Y-42709809D02*
X168692857Y-42733619D01*
X168692857Y-42733619D02*
X168716666Y-42757428D01*
X169192857Y-43209809D02*
X168907143Y-43209809D01*
X169050000Y-43209809D02*
X169050000Y-42709809D01*
X169050000Y-42709809D02*
X169002381Y-42781238D01*
X169002381Y-42781238D02*
X168954762Y-42828857D01*
X168954762Y-42828857D02*
X168907143Y-42852666D01*
X112078333Y-26424809D02*
X112078333Y-26781952D01*
X112078333Y-26781952D02*
X112054524Y-26853380D01*
X112054524Y-26853380D02*
X112006905Y-26901000D01*
X112006905Y-26901000D02*
X111935476Y-26924809D01*
X111935476Y-26924809D02*
X111887857Y-26924809D01*
X112578333Y-26924809D02*
X112292619Y-26924809D01*
X112435476Y-26924809D02*
X112435476Y-26424809D01*
X112435476Y-26424809D02*
X112387857Y-26496238D01*
X112387857Y-26496238D02*
X112340238Y-26543857D01*
X112340238Y-26543857D02*
X112292619Y-26567666D01*
X118051666Y-28649809D02*
X117885000Y-28411714D01*
X117765952Y-28649809D02*
X117765952Y-28149809D01*
X117765952Y-28149809D02*
X117956428Y-28149809D01*
X117956428Y-28149809D02*
X118004047Y-28173619D01*
X118004047Y-28173619D02*
X118027857Y-28197428D01*
X118027857Y-28197428D02*
X118051666Y-28245047D01*
X118051666Y-28245047D02*
X118051666Y-28316476D01*
X118051666Y-28316476D02*
X118027857Y-28364095D01*
X118027857Y-28364095D02*
X118004047Y-28387904D01*
X118004047Y-28387904D02*
X117956428Y-28411714D01*
X117956428Y-28411714D02*
X117765952Y-28411714D01*
X118242143Y-28197428D02*
X118265952Y-28173619D01*
X118265952Y-28173619D02*
X118313571Y-28149809D01*
X118313571Y-28149809D02*
X118432619Y-28149809D01*
X118432619Y-28149809D02*
X118480238Y-28173619D01*
X118480238Y-28173619D02*
X118504047Y-28197428D01*
X118504047Y-28197428D02*
X118527857Y-28245047D01*
X118527857Y-28245047D02*
X118527857Y-28292666D01*
X118527857Y-28292666D02*
X118504047Y-28364095D01*
X118504047Y-28364095D02*
X118218333Y-28649809D01*
X118218333Y-28649809D02*
X118527857Y-28649809D01*
X126450952Y-43209809D02*
X126450952Y-42709809D01*
X126450952Y-42709809D02*
X126570000Y-42709809D01*
X126570000Y-42709809D02*
X126641428Y-42733619D01*
X126641428Y-42733619D02*
X126689047Y-42781238D01*
X126689047Y-42781238D02*
X126712857Y-42828857D01*
X126712857Y-42828857D02*
X126736666Y-42924095D01*
X126736666Y-42924095D02*
X126736666Y-42995523D01*
X126736666Y-42995523D02*
X126712857Y-43090761D01*
X126712857Y-43090761D02*
X126689047Y-43138380D01*
X126689047Y-43138380D02*
X126641428Y-43186000D01*
X126641428Y-43186000D02*
X126570000Y-43209809D01*
X126570000Y-43209809D02*
X126450952Y-43209809D01*
X127212857Y-43209809D02*
X126927143Y-43209809D01*
X127070000Y-43209809D02*
X127070000Y-42709809D01*
X127070000Y-42709809D02*
X127022381Y-42781238D01*
X127022381Y-42781238D02*
X126974762Y-42828857D01*
X126974762Y-42828857D02*
X126927143Y-42852666D01*
X118051666Y-84649809D02*
X117885000Y-84411714D01*
X117765952Y-84649809D02*
X117765952Y-84149809D01*
X117765952Y-84149809D02*
X117956428Y-84149809D01*
X117956428Y-84149809D02*
X118004047Y-84173619D01*
X118004047Y-84173619D02*
X118027857Y-84197428D01*
X118027857Y-84197428D02*
X118051666Y-84245047D01*
X118051666Y-84245047D02*
X118051666Y-84316476D01*
X118051666Y-84316476D02*
X118027857Y-84364095D01*
X118027857Y-84364095D02*
X118004047Y-84387904D01*
X118004047Y-84387904D02*
X117956428Y-84411714D01*
X117956428Y-84411714D02*
X117765952Y-84411714D01*
X118527857Y-84649809D02*
X118242143Y-84649809D01*
X118385000Y-84649809D02*
X118385000Y-84149809D01*
X118385000Y-84149809D02*
X118337381Y-84221238D01*
X118337381Y-84221238D02*
X118289762Y-84268857D01*
X118289762Y-84268857D02*
X118242143Y-84292666D01*
X159051666Y-59362190D02*
X159027857Y-59386000D01*
X159027857Y-59386000D02*
X158956428Y-59409809D01*
X158956428Y-59409809D02*
X158908809Y-59409809D01*
X158908809Y-59409809D02*
X158837381Y-59386000D01*
X158837381Y-59386000D02*
X158789762Y-59338380D01*
X158789762Y-59338380D02*
X158765952Y-59290761D01*
X158765952Y-59290761D02*
X158742143Y-59195523D01*
X158742143Y-59195523D02*
X158742143Y-59124095D01*
X158742143Y-59124095D02*
X158765952Y-59028857D01*
X158765952Y-59028857D02*
X158789762Y-58981238D01*
X158789762Y-58981238D02*
X158837381Y-58933619D01*
X158837381Y-58933619D02*
X158908809Y-58909809D01*
X158908809Y-58909809D02*
X158956428Y-58909809D01*
X158956428Y-58909809D02*
X159027857Y-58933619D01*
X159027857Y-58933619D02*
X159051666Y-58957428D01*
X159480238Y-59076476D02*
X159480238Y-59409809D01*
X159361190Y-58886000D02*
X159242143Y-59243142D01*
X159242143Y-59243142D02*
X159551666Y-59243142D01*
X119151547Y-25199809D02*
X118913452Y-25199809D01*
X118913452Y-25199809D02*
X118913452Y-24699809D01*
X119580119Y-25199809D02*
X119294405Y-25199809D01*
X119437262Y-25199809D02*
X119437262Y-24699809D01*
X119437262Y-24699809D02*
X119389643Y-24771238D01*
X119389643Y-24771238D02*
X119342024Y-24818857D01*
X119342024Y-24818857D02*
X119294405Y-24842666D01*
X159913452Y-51439809D02*
X159913452Y-51844571D01*
X159913452Y-51844571D02*
X159937262Y-51892190D01*
X159937262Y-51892190D02*
X159961071Y-51916000D01*
X159961071Y-51916000D02*
X160008690Y-51939809D01*
X160008690Y-51939809D02*
X160103928Y-51939809D01*
X160103928Y-51939809D02*
X160151547Y-51916000D01*
X160151547Y-51916000D02*
X160175357Y-51892190D01*
X160175357Y-51892190D02*
X160199166Y-51844571D01*
X160199166Y-51844571D02*
X160199166Y-51439809D01*
X160699167Y-51939809D02*
X160413453Y-51939809D01*
X160556310Y-51939809D02*
X160556310Y-51439809D01*
X160556310Y-51439809D02*
X160508691Y-51511238D01*
X160508691Y-51511238D02*
X160461072Y-51558857D01*
X160461072Y-51558857D02*
X160413453Y-51582666D01*
%TO.C,D2*%
D12*
X114242500Y-50940000D02*
X116527500Y-50940000D01*
X116527500Y-49470000D02*
X114242500Y-49470000D01*
X116527500Y-50940000D02*
X116527500Y-49470000D01*
%TO.C,J1*%
X153345000Y-27830000D02*
X155045000Y-27830000D01*
X153345000Y-37170000D02*
X155045000Y-37170000D01*
X112345000Y-53830000D02*
X114045000Y-53830000D01*
X112345000Y-63170000D02*
X114045000Y-63170000D01*
%TO.C,R4*%
X127442500Y-88727742D02*
X127442500Y-89202258D01*
X128487500Y-88727742D02*
X128487500Y-89202258D01*
%TO.C,C3*%
X168455000Y-66014420D02*
X168455000Y-66295580D01*
X169475000Y-66014420D02*
X169475000Y-66295580D01*
%TO.C,L1*%
X160905000Y-78695000D02*
X160905000Y-80195000D01*
X160905000Y-85495000D02*
X160905000Y-83995000D01*
X160905000Y-85495000D02*
X168305000Y-85495000D01*
X168305000Y-78695000D02*
X160905000Y-78695000D01*
X168305000Y-78695000D02*
X168305000Y-80195000D01*
X168305000Y-85495000D02*
X168305000Y-83995000D01*
%TO.C,J2*%
X136900000Y-60690000D02*
X137500000Y-60990000D01*
X136900000Y-61290000D02*
X136900000Y-60690000D01*
X137500000Y-60990000D02*
X136900000Y-61290000D01*
X138190000Y-53260000D02*
X138190000Y-54860000D01*
X138190000Y-59940000D02*
X138190000Y-56960000D01*
X138190000Y-63640000D02*
X138190000Y-62040000D01*
X138190000Y-63640000D02*
X147610000Y-63640000D01*
X144300000Y-63640000D02*
X144300000Y-53260000D01*
X147610000Y-53260000D02*
X138190000Y-53260000D01*
X147610000Y-63640000D02*
X147610000Y-53260000D01*
%TO.C,C5*%
X128647500Y-48422500D02*
X129435000Y-48422500D01*
X129041250Y-48028750D02*
X129041250Y-48816250D01*
X129675000Y-47924437D02*
X129675000Y-49210000D01*
X129675000Y-47924437D02*
X130739437Y-46860000D01*
X129675000Y-52615563D02*
X129675000Y-51330000D01*
X129675000Y-52615563D02*
X130739437Y-53680000D01*
X130739437Y-46860000D02*
X136495000Y-46860000D01*
X130739437Y-53680000D02*
X136495000Y-53680000D01*
X136495000Y-46860000D02*
X136495000Y-49210000D01*
X136495000Y-53680000D02*
X136495000Y-51330000D01*
%TO.C,C2*%
X129315000Y-36440000D02*
X129315000Y-40660000D01*
X132335000Y-36440000D02*
X129315000Y-36440000D01*
X132335000Y-40660000D02*
X132335000Y-36440000D01*
%TO.C,C5*%
X169647500Y-22422500D02*
X170435000Y-22422500D01*
X170041250Y-22028750D02*
X170041250Y-22816250D01*
X170675000Y-21924437D02*
X170675000Y-23210000D01*
X170675000Y-21924437D02*
X171739437Y-20860000D01*
X170675000Y-26615563D02*
X170675000Y-25330000D01*
X170675000Y-26615563D02*
X171739437Y-27680000D01*
X171739437Y-20860000D02*
X177495000Y-20860000D01*
X171739437Y-27680000D02*
X177495000Y-27680000D01*
X177495000Y-20860000D02*
X177495000Y-23210000D01*
X177495000Y-27680000D02*
X177495000Y-25330000D01*
%TO.C,R2*%
X158612500Y-30662258D02*
X158612500Y-30187742D01*
X159657500Y-30662258D02*
X159657500Y-30187742D01*
%TO.C,U1*%
X120995000Y-34215000D02*
X125115000Y-34215000D01*
X120995000Y-34310000D02*
X120995000Y-34215000D01*
X120995000Y-39335000D02*
X120995000Y-39240000D01*
X125115000Y-34215000D02*
X125115000Y-34310000D01*
X125115000Y-39240000D02*
X125115000Y-39335000D01*
X125115000Y-39335000D02*
X120995000Y-39335000D01*
X120455000Y-34305000D02*
X120215000Y-33975000D01*
X120695000Y-33975000D01*
X120455000Y-34305000D01*
G36*
X120455000Y-34305000D02*
G01*
X120215000Y-33975000D01*
X120695000Y-33975000D01*
X120455000Y-34305000D01*
G37*
%TO.C,R6*%
X134982500Y-85667742D02*
X134982500Y-86142258D01*
X136027500Y-85667742D02*
X136027500Y-86142258D01*
%TO.C,L1*%
X160905000Y-52695000D02*
X160905000Y-54195000D01*
X160905000Y-59495000D02*
X160905000Y-57995000D01*
X160905000Y-59495000D02*
X168305000Y-59495000D01*
X168305000Y-52695000D02*
X160905000Y-52695000D01*
X168305000Y-52695000D02*
X168305000Y-54195000D01*
X168305000Y-59495000D02*
X168305000Y-57995000D01*
X119905000Y-78695000D02*
X119905000Y-80195000D01*
X119905000Y-85495000D02*
X119905000Y-83995000D01*
X119905000Y-85495000D02*
X127305000Y-85495000D01*
X127305000Y-78695000D02*
X119905000Y-78695000D01*
X127305000Y-78695000D02*
X127305000Y-80195000D01*
X127305000Y-85495000D02*
X127305000Y-83995000D01*
%TO.C,C6*%
X169495000Y-56414437D02*
X169495000Y-60870000D01*
X169495000Y-60870000D02*
X171195000Y-60870000D01*
X170559437Y-55350000D02*
X169495000Y-56414437D01*
X170559437Y-55350000D02*
X171195000Y-55350000D01*
X173940000Y-54485000D02*
X173940000Y-55110000D01*
X173950563Y-55350000D02*
X173315000Y-55350000D01*
X173950563Y-55350000D02*
X175015000Y-56414437D01*
X174252500Y-54797500D02*
X173627500Y-54797500D01*
X175015000Y-56414437D02*
X175015000Y-60870000D01*
X175015000Y-60870000D02*
X173315000Y-60870000D01*
%TO.C,C2*%
X170315000Y-36440000D02*
X170315000Y-40660000D01*
X173335000Y-36440000D02*
X170315000Y-36440000D01*
X173335000Y-40660000D02*
X173335000Y-36440000D01*
%TO.C,R5*%
X175982500Y-30497742D02*
X175982500Y-30972258D01*
X177027500Y-30497742D02*
X177027500Y-30972258D01*
%TO.C,R3*%
X156317258Y-25412500D02*
X155842742Y-25412500D01*
X156317258Y-26457500D02*
X155842742Y-26457500D01*
%TO.C,D2*%
X155242500Y-50940000D02*
X157527500Y-50940000D01*
X157527500Y-49470000D02*
X155242500Y-49470000D01*
X157527500Y-50940000D02*
X157527500Y-49470000D01*
%TO.C,R1*%
X117612500Y-34837742D02*
X117612500Y-35312258D01*
X118657500Y-34837742D02*
X118657500Y-35312258D01*
%TO.C,J1*%
X112345000Y-79830000D02*
X114045000Y-79830000D01*
X112345000Y-89170000D02*
X114045000Y-89170000D01*
%TO.C,C1*%
X121230000Y-66155000D02*
X121230000Y-69175000D01*
X121230000Y-69175000D02*
X125450000Y-69175000D01*
X125450000Y-66155000D02*
X121230000Y-66155000D01*
%TO.C,R3*%
X115317258Y-51412500D02*
X114842742Y-51412500D01*
X115317258Y-52457500D02*
X114842742Y-52457500D01*
X115317258Y-25412500D02*
X114842742Y-25412500D01*
X115317258Y-26457500D02*
X114842742Y-26457500D01*
%TO.C,C6*%
X128495000Y-56414437D02*
X128495000Y-60870000D01*
X128495000Y-60870000D02*
X130195000Y-60870000D01*
X129559437Y-55350000D02*
X128495000Y-56414437D01*
X129559437Y-55350000D02*
X130195000Y-55350000D01*
X132940000Y-54485000D02*
X132940000Y-55110000D01*
X132950563Y-55350000D02*
X132315000Y-55350000D01*
X132950563Y-55350000D02*
X134015000Y-56414437D01*
X133252500Y-54797500D02*
X132627500Y-54797500D01*
X134015000Y-56414437D02*
X134015000Y-60870000D01*
X134015000Y-60870000D02*
X132315000Y-60870000D01*
%TO.C,C3*%
X127455000Y-92014420D02*
X127455000Y-92295580D01*
X128475000Y-92014420D02*
X128475000Y-92295580D01*
%TO.C,C4*%
X158625000Y-38044420D02*
X158625000Y-38325580D01*
X159645000Y-38044420D02*
X159645000Y-38325580D01*
%TO.C,D3*%
X127092500Y-48620000D02*
X121582500Y-48620000D01*
X127092500Y-51920000D02*
X121582500Y-51920000D01*
X127092500Y-51920000D02*
X127092500Y-48620000D01*
%TO.C,C3*%
X127455000Y-40014420D02*
X127455000Y-40295580D01*
X128475000Y-40014420D02*
X128475000Y-40295580D01*
X168455000Y-92014420D02*
X168455000Y-92295580D01*
X169475000Y-92014420D02*
X169475000Y-92295580D01*
%TO.C,R3*%
X156317258Y-77412500D02*
X155842742Y-77412500D01*
X156317258Y-78457500D02*
X155842742Y-78457500D01*
%TO.C,D2*%
X114242500Y-76940000D02*
X116527500Y-76940000D01*
X116527500Y-75470000D02*
X114242500Y-75470000D01*
X116527500Y-76940000D02*
X116527500Y-75470000D01*
%TO.C,R1*%
X158612500Y-34837742D02*
X158612500Y-35312258D01*
X159657500Y-34837742D02*
X159657500Y-35312258D01*
%TO.C,U1*%
X161995000Y-86215000D02*
X166115000Y-86215000D01*
X161995000Y-86310000D02*
X161995000Y-86215000D01*
X161995000Y-91335000D02*
X161995000Y-91240000D01*
X166115000Y-86215000D02*
X166115000Y-86310000D01*
X166115000Y-91240000D02*
X166115000Y-91335000D01*
X166115000Y-91335000D02*
X161995000Y-91335000D01*
X161455000Y-86305000D02*
X161215000Y-85975000D01*
X161695000Y-85975000D01*
X161455000Y-86305000D01*
G36*
X161455000Y-86305000D02*
G01*
X161215000Y-85975000D01*
X161695000Y-85975000D01*
X161455000Y-86305000D01*
G37*
%TO.C,L1*%
X119905000Y-52695000D02*
X119905000Y-54195000D01*
X119905000Y-59495000D02*
X119905000Y-57995000D01*
X119905000Y-59495000D02*
X127305000Y-59495000D01*
X127305000Y-52695000D02*
X119905000Y-52695000D01*
X127305000Y-52695000D02*
X127305000Y-54195000D01*
X127305000Y-59495000D02*
X127305000Y-57995000D01*
%TO.C,J1*%
X153345000Y-53830000D02*
X155045000Y-53830000D01*
X153345000Y-63170000D02*
X155045000Y-63170000D01*
%TO.C,C1*%
X121230000Y-92155000D02*
X121230000Y-95175000D01*
X121230000Y-95175000D02*
X125450000Y-95175000D01*
X125450000Y-92155000D02*
X121230000Y-92155000D01*
%TO.C,R4*%
X127442500Y-36727742D02*
X127442500Y-37202258D01*
X128487500Y-36727742D02*
X128487500Y-37202258D01*
%TO.C,U1*%
X161995000Y-34215000D02*
X166115000Y-34215000D01*
X161995000Y-34310000D02*
X161995000Y-34215000D01*
X161995000Y-39335000D02*
X161995000Y-39240000D01*
X166115000Y-34215000D02*
X166115000Y-34310000D01*
X166115000Y-39240000D02*
X166115000Y-39335000D01*
X166115000Y-39335000D02*
X161995000Y-39335000D01*
X161455000Y-34305000D02*
X161215000Y-33975000D01*
X161695000Y-33975000D01*
X161455000Y-34305000D01*
G36*
X161455000Y-34305000D02*
G01*
X161215000Y-33975000D01*
X161695000Y-33975000D01*
X161455000Y-34305000D01*
G37*
%TO.C,C5*%
X128647500Y-74422500D02*
X129435000Y-74422500D01*
X129041250Y-74028750D02*
X129041250Y-74816250D01*
X129675000Y-73924437D02*
X129675000Y-75210000D01*
X129675000Y-73924437D02*
X130739437Y-72860000D01*
X129675000Y-78615563D02*
X129675000Y-77330000D01*
X129675000Y-78615563D02*
X130739437Y-79680000D01*
X130739437Y-72860000D02*
X136495000Y-72860000D01*
X130739437Y-79680000D02*
X136495000Y-79680000D01*
X136495000Y-72860000D02*
X136495000Y-75210000D01*
X136495000Y-79680000D02*
X136495000Y-77330000D01*
%TO.C,C1*%
X162230000Y-66155000D02*
X162230000Y-69175000D01*
X162230000Y-69175000D02*
X166450000Y-69175000D01*
X166450000Y-66155000D02*
X162230000Y-66155000D01*
%TO.C,C6*%
X128495000Y-82414437D02*
X128495000Y-86870000D01*
X128495000Y-86870000D02*
X130195000Y-86870000D01*
X129559437Y-81350000D02*
X128495000Y-82414437D01*
X129559437Y-81350000D02*
X130195000Y-81350000D01*
X132940000Y-80485000D02*
X132940000Y-81110000D01*
X132950563Y-81350000D02*
X132315000Y-81350000D01*
X132950563Y-81350000D02*
X134015000Y-82414437D01*
X133252500Y-80797500D02*
X132627500Y-80797500D01*
X134015000Y-82414437D02*
X134015000Y-86870000D01*
X134015000Y-86870000D02*
X132315000Y-86870000D01*
%TO.C,D1*%
X161660000Y-66015000D02*
X156150000Y-66015000D01*
X161660000Y-69315000D02*
X156150000Y-69315000D01*
X161660000Y-69315000D02*
X161660000Y-66015000D01*
X120660000Y-92015000D02*
X115150000Y-92015000D01*
X120660000Y-95315000D02*
X115150000Y-95315000D01*
X120660000Y-95315000D02*
X120660000Y-92015000D01*
%TO.C,R6*%
X134982500Y-33667742D02*
X134982500Y-34142258D01*
X136027500Y-33667742D02*
X136027500Y-34142258D01*
%TO.C,C1*%
X162230000Y-92155000D02*
X162230000Y-95175000D01*
X162230000Y-95175000D02*
X166450000Y-95175000D01*
X166450000Y-92155000D02*
X162230000Y-92155000D01*
%TO.C,R4*%
X127442500Y-62727742D02*
X127442500Y-63202258D01*
X128487500Y-62727742D02*
X128487500Y-63202258D01*
%TO.C,J2*%
X136900000Y-34690000D02*
X137500000Y-34990000D01*
X136900000Y-35290000D02*
X136900000Y-34690000D01*
X137500000Y-34990000D02*
X136900000Y-35290000D01*
X138190000Y-27260000D02*
X138190000Y-28860000D01*
X138190000Y-33940000D02*
X138190000Y-30960000D01*
X138190000Y-37640000D02*
X138190000Y-36040000D01*
X138190000Y-37640000D02*
X147610000Y-37640000D01*
X144300000Y-37640000D02*
X144300000Y-27260000D01*
X147610000Y-27260000D02*
X138190000Y-27260000D01*
X147610000Y-37640000D02*
X147610000Y-27260000D01*
%TO.C,C4*%
X117625000Y-64044420D02*
X117625000Y-64325580D01*
X118645000Y-64044420D02*
X118645000Y-64325580D01*
%TO.C,R6*%
X134982500Y-59667742D02*
X134982500Y-60142258D01*
X136027500Y-59667742D02*
X136027500Y-60142258D01*
%TO.C,D3*%
X127092500Y-74620000D02*
X121582500Y-74620000D01*
X127092500Y-77920000D02*
X121582500Y-77920000D01*
X127092500Y-77920000D02*
X127092500Y-74620000D01*
%TO.C,U1*%
X120995000Y-60215000D02*
X125115000Y-60215000D01*
X120995000Y-60310000D02*
X120995000Y-60215000D01*
X120995000Y-65335000D02*
X120995000Y-65240000D01*
X125115000Y-60215000D02*
X125115000Y-60310000D01*
X125115000Y-65240000D02*
X125115000Y-65335000D01*
X125115000Y-65335000D02*
X120995000Y-65335000D01*
X120455000Y-60305000D02*
X120215000Y-59975000D01*
X120695000Y-59975000D01*
X120455000Y-60305000D01*
G36*
X120455000Y-60305000D02*
G01*
X120215000Y-59975000D01*
X120695000Y-59975000D01*
X120455000Y-60305000D01*
G37*
%TO.C,J1*%
X153345000Y-79830000D02*
X155045000Y-79830000D01*
X153345000Y-89170000D02*
X155045000Y-89170000D01*
%TO.C,C2*%
X170315000Y-62440000D02*
X170315000Y-66660000D01*
X173335000Y-62440000D02*
X170315000Y-62440000D01*
X173335000Y-66660000D02*
X173335000Y-62440000D01*
%TO.C,C4*%
X158625000Y-90044420D02*
X158625000Y-90325580D01*
X159645000Y-90044420D02*
X159645000Y-90325580D01*
X117625000Y-90044420D02*
X117625000Y-90325580D01*
X118645000Y-90044420D02*
X118645000Y-90325580D01*
%TO.C,D1*%
X120660000Y-66015000D02*
X115150000Y-66015000D01*
X120660000Y-69315000D02*
X115150000Y-69315000D01*
X120660000Y-69315000D02*
X120660000Y-66015000D01*
%TO.C,C6*%
X128495000Y-30414437D02*
X128495000Y-34870000D01*
X128495000Y-34870000D02*
X130195000Y-34870000D01*
X129559437Y-29350000D02*
X128495000Y-30414437D01*
X129559437Y-29350000D02*
X130195000Y-29350000D01*
X132940000Y-28485000D02*
X132940000Y-29110000D01*
X132950563Y-29350000D02*
X132315000Y-29350000D01*
X132950563Y-29350000D02*
X134015000Y-30414437D01*
X133252500Y-28797500D02*
X132627500Y-28797500D01*
X134015000Y-30414437D02*
X134015000Y-34870000D01*
X134015000Y-34870000D02*
X132315000Y-34870000D01*
%TO.C,C3*%
X168455000Y-40014420D02*
X168455000Y-40295580D01*
X169475000Y-40014420D02*
X169475000Y-40295580D01*
%TO.C,D2*%
X155242500Y-24940000D02*
X157527500Y-24940000D01*
X157527500Y-23470000D02*
X155242500Y-23470000D01*
X157527500Y-24940000D02*
X157527500Y-23470000D01*
%TO.C,R6*%
X175982500Y-59667742D02*
X175982500Y-60142258D01*
X177027500Y-59667742D02*
X177027500Y-60142258D01*
%TO.C,R3*%
X156317258Y-51412500D02*
X155842742Y-51412500D01*
X156317258Y-52457500D02*
X155842742Y-52457500D01*
%TO.C,C5*%
X169647500Y-74422500D02*
X170435000Y-74422500D01*
X170041250Y-74028750D02*
X170041250Y-74816250D01*
X170675000Y-73924437D02*
X170675000Y-75210000D01*
X170675000Y-73924437D02*
X171739437Y-72860000D01*
X170675000Y-78615563D02*
X170675000Y-77330000D01*
X170675000Y-78615563D02*
X171739437Y-79680000D01*
X171739437Y-72860000D02*
X177495000Y-72860000D01*
X171739437Y-79680000D02*
X177495000Y-79680000D01*
X177495000Y-72860000D02*
X177495000Y-75210000D01*
X177495000Y-79680000D02*
X177495000Y-77330000D01*
%TO.C,J2*%
X177900000Y-60690000D02*
X178500000Y-60990000D01*
X177900000Y-61290000D02*
X177900000Y-60690000D01*
X178500000Y-60990000D02*
X177900000Y-61290000D01*
X179190000Y-53260000D02*
X179190000Y-54860000D01*
X179190000Y-59940000D02*
X179190000Y-56960000D01*
X179190000Y-63640000D02*
X179190000Y-62040000D01*
X179190000Y-63640000D02*
X188610000Y-63640000D01*
X185300000Y-63640000D02*
X185300000Y-53260000D01*
X188610000Y-53260000D02*
X179190000Y-53260000D01*
X188610000Y-63640000D02*
X188610000Y-53260000D01*
%TO.C,R4*%
X168442500Y-62727742D02*
X168442500Y-63202258D01*
X169487500Y-62727742D02*
X169487500Y-63202258D01*
%TO.C,R5*%
X134982500Y-30497742D02*
X134982500Y-30972258D01*
X136027500Y-30497742D02*
X136027500Y-30972258D01*
%TO.C,C6*%
X169495000Y-30414437D02*
X169495000Y-34870000D01*
X169495000Y-34870000D02*
X171195000Y-34870000D01*
X170559437Y-29350000D02*
X169495000Y-30414437D01*
X170559437Y-29350000D02*
X171195000Y-29350000D01*
X173940000Y-28485000D02*
X173940000Y-29110000D01*
X173950563Y-29350000D02*
X173315000Y-29350000D01*
X173950563Y-29350000D02*
X175015000Y-30414437D01*
X174252500Y-28797500D02*
X173627500Y-28797500D01*
X175015000Y-30414437D02*
X175015000Y-34870000D01*
X175015000Y-34870000D02*
X173315000Y-34870000D01*
%TO.C,D3*%
X127092500Y-22620000D02*
X121582500Y-22620000D01*
X127092500Y-25920000D02*
X121582500Y-25920000D01*
X127092500Y-25920000D02*
X127092500Y-22620000D01*
%TO.C,C2*%
X170315000Y-88440000D02*
X170315000Y-92660000D01*
X173335000Y-88440000D02*
X170315000Y-88440000D01*
X173335000Y-92660000D02*
X173335000Y-88440000D01*
%TO.C,D1*%
X161660000Y-40015000D02*
X156150000Y-40015000D01*
X161660000Y-43315000D02*
X156150000Y-43315000D01*
X161660000Y-43315000D02*
X161660000Y-40015000D01*
%TO.C,R1*%
X117612500Y-60837742D02*
X117612500Y-61312258D01*
X118657500Y-60837742D02*
X118657500Y-61312258D01*
%TO.C,J2*%
X177900000Y-86690000D02*
X178500000Y-86990000D01*
X177900000Y-87290000D02*
X177900000Y-86690000D01*
X178500000Y-86990000D02*
X177900000Y-87290000D01*
X179190000Y-79260000D02*
X179190000Y-80860000D01*
X179190000Y-85940000D02*
X179190000Y-82960000D01*
X179190000Y-89640000D02*
X179190000Y-88040000D01*
X179190000Y-89640000D02*
X188610000Y-89640000D01*
X185300000Y-89640000D02*
X185300000Y-79260000D01*
X188610000Y-79260000D02*
X179190000Y-79260000D01*
X188610000Y-89640000D02*
X188610000Y-79260000D01*
%TO.C,R4*%
X168442500Y-88727742D02*
X168442500Y-89202258D01*
X169487500Y-88727742D02*
X169487500Y-89202258D01*
%TO.C,C5*%
X128647500Y-22422500D02*
X129435000Y-22422500D01*
X129041250Y-22028750D02*
X129041250Y-22816250D01*
X129675000Y-21924437D02*
X129675000Y-23210000D01*
X129675000Y-21924437D02*
X130739437Y-20860000D01*
X129675000Y-26615563D02*
X129675000Y-25330000D01*
X129675000Y-26615563D02*
X130739437Y-27680000D01*
X130739437Y-20860000D02*
X136495000Y-20860000D01*
X130739437Y-27680000D02*
X136495000Y-27680000D01*
X136495000Y-20860000D02*
X136495000Y-23210000D01*
X136495000Y-27680000D02*
X136495000Y-25330000D01*
%TO.C,D1*%
X161660000Y-92015000D02*
X156150000Y-92015000D01*
X161660000Y-95315000D02*
X156150000Y-95315000D01*
X161660000Y-95315000D02*
X161660000Y-92015000D01*
%TO.C,R4*%
X168442500Y-36727742D02*
X168442500Y-37202258D01*
X169487500Y-36727742D02*
X169487500Y-37202258D01*
%TO.C,C3*%
X127455000Y-66014420D02*
X127455000Y-66295580D01*
X128475000Y-66014420D02*
X128475000Y-66295580D01*
%TO.C,R6*%
X175982500Y-85667742D02*
X175982500Y-86142258D01*
X177027500Y-85667742D02*
X177027500Y-86142258D01*
%TO.C,R2*%
X158612500Y-56662258D02*
X158612500Y-56187742D01*
X159657500Y-56662258D02*
X159657500Y-56187742D01*
%TO.C,R1*%
X158612500Y-60837742D02*
X158612500Y-61312258D01*
X159657500Y-60837742D02*
X159657500Y-61312258D01*
%TO.C,D3*%
X168092500Y-22620000D02*
X162582500Y-22620000D01*
X168092500Y-25920000D02*
X162582500Y-25920000D01*
X168092500Y-25920000D02*
X168092500Y-22620000D01*
%TO.C,R1*%
X158612500Y-86837742D02*
X158612500Y-87312258D01*
X159657500Y-86837742D02*
X159657500Y-87312258D01*
%TO.C,D2*%
X114242500Y-24940000D02*
X116527500Y-24940000D01*
X116527500Y-23470000D02*
X114242500Y-23470000D01*
X116527500Y-24940000D02*
X116527500Y-23470000D01*
%TO.C,R5*%
X175982500Y-82497742D02*
X175982500Y-82972258D01*
X177027500Y-82497742D02*
X177027500Y-82972258D01*
X134982500Y-56497742D02*
X134982500Y-56972258D01*
X136027500Y-56497742D02*
X136027500Y-56972258D01*
%TO.C,D3*%
X168092500Y-74620000D02*
X162582500Y-74620000D01*
X168092500Y-77920000D02*
X162582500Y-77920000D01*
X168092500Y-77920000D02*
X168092500Y-74620000D01*
%TO.C,J2*%
X177900000Y-34690000D02*
X178500000Y-34990000D01*
X177900000Y-35290000D02*
X177900000Y-34690000D01*
X178500000Y-34990000D02*
X177900000Y-35290000D01*
X179190000Y-27260000D02*
X179190000Y-28860000D01*
X179190000Y-33940000D02*
X179190000Y-30960000D01*
X179190000Y-37640000D02*
X179190000Y-36040000D01*
X179190000Y-37640000D02*
X188610000Y-37640000D01*
X185300000Y-37640000D02*
X185300000Y-27260000D01*
X188610000Y-27260000D02*
X179190000Y-27260000D01*
X188610000Y-37640000D02*
X188610000Y-27260000D01*
%TO.C,C6*%
X169495000Y-82414437D02*
X169495000Y-86870000D01*
X169495000Y-86870000D02*
X171195000Y-86870000D01*
X170559437Y-81350000D02*
X169495000Y-82414437D01*
X170559437Y-81350000D02*
X171195000Y-81350000D01*
X173940000Y-80485000D02*
X173940000Y-81110000D01*
X173950563Y-81350000D02*
X173315000Y-81350000D01*
X173950563Y-81350000D02*
X175015000Y-82414437D01*
X174252500Y-80797500D02*
X173627500Y-80797500D01*
X175015000Y-82414437D02*
X175015000Y-86870000D01*
X175015000Y-86870000D02*
X173315000Y-86870000D01*
%TO.C,R3*%
X115317258Y-77412500D02*
X114842742Y-77412500D01*
X115317258Y-78457500D02*
X114842742Y-78457500D01*
%TO.C,D3*%
X168092500Y-48620000D02*
X162582500Y-48620000D01*
X168092500Y-51920000D02*
X162582500Y-51920000D01*
X168092500Y-51920000D02*
X168092500Y-48620000D01*
%TO.C,C2*%
X129315000Y-88440000D02*
X129315000Y-92660000D01*
X132335000Y-88440000D02*
X129315000Y-88440000D01*
X132335000Y-92660000D02*
X132335000Y-88440000D01*
%TO.C,C5*%
X169647500Y-48422500D02*
X170435000Y-48422500D01*
X170041250Y-48028750D02*
X170041250Y-48816250D01*
X170675000Y-47924437D02*
X170675000Y-49210000D01*
X170675000Y-47924437D02*
X171739437Y-46860000D01*
X170675000Y-52615563D02*
X170675000Y-51330000D01*
X170675000Y-52615563D02*
X171739437Y-53680000D01*
X171739437Y-46860000D02*
X177495000Y-46860000D01*
X171739437Y-53680000D02*
X177495000Y-53680000D01*
X177495000Y-46860000D02*
X177495000Y-49210000D01*
X177495000Y-53680000D02*
X177495000Y-51330000D01*
%TO.C,R2*%
X117612500Y-56662258D02*
X117612500Y-56187742D01*
X118657500Y-56662258D02*
X118657500Y-56187742D01*
%TO.C,R5*%
X134982500Y-82497742D02*
X134982500Y-82972258D01*
X136027500Y-82497742D02*
X136027500Y-82972258D01*
X175982500Y-56497742D02*
X175982500Y-56972258D01*
X177027500Y-56497742D02*
X177027500Y-56972258D01*
%TO.C,C4*%
X117625000Y-38044420D02*
X117625000Y-38325580D01*
X118645000Y-38044420D02*
X118645000Y-38325580D01*
%TO.C,R2*%
X158612500Y-82662258D02*
X158612500Y-82187742D01*
X159657500Y-82662258D02*
X159657500Y-82187742D01*
%TO.C,C1*%
X121230000Y-40155000D02*
X121230000Y-43175000D01*
X121230000Y-43175000D02*
X125450000Y-43175000D01*
X125450000Y-40155000D02*
X121230000Y-40155000D01*
%TO.C,U1*%
X120995000Y-86215000D02*
X125115000Y-86215000D01*
X120995000Y-86310000D02*
X120995000Y-86215000D01*
X120995000Y-91335000D02*
X120995000Y-91240000D01*
X125115000Y-86215000D02*
X125115000Y-86310000D01*
X125115000Y-91240000D02*
X125115000Y-91335000D01*
X125115000Y-91335000D02*
X120995000Y-91335000D01*
X120455000Y-86305000D02*
X120215000Y-85975000D01*
X120695000Y-85975000D01*
X120455000Y-86305000D01*
G36*
X120455000Y-86305000D02*
G01*
X120215000Y-85975000D01*
X120695000Y-85975000D01*
X120455000Y-86305000D01*
G37*
%TO.C,J2*%
X136900000Y-86690000D02*
X137500000Y-86990000D01*
X136900000Y-87290000D02*
X136900000Y-86690000D01*
X137500000Y-86990000D02*
X136900000Y-87290000D01*
X138190000Y-79260000D02*
X138190000Y-80860000D01*
X138190000Y-85940000D02*
X138190000Y-82960000D01*
X138190000Y-89640000D02*
X138190000Y-88040000D01*
X138190000Y-89640000D02*
X147610000Y-89640000D01*
X144300000Y-89640000D02*
X144300000Y-79260000D01*
X147610000Y-79260000D02*
X138190000Y-79260000D01*
X147610000Y-89640000D02*
X147610000Y-79260000D01*
%TO.C,R2*%
X117612500Y-82662258D02*
X117612500Y-82187742D01*
X118657500Y-82662258D02*
X118657500Y-82187742D01*
%TO.C,D2*%
X155242500Y-76940000D02*
X157527500Y-76940000D01*
X157527500Y-75470000D02*
X155242500Y-75470000D01*
X157527500Y-76940000D02*
X157527500Y-75470000D01*
%TO.C,R6*%
X175982500Y-33667742D02*
X175982500Y-34142258D01*
X177027500Y-33667742D02*
X177027500Y-34142258D01*
%TO.C,C2*%
X129315000Y-62440000D02*
X129315000Y-66660000D01*
X132335000Y-62440000D02*
X129315000Y-62440000D01*
X132335000Y-66660000D02*
X132335000Y-62440000D01*
%TO.C,L1*%
X160905000Y-26695000D02*
X160905000Y-28195000D01*
X160905000Y-33495000D02*
X160905000Y-31995000D01*
X160905000Y-33495000D02*
X168305000Y-33495000D01*
X168305000Y-26695000D02*
X160905000Y-26695000D01*
X168305000Y-26695000D02*
X168305000Y-28195000D01*
X168305000Y-33495000D02*
X168305000Y-31995000D01*
%TO.C,C1*%
X162230000Y-40155000D02*
X162230000Y-43175000D01*
X162230000Y-43175000D02*
X166450000Y-43175000D01*
X166450000Y-40155000D02*
X162230000Y-40155000D01*
%TO.C,J1*%
X112345000Y-27830000D02*
X114045000Y-27830000D01*
X112345000Y-37170000D02*
X114045000Y-37170000D01*
%TO.C,R2*%
X117612500Y-30662258D02*
X117612500Y-30187742D01*
X118657500Y-30662258D02*
X118657500Y-30187742D01*
%TO.C,D1*%
X120660000Y-40015000D02*
X115150000Y-40015000D01*
X120660000Y-43315000D02*
X115150000Y-43315000D01*
X120660000Y-43315000D02*
X120660000Y-40015000D01*
%TO.C,R1*%
X117612500Y-86837742D02*
X117612500Y-87312258D01*
X118657500Y-86837742D02*
X118657500Y-87312258D01*
%TO.C,C4*%
X158625000Y-64044420D02*
X158625000Y-64325580D01*
X159645000Y-64044420D02*
X159645000Y-64325580D01*
%TO.C,L1*%
X119905000Y-26695000D02*
X119905000Y-28195000D01*
X119905000Y-33495000D02*
X119905000Y-31995000D01*
X119905000Y-33495000D02*
X127305000Y-33495000D01*
X127305000Y-26695000D02*
X119905000Y-26695000D01*
X127305000Y-26695000D02*
X127305000Y-28195000D01*
X127305000Y-33495000D02*
X127305000Y-31995000D01*
%TO.C,U1*%
X161995000Y-60215000D02*
X166115000Y-60215000D01*
X161995000Y-60310000D02*
X161995000Y-60215000D01*
X161995000Y-65335000D02*
X161995000Y-65240000D01*
X166115000Y-60215000D02*
X166115000Y-60310000D01*
X166115000Y-65240000D02*
X166115000Y-65335000D01*
X166115000Y-65335000D02*
X161995000Y-65335000D01*
X161455000Y-60305000D02*
X161215000Y-59975000D01*
X161695000Y-59975000D01*
X161455000Y-60305000D01*
G36*
X161455000Y-60305000D02*
G01*
X161215000Y-59975000D01*
X161695000Y-59975000D01*
X161455000Y-60305000D01*
G37*
%TD*%
M02*
