%TF.GenerationSoftware,KiCad,Pcbnew,10.0.3*%
%TF.CreationDate,2026-06-20T17:32:41+08:00*%
%TF.ProjectId,usb-booster.panelized,7573622d-626f-46f7-9374-65722e70616e,rev?*%
%TF.SameCoordinates,Original*%
%TF.FileFunction,Paste,Top*%
%TF.FilePolarity,Positive*%
%FSLAX46Y46*%
G04 Gerber Fmt 4.6, Leading zero omitted, Abs format (unit mm)*
G04 Created by KiCad (PCBNEW 10.0.3) date 2026-06-20 17:32:41*
%MOMM*%
%LPD*%
G01*
G04 APERTURE LIST*
G04 Aperture macros list*
%AMRoundRect*
0 Rectangle with rounded corners*
0 $1 Rounding radius*
0 $2 $3 $4 $5 $6 $7 $8 $9 X,Y pos of 4 corners*
0 Add a 4 corners polygon primitive as box body*
4,1,4,$2,$3,$4,$5,$6,$7,$8,$9,$2,$3,0*
0 Add four circle primitives for the rounded corners*
1,1,$1+$1,$2,$3*
1,1,$1+$1,$4,$5*
1,1,$1+$1,$6,$7*
1,1,$1+$1,$8,$9*
0 Add four rect primitives between the rounded corners*
20,1,$1+$1,$2,$3,$4,$5,0*
20,1,$1+$1,$4,$5,$6,$7,0*
20,1,$1+$1,$6,$7,$8,$9,0*
20,1,$1+$1,$8,$9,$2,$3,0*%
G04 Aperture macros list end*
%ADD10RoundRect,0.218750X0.218750X0.256250X-0.218750X0.256250X-0.218750X-0.256250X0.218750X-0.256250X0*%
%ADD11RoundRect,0.150000X-0.425000X0.150000X-0.425000X-0.150000X0.425000X-0.150000X0.425000X0.150000X0*%
%ADD12RoundRect,0.075000X-0.500000X0.075000X-0.500000X-0.075000X0.500000X-0.075000X0.500000X0.075000X0*%
%ADD13O,2.100000X1.000000*%
%ADD14O,1.800000X1.000000*%
%ADD15RoundRect,0.200000X-0.275000X0.200000X-0.275000X-0.200000X0.275000X-0.200000X0.275000X0.200000X0*%
%ADD16RoundRect,0.225000X-0.250000X0.225000X-0.250000X-0.225000X0.250000X-0.225000X0.250000X0.225000X0*%
%ADD17RoundRect,0.235000X0.940000X1.465000X-0.940000X1.465000X-0.940000X-1.465000X0.940000X-1.465000X0*%
%ADD18RoundRect,0.250000X-1.500000X-0.550000X1.500000X-0.550000X1.500000X0.550000X-1.500000X0.550000X0*%
%ADD19RoundRect,0.250000X-0.945000X0.420000X-0.945000X-0.420000X0.945000X-0.420000X0.945000X0.420000X0*%
%ADD20RoundRect,0.200000X0.275000X-0.200000X0.275000X0.200000X-0.275000X0.200000X-0.275000X-0.200000X0*%
%ADD21RoundRect,0.150000X-0.825000X-0.150000X0.825000X-0.150000X0.825000X0.150000X-0.825000X0.150000X0*%
%ADD22RoundRect,0.250000X-0.550000X1.250000X-0.550000X-1.250000X0.550000X-1.250000X0.550000X1.250000X0*%
%ADD23RoundRect,0.200000X0.200000X0.275000X-0.200000X0.275000X-0.200000X-0.275000X0.200000X-0.275000X0*%
%ADD24RoundRect,0.250000X-0.420000X-0.945000X0.420000X-0.945000X0.420000X0.945000X-0.420000X0.945000X0*%
%ADD25RoundRect,0.250000X1.000000X0.650000X-1.000000X0.650000X-1.000000X-0.650000X1.000000X-0.650000X0*%
G04 APERTURE END LIST*
D10*
%TO.C,D2*%
X115830000Y-50205000D03*
X114255000Y-50205000D03*
%TD*%
D11*
%TO.C,J1*%
X156925000Y-29300000D03*
X156925000Y-30100000D03*
D12*
X156925000Y-31250000D03*
X156925000Y-32250000D03*
X156925000Y-32750000D03*
X156925000Y-33750000D03*
D11*
X156925000Y-34900000D03*
X156925000Y-35700000D03*
X156925000Y-35700000D03*
X156925000Y-34900000D03*
D12*
X156925000Y-34250000D03*
X156925000Y-33250000D03*
X156925000Y-31750000D03*
X156925000Y-30750000D03*
D11*
X156925000Y-30100000D03*
X156925000Y-29300000D03*
D13*
X156350000Y-28180000D03*
D14*
X152170000Y-28180000D03*
D13*
X156350000Y-36820000D03*
D14*
X152170000Y-36820000D03*
%TD*%
D11*
%TO.C,J1*%
X115925000Y-55300000D03*
X115925000Y-56100000D03*
D12*
X115925000Y-57250000D03*
X115925000Y-58250000D03*
X115925000Y-58750000D03*
X115925000Y-59750000D03*
D11*
X115925000Y-60900000D03*
X115925000Y-61700000D03*
X115925000Y-61700000D03*
X115925000Y-60900000D03*
D12*
X115925000Y-60250000D03*
X115925000Y-59250000D03*
X115925000Y-57750000D03*
X115925000Y-56750000D03*
D11*
X115925000Y-56100000D03*
X115925000Y-55300000D03*
D13*
X115350000Y-54180000D03*
D14*
X111170000Y-54180000D03*
D13*
X115350000Y-62820000D03*
D14*
X111170000Y-62820000D03*
%TD*%
D15*
%TO.C,R4*%
X127965000Y-88140000D03*
X127965000Y-89790000D03*
%TD*%
D16*
%TO.C,C3*%
X168965000Y-65380000D03*
X168965000Y-66930000D03*
%TD*%
D17*
%TO.C,L1*%
X167630000Y-82095000D03*
X161580000Y-82095000D03*
%TD*%
D18*
%TO.C,C5*%
X130385000Y-50270000D03*
X135785000Y-50270000D03*
%TD*%
D19*
%TO.C,C2*%
X130825000Y-37370000D03*
X130825000Y-40450000D03*
%TD*%
D18*
%TO.C,C5*%
X171385000Y-24270000D03*
X176785000Y-24270000D03*
%TD*%
D20*
%TO.C,R2*%
X159135000Y-31250000D03*
X159135000Y-29600000D03*
%TD*%
D21*
%TO.C,U1*%
X120580000Y-34870000D03*
X120580000Y-36140000D03*
X120580000Y-37410000D03*
X120580000Y-38680000D03*
X125530000Y-38680000D03*
X125530000Y-37410000D03*
X125530000Y-36140000D03*
X125530000Y-34870000D03*
%TD*%
D15*
%TO.C,R6*%
X135505000Y-85080000D03*
X135505000Y-86730000D03*
%TD*%
D17*
%TO.C,L1*%
X167630000Y-56095000D03*
X161580000Y-56095000D03*
%TD*%
%TO.C,L1*%
X126630000Y-82095000D03*
X120580000Y-82095000D03*
%TD*%
D22*
%TO.C,C6*%
X172255000Y-55910000D03*
X172255000Y-60310000D03*
%TD*%
D19*
%TO.C,C2*%
X171825000Y-37370000D03*
X171825000Y-40450000D03*
%TD*%
D15*
%TO.C,R5*%
X176505000Y-29910000D03*
X176505000Y-31560000D03*
%TD*%
D23*
%TO.C,R3*%
X156905000Y-25935000D03*
X155255000Y-25935000D03*
%TD*%
D10*
%TO.C,D2*%
X156830000Y-50205000D03*
X155255000Y-50205000D03*
%TD*%
D15*
%TO.C,R1*%
X118135000Y-34250000D03*
X118135000Y-35900000D03*
%TD*%
D11*
%TO.C,J1*%
X115925000Y-81300000D03*
X115925000Y-82100000D03*
D12*
X115925000Y-83250000D03*
X115925000Y-84250000D03*
X115925000Y-84750000D03*
X115925000Y-85750000D03*
D11*
X115925000Y-86900000D03*
X115925000Y-87700000D03*
X115925000Y-87700000D03*
X115925000Y-86900000D03*
D12*
X115925000Y-86250000D03*
X115925000Y-85250000D03*
X115925000Y-83750000D03*
X115925000Y-82750000D03*
D11*
X115925000Y-82100000D03*
X115925000Y-81300000D03*
D13*
X115350000Y-80180000D03*
D14*
X111170000Y-80180000D03*
D13*
X115350000Y-88820000D03*
D14*
X111170000Y-88820000D03*
%TD*%
D24*
%TO.C,C1*%
X122160000Y-67665000D03*
X125240000Y-67665000D03*
%TD*%
D23*
%TO.C,R3*%
X115905000Y-51935000D03*
X114255000Y-51935000D03*
%TD*%
%TO.C,R3*%
X115905000Y-25935000D03*
X114255000Y-25935000D03*
%TD*%
D22*
%TO.C,C6*%
X131255000Y-55910000D03*
X131255000Y-60310000D03*
%TD*%
D16*
%TO.C,C3*%
X127965000Y-91380000D03*
X127965000Y-92930000D03*
%TD*%
%TO.C,C4*%
X159135000Y-37410000D03*
X159135000Y-38960000D03*
%TD*%
D25*
%TO.C,D3*%
X125582500Y-50270000D03*
X121582500Y-50270000D03*
%TD*%
D16*
%TO.C,C3*%
X127965000Y-39380000D03*
X127965000Y-40930000D03*
%TD*%
%TO.C,C3*%
X168965000Y-91380000D03*
X168965000Y-92930000D03*
%TD*%
D23*
%TO.C,R3*%
X156905000Y-77935000D03*
X155255000Y-77935000D03*
%TD*%
D10*
%TO.C,D2*%
X115830000Y-76205000D03*
X114255000Y-76205000D03*
%TD*%
D15*
%TO.C,R1*%
X159135000Y-34250000D03*
X159135000Y-35900000D03*
%TD*%
D21*
%TO.C,U1*%
X161580000Y-86870000D03*
X161580000Y-88140000D03*
X161580000Y-89410000D03*
X161580000Y-90680000D03*
X166530000Y-90680000D03*
X166530000Y-89410000D03*
X166530000Y-88140000D03*
X166530000Y-86870000D03*
%TD*%
D17*
%TO.C,L1*%
X126630000Y-56095000D03*
X120580000Y-56095000D03*
%TD*%
D11*
%TO.C,J1*%
X156925000Y-55300000D03*
X156925000Y-56100000D03*
D12*
X156925000Y-57250000D03*
X156925000Y-58250000D03*
X156925000Y-58750000D03*
X156925000Y-59750000D03*
D11*
X156925000Y-60900000D03*
X156925000Y-61700000D03*
X156925000Y-61700000D03*
X156925000Y-60900000D03*
D12*
X156925000Y-60250000D03*
X156925000Y-59250000D03*
X156925000Y-57750000D03*
X156925000Y-56750000D03*
D11*
X156925000Y-56100000D03*
X156925000Y-55300000D03*
D13*
X156350000Y-54180000D03*
D14*
X152170000Y-54180000D03*
D13*
X156350000Y-62820000D03*
D14*
X152170000Y-62820000D03*
%TD*%
D24*
%TO.C,C1*%
X122160000Y-93665000D03*
X125240000Y-93665000D03*
%TD*%
D15*
%TO.C,R4*%
X127965000Y-36140000D03*
X127965000Y-37790000D03*
%TD*%
D21*
%TO.C,U1*%
X161580000Y-34870000D03*
X161580000Y-36140000D03*
X161580000Y-37410000D03*
X161580000Y-38680000D03*
X166530000Y-38680000D03*
X166530000Y-37410000D03*
X166530000Y-36140000D03*
X166530000Y-34870000D03*
%TD*%
D18*
%TO.C,C5*%
X130385000Y-76270000D03*
X135785000Y-76270000D03*
%TD*%
D24*
%TO.C,C1*%
X163160000Y-67665000D03*
X166240000Y-67665000D03*
%TD*%
D22*
%TO.C,C6*%
X131255000Y-81910000D03*
X131255000Y-86310000D03*
%TD*%
D25*
%TO.C,D1*%
X160150000Y-67665000D03*
X156150000Y-67665000D03*
%TD*%
%TO.C,D1*%
X119150000Y-93665000D03*
X115150000Y-93665000D03*
%TD*%
D15*
%TO.C,R6*%
X135505000Y-33080000D03*
X135505000Y-34730000D03*
%TD*%
D24*
%TO.C,C1*%
X163160000Y-93665000D03*
X166240000Y-93665000D03*
%TD*%
D15*
%TO.C,R4*%
X127965000Y-62140000D03*
X127965000Y-63790000D03*
%TD*%
D16*
%TO.C,C4*%
X118135000Y-63410000D03*
X118135000Y-64960000D03*
%TD*%
D15*
%TO.C,R6*%
X135505000Y-59080000D03*
X135505000Y-60730000D03*
%TD*%
D25*
%TO.C,D3*%
X125582500Y-76270000D03*
X121582500Y-76270000D03*
%TD*%
D21*
%TO.C,U1*%
X120580000Y-60870000D03*
X120580000Y-62140000D03*
X120580000Y-63410000D03*
X120580000Y-64680000D03*
X125530000Y-64680000D03*
X125530000Y-63410000D03*
X125530000Y-62140000D03*
X125530000Y-60870000D03*
%TD*%
D11*
%TO.C,J1*%
X156925000Y-81300000D03*
X156925000Y-82100000D03*
D12*
X156925000Y-83250000D03*
X156925000Y-84250000D03*
X156925000Y-84750000D03*
X156925000Y-85750000D03*
D11*
X156925000Y-86900000D03*
X156925000Y-87700000D03*
X156925000Y-87700000D03*
X156925000Y-86900000D03*
D12*
X156925000Y-86250000D03*
X156925000Y-85250000D03*
X156925000Y-83750000D03*
X156925000Y-82750000D03*
D11*
X156925000Y-82100000D03*
X156925000Y-81300000D03*
D13*
X156350000Y-80180000D03*
D14*
X152170000Y-80180000D03*
D13*
X156350000Y-88820000D03*
D14*
X152170000Y-88820000D03*
%TD*%
D19*
%TO.C,C2*%
X171825000Y-63370000D03*
X171825000Y-66450000D03*
%TD*%
D16*
%TO.C,C4*%
X159135000Y-89410000D03*
X159135000Y-90960000D03*
%TD*%
%TO.C,C4*%
X118135000Y-89410000D03*
X118135000Y-90960000D03*
%TD*%
D25*
%TO.C,D1*%
X119150000Y-67665000D03*
X115150000Y-67665000D03*
%TD*%
D22*
%TO.C,C6*%
X131255000Y-29910000D03*
X131255000Y-34310000D03*
%TD*%
D16*
%TO.C,C3*%
X168965000Y-39380000D03*
X168965000Y-40930000D03*
%TD*%
D10*
%TO.C,D2*%
X156830000Y-24205000D03*
X155255000Y-24205000D03*
%TD*%
D15*
%TO.C,R6*%
X176505000Y-59080000D03*
X176505000Y-60730000D03*
%TD*%
D23*
%TO.C,R3*%
X156905000Y-51935000D03*
X155255000Y-51935000D03*
%TD*%
D18*
%TO.C,C5*%
X171385000Y-76270000D03*
X176785000Y-76270000D03*
%TD*%
D15*
%TO.C,R4*%
X168965000Y-62140000D03*
X168965000Y-63790000D03*
%TD*%
%TO.C,R5*%
X135505000Y-29910000D03*
X135505000Y-31560000D03*
%TD*%
D22*
%TO.C,C6*%
X172255000Y-29910000D03*
X172255000Y-34310000D03*
%TD*%
D25*
%TO.C,D3*%
X125582500Y-24270000D03*
X121582500Y-24270000D03*
%TD*%
D19*
%TO.C,C2*%
X171825000Y-89370000D03*
X171825000Y-92450000D03*
%TD*%
D25*
%TO.C,D1*%
X160150000Y-41665000D03*
X156150000Y-41665000D03*
%TD*%
D15*
%TO.C,R1*%
X118135000Y-60250000D03*
X118135000Y-61900000D03*
%TD*%
%TO.C,R4*%
X168965000Y-88140000D03*
X168965000Y-89790000D03*
%TD*%
D18*
%TO.C,C5*%
X130385000Y-24270000D03*
X135785000Y-24270000D03*
%TD*%
D25*
%TO.C,D1*%
X160150000Y-93665000D03*
X156150000Y-93665000D03*
%TD*%
D15*
%TO.C,R4*%
X168965000Y-36140000D03*
X168965000Y-37790000D03*
%TD*%
D16*
%TO.C,C3*%
X127965000Y-65380000D03*
X127965000Y-66930000D03*
%TD*%
D15*
%TO.C,R6*%
X176505000Y-85080000D03*
X176505000Y-86730000D03*
%TD*%
D20*
%TO.C,R2*%
X159135000Y-57250000D03*
X159135000Y-55600000D03*
%TD*%
D15*
%TO.C,R1*%
X159135000Y-60250000D03*
X159135000Y-61900000D03*
%TD*%
D25*
%TO.C,D3*%
X166582500Y-24270000D03*
X162582500Y-24270000D03*
%TD*%
D15*
%TO.C,R1*%
X159135000Y-86250000D03*
X159135000Y-87900000D03*
%TD*%
D10*
%TO.C,D2*%
X115830000Y-24205000D03*
X114255000Y-24205000D03*
%TD*%
D15*
%TO.C,R5*%
X176505000Y-81910000D03*
X176505000Y-83560000D03*
%TD*%
%TO.C,R5*%
X135505000Y-55910000D03*
X135505000Y-57560000D03*
%TD*%
D25*
%TO.C,D3*%
X166582500Y-76270000D03*
X162582500Y-76270000D03*
%TD*%
D22*
%TO.C,C6*%
X172255000Y-81910000D03*
X172255000Y-86310000D03*
%TD*%
D23*
%TO.C,R3*%
X115905000Y-77935000D03*
X114255000Y-77935000D03*
%TD*%
D25*
%TO.C,D3*%
X166582500Y-50270000D03*
X162582500Y-50270000D03*
%TD*%
D19*
%TO.C,C2*%
X130825000Y-89370000D03*
X130825000Y-92450000D03*
%TD*%
D18*
%TO.C,C5*%
X171385000Y-50270000D03*
X176785000Y-50270000D03*
%TD*%
D20*
%TO.C,R2*%
X118135000Y-57250000D03*
X118135000Y-55600000D03*
%TD*%
D15*
%TO.C,R5*%
X135505000Y-81910000D03*
X135505000Y-83560000D03*
%TD*%
%TO.C,R5*%
X176505000Y-55910000D03*
X176505000Y-57560000D03*
%TD*%
D16*
%TO.C,C4*%
X118135000Y-37410000D03*
X118135000Y-38960000D03*
%TD*%
D20*
%TO.C,R2*%
X159135000Y-83250000D03*
X159135000Y-81600000D03*
%TD*%
D24*
%TO.C,C1*%
X122160000Y-41665000D03*
X125240000Y-41665000D03*
%TD*%
D21*
%TO.C,U1*%
X120580000Y-86870000D03*
X120580000Y-88140000D03*
X120580000Y-89410000D03*
X120580000Y-90680000D03*
X125530000Y-90680000D03*
X125530000Y-89410000D03*
X125530000Y-88140000D03*
X125530000Y-86870000D03*
%TD*%
D20*
%TO.C,R2*%
X118135000Y-83250000D03*
X118135000Y-81600000D03*
%TD*%
D10*
%TO.C,D2*%
X156830000Y-76205000D03*
X155255000Y-76205000D03*
%TD*%
D15*
%TO.C,R6*%
X176505000Y-33080000D03*
X176505000Y-34730000D03*
%TD*%
D19*
%TO.C,C2*%
X130825000Y-63370000D03*
X130825000Y-66450000D03*
%TD*%
D17*
%TO.C,L1*%
X167630000Y-30095000D03*
X161580000Y-30095000D03*
%TD*%
D24*
%TO.C,C1*%
X163160000Y-41665000D03*
X166240000Y-41665000D03*
%TD*%
D11*
%TO.C,J1*%
X115925000Y-29300000D03*
X115925000Y-30100000D03*
D12*
X115925000Y-31250000D03*
X115925000Y-32250000D03*
X115925000Y-32750000D03*
X115925000Y-33750000D03*
D11*
X115925000Y-34900000D03*
X115925000Y-35700000D03*
X115925000Y-35700000D03*
X115925000Y-34900000D03*
D12*
X115925000Y-34250000D03*
X115925000Y-33250000D03*
X115925000Y-31750000D03*
X115925000Y-30750000D03*
D11*
X115925000Y-30100000D03*
X115925000Y-29300000D03*
D13*
X115350000Y-28180000D03*
D14*
X111170000Y-28180000D03*
D13*
X115350000Y-36820000D03*
D14*
X111170000Y-36820000D03*
%TD*%
D20*
%TO.C,R2*%
X118135000Y-31250000D03*
X118135000Y-29600000D03*
%TD*%
D25*
%TO.C,D1*%
X119150000Y-41665000D03*
X115150000Y-41665000D03*
%TD*%
D15*
%TO.C,R1*%
X118135000Y-86250000D03*
X118135000Y-87900000D03*
%TD*%
D16*
%TO.C,C4*%
X159135000Y-63410000D03*
X159135000Y-64960000D03*
%TD*%
D17*
%TO.C,L1*%
X126630000Y-30095000D03*
X120580000Y-30095000D03*
%TD*%
D21*
%TO.C,U1*%
X161580000Y-60870000D03*
X161580000Y-62140000D03*
X161580000Y-63410000D03*
X161580000Y-64680000D03*
X166530000Y-64680000D03*
X166530000Y-63410000D03*
X166530000Y-62140000D03*
X166530000Y-60870000D03*
%TD*%
M02*
