M48
; DRILL file KiCad 10.0.3 date 2026-06-20T17:32:42
; FORMAT={-:-/ absolute / metric / decimal}
; #@! TF.CreationDate,2026-06-20T17:32:42+08:00
; #@! TF.GenerationSoftware,Kicad,Pcbnew,10.0.3
; #@! TF.FileFunction,Plated,1,2,PTH
FMAT,2
METRIC
; #@! TA.AperFunction,Plated,PTH,ViaDrill
T1C0.400
; #@! TA.AperFunction,Plated,PTH,ComponentDrill
T2C0.400
; #@! TA.AperFunction,Plated,PTH,ComponentDrill
T3C0.600
; #@! TA.AperFunction,Plated,PTH,ComponentDrill
T4C1.200
; #@! TA.AperFunction,Plated,PTH,ComponentDrill
T5C2.200
%
G90
G05
T1
X113.75Y-39.25
X113.75Y-40.0
X113.75Y-43.25
X113.75Y-44.0
X113.75Y-65.25
X113.75Y-66.0
X113.75Y-69.25
X113.75Y-70.0
X113.75Y-91.25
X113.75Y-92.0
X113.75Y-95.25
X113.75Y-96.0
X114.5Y-39.25
X114.5Y-40.0
X114.5Y-43.25
X114.5Y-44.0
X114.5Y-65.25
X114.5Y-66.0
X114.5Y-69.25
X114.5Y-70.0
X114.5Y-91.25
X114.5Y-92.0
X114.5Y-95.25
X114.5Y-96.0
X115.25Y-39.25
X115.25Y-40.0
X115.25Y-43.25
X115.25Y-44.0
X115.25Y-65.25
X115.25Y-66.0
X115.25Y-69.25
X115.25Y-70.0
X115.25Y-91.25
X115.25Y-92.0
X115.25Y-95.25
X115.25Y-96.0
X116.0Y-39.25
X116.0Y-40.0
X116.0Y-43.25
X116.0Y-44.0
X116.0Y-65.25
X116.0Y-66.0
X116.0Y-69.25
X116.0Y-70.0
X116.0Y-91.25
X116.0Y-92.0
X116.0Y-95.25
X116.0Y-96.0
X116.98Y-25.935
X116.98Y-30.46
X116.98Y-34.9
X116.98Y-51.935
X116.98Y-56.46
X116.98Y-60.9
X116.98Y-77.935
X116.98Y-82.46
X116.98Y-86.9
X119.15Y-40.15
X119.15Y-66.15
X119.15Y-92.15
X119.25Y-32.5
X119.25Y-58.5
X119.25Y-84.5
X119.75Y-27.75
X119.75Y-33.25
X119.75Y-34.0
X119.75Y-53.75
X119.75Y-59.25
X119.75Y-60.0
X119.75Y-79.75
X119.75Y-85.25
X119.75Y-86.0
X120.5Y-25.75
X120.5Y-26.5
X120.5Y-27.25
X120.5Y-51.75
X120.5Y-52.5
X120.5Y-53.25
X120.5Y-77.75
X120.5Y-78.5
X120.5Y-79.25
X121.5Y-34.0
X121.5Y-60.0
X121.5Y-86.0
X121.75Y-33.25
X121.75Y-59.25
X121.75Y-85.25
X122.25Y-32.5
X122.25Y-58.5
X122.25Y-84.5
X122.75Y-25.75
X122.75Y-26.5
X122.75Y-27.25
X122.75Y-28.0
X122.75Y-28.75
X122.75Y-29.5
X122.75Y-30.25
X122.75Y-31.0
X122.75Y-31.75
X122.75Y-51.75
X122.75Y-52.5
X122.75Y-53.25
X122.75Y-54.0
X122.75Y-54.75
X122.75Y-55.5
X122.75Y-56.25
X122.75Y-57.0
X122.75Y-57.75
X122.75Y-77.75
X122.75Y-78.5
X122.75Y-79.25
X122.75Y-80.0
X122.75Y-80.75
X122.75Y-81.5
X122.75Y-82.25
X122.75Y-83.0
X122.75Y-83.75
X124.28Y-38.68
X124.28Y-64.68
X124.28Y-90.68
X126.75Y-42.25
X126.75Y-43.0
X126.75Y-68.25
X126.75Y-69.0
X126.75Y-94.25
X126.75Y-95.0
X127.5Y-42.25
X127.5Y-43.0
X127.5Y-68.25
X127.5Y-69.0
X127.5Y-94.25
X127.5Y-95.0
X128.25Y-42.25
X128.25Y-43.0
X128.25Y-68.25
X128.25Y-69.0
X128.25Y-94.25
X128.25Y-95.0
X129.0Y-33.25
X129.0Y-34.0
X129.0Y-34.75
X129.0Y-35.5
X129.0Y-42.25
X129.0Y-43.0
X129.0Y-59.25
X129.0Y-60.0
X129.0Y-60.75
X129.0Y-61.5
X129.0Y-68.25
X129.0Y-69.0
X129.0Y-85.25
X129.0Y-86.0
X129.0Y-86.75
X129.0Y-87.5
X129.0Y-94.25
X129.0Y-95.0
X129.75Y-33.25
X129.75Y-34.0
X129.75Y-34.75
X129.75Y-35.5
X129.75Y-59.25
X129.75Y-60.0
X129.75Y-60.75
X129.75Y-61.5
X129.75Y-85.25
X129.75Y-86.0
X129.75Y-86.75
X129.75Y-87.5
X133.0Y-37.75
X133.0Y-38.5
X133.0Y-39.25
X133.0Y-40.0
X133.0Y-63.75
X133.0Y-64.5
X133.0Y-65.25
X133.0Y-66.0
X133.0Y-89.75
X133.0Y-90.5
X133.0Y-91.25
X133.0Y-92.0
X133.5Y-32.0
X133.5Y-32.75
X133.5Y-58.0
X133.5Y-58.75
X133.5Y-84.0
X133.5Y-84.75
X133.75Y-37.75
X133.75Y-38.5
X133.75Y-39.25
X133.75Y-40.0
X133.75Y-63.75
X133.75Y-64.5
X133.75Y-65.25
X133.75Y-66.0
X133.75Y-89.75
X133.75Y-90.5
X133.75Y-91.25
X133.75Y-92.0
X134.25Y-32.0
X134.25Y-32.75
X134.25Y-58.0
X134.25Y-58.75
X134.25Y-84.0
X134.25Y-84.75
X134.75Y-22.0
X134.75Y-22.75
X134.75Y-25.75
X134.75Y-26.5
X134.75Y-48.0
X134.75Y-48.75
X134.75Y-51.75
X134.75Y-52.5
X134.75Y-74.0
X134.75Y-74.75
X134.75Y-77.75
X134.75Y-78.5
X134.773Y-33.812
X134.773Y-59.812
X134.773Y-85.812
X135.5Y-22.0
X135.5Y-22.75
X135.5Y-25.75
X135.5Y-26.5
X135.5Y-48.0
X135.5Y-48.75
X135.5Y-51.75
X135.5Y-52.5
X135.5Y-74.0
X135.5Y-74.75
X135.5Y-77.75
X135.5Y-78.5
X136.25Y-22.0
X136.25Y-22.75
X136.25Y-25.75
X136.25Y-26.5
X136.25Y-48.0
X136.25Y-48.75
X136.25Y-51.75
X136.25Y-52.5
X136.25Y-74.0
X136.25Y-74.75
X136.25Y-77.75
X136.25Y-78.5
X137.0Y-22.0
X137.0Y-22.75
X137.0Y-25.75
X137.0Y-26.5
X137.0Y-48.0
X137.0Y-48.75
X137.0Y-51.75
X137.0Y-52.5
X137.0Y-74.0
X137.0Y-74.75
X137.0Y-77.75
X137.0Y-78.5
X154.75Y-39.25
X154.75Y-40.0
X154.75Y-43.25
X154.75Y-44.0
X154.75Y-65.25
X154.75Y-66.0
X154.75Y-69.25
X154.75Y-70.0
X154.75Y-91.25
X154.75Y-92.0
X154.75Y-95.25
X154.75Y-96.0
X155.5Y-39.25
X155.5Y-40.0
X155.5Y-43.25
X155.5Y-44.0
X155.5Y-65.25
X155.5Y-66.0
X155.5Y-69.25
X155.5Y-70.0
X155.5Y-91.25
X155.5Y-92.0
X155.5Y-95.25
X155.5Y-96.0
X156.25Y-39.25
X156.25Y-40.0
X156.25Y-43.25
X156.25Y-44.0
X156.25Y-65.25
X156.25Y-66.0
X156.25Y-69.25
X156.25Y-70.0
X156.25Y-91.25
X156.25Y-92.0
X156.25Y-95.25
X156.25Y-96.0
X157.0Y-39.25
X157.0Y-40.0
X157.0Y-43.25
X157.0Y-44.0
X157.0Y-65.25
X157.0Y-66.0
X157.0Y-69.25
X157.0Y-70.0
X157.0Y-91.25
X157.0Y-92.0
X157.0Y-95.25
X157.0Y-96.0
X157.98Y-25.935
X157.98Y-30.46
X157.98Y-34.9
X157.98Y-51.935
X157.98Y-56.46
X157.98Y-60.9
X157.98Y-77.935
X157.98Y-82.46
X157.98Y-86.9
X160.15Y-40.15
X160.15Y-66.15
X160.15Y-92.15
X160.25Y-32.5
X160.25Y-58.5
X160.25Y-84.5
X160.75Y-27.75
X160.75Y-33.25
X160.75Y-34.0
X160.75Y-53.75
X160.75Y-59.25
X160.75Y-60.0
X160.75Y-79.75
X160.75Y-85.25
X160.75Y-86.0
X161.5Y-25.75
X161.5Y-26.5
X161.5Y-27.25
X161.5Y-51.75
X161.5Y-52.5
X161.5Y-53.25
X161.5Y-77.75
X161.5Y-78.5
X161.5Y-79.25
X162.5Y-34.0
X162.5Y-60.0
X162.5Y-86.0
X162.75Y-33.25
X162.75Y-59.25
X162.75Y-85.25
X163.25Y-32.5
X163.25Y-58.5
X163.25Y-84.5
X163.75Y-25.75
X163.75Y-26.5
X163.75Y-27.25
X163.75Y-28.0
X163.75Y-28.75
X163.75Y-29.5
X163.75Y-30.25
X163.75Y-31.0
X163.75Y-31.75
X163.75Y-51.75
X163.75Y-52.5
X163.75Y-53.25
X163.75Y-54.0
X163.75Y-54.75
X163.75Y-55.5
X163.75Y-56.25
X163.75Y-57.0
X163.75Y-57.75
X163.75Y-77.75
X163.75Y-78.5
X163.75Y-79.25
X163.75Y-80.0
X163.75Y-80.75
X163.75Y-81.5
X163.75Y-82.25
X163.75Y-83.0
X163.75Y-83.75
X165.28Y-38.68
X165.28Y-64.68
X165.28Y-90.68
X167.75Y-42.25
X167.75Y-43.0
X167.75Y-68.25
X167.75Y-69.0
X167.75Y-94.25
X167.75Y-95.0
X168.5Y-42.25
X168.5Y-43.0
X168.5Y-68.25
X168.5Y-69.0
X168.5Y-94.25
X168.5Y-95.0
X169.25Y-42.25
X169.25Y-43.0
X169.25Y-68.25
X169.25Y-69.0
X169.25Y-94.25
X169.25Y-95.0
X170.0Y-33.25
X170.0Y-34.0
X170.0Y-34.75
X170.0Y-35.5
X170.0Y-42.25
X170.0Y-43.0
X170.0Y-59.25
X170.0Y-60.0
X170.0Y-60.75
X170.0Y-61.5
X170.0Y-68.25
X170.0Y-69.0
X170.0Y-85.25
X170.0Y-86.0
X170.0Y-86.75
X170.0Y-87.5
X170.0Y-94.25
X170.0Y-95.0
X170.75Y-33.25
X170.75Y-34.0
X170.75Y-34.75
X170.75Y-35.5
X170.75Y-59.25
X170.75Y-60.0
X170.75Y-60.75
X170.75Y-61.5
X170.75Y-85.25
X170.75Y-86.0
X170.75Y-86.75
X170.75Y-87.5
X174.0Y-37.75
X174.0Y-38.5
X174.0Y-39.25
X174.0Y-40.0
X174.0Y-63.75
X174.0Y-64.5
X174.0Y-65.25
X174.0Y-66.0
X174.0Y-89.75
X174.0Y-90.5
X174.0Y-91.25
X174.0Y-92.0
X174.5Y-32.0
X174.5Y-32.75
X174.5Y-58.0
X174.5Y-58.75
X174.5Y-84.0
X174.5Y-84.75
X174.75Y-37.75
X174.75Y-38.5
X174.75Y-39.25
X174.75Y-40.0
X174.75Y-63.75
X174.75Y-64.5
X174.75Y-65.25
X174.75Y-66.0
X174.75Y-89.75
X174.75Y-90.5
X174.75Y-91.25
X174.75Y-92.0
X175.25Y-32.0
X175.25Y-32.75
X175.25Y-58.0
X175.25Y-58.75
X175.25Y-84.0
X175.25Y-84.75
X175.75Y-22.0
X175.75Y-22.75
X175.75Y-25.75
X175.75Y-26.5
X175.75Y-48.0
X175.75Y-48.75
X175.75Y-51.75
X175.75Y-52.5
X175.75Y-74.0
X175.75Y-74.75
X175.75Y-77.75
X175.75Y-78.5
X175.772Y-33.812
X175.772Y-59.812
X175.772Y-85.812
X176.5Y-22.0
X176.5Y-22.75
X176.5Y-25.75
X176.5Y-26.5
X176.5Y-48.0
X176.5Y-48.75
X176.5Y-51.75
X176.5Y-52.5
X176.5Y-74.0
X176.5Y-74.75
X176.5Y-77.75
X176.5Y-78.5
X177.25Y-22.0
X177.25Y-22.75
X177.25Y-25.75
X177.25Y-26.5
X177.25Y-48.0
X177.25Y-48.75
X177.25Y-51.75
X177.25Y-52.5
X177.25Y-74.0
X177.25Y-74.75
X177.25Y-77.75
X177.25Y-78.5
X178.0Y-22.0
X178.0Y-22.75
X178.0Y-25.75
X178.0Y-26.5
X178.0Y-48.0
X178.0Y-48.75
X178.0Y-51.75
X178.0Y-52.5
X178.0Y-74.0
X178.0Y-74.75
X178.0Y-77.75
X178.0Y-78.5
T2
X108.8Y-22.45
X108.8Y-42.55
X108.8Y-48.45
X108.8Y-68.55
X108.8Y-74.45
X108.8Y-94.55
X109.283Y-21.283
X109.283Y-23.617
X109.283Y-41.383
X109.283Y-43.717
X109.283Y-47.283
X109.283Y-49.617
X109.283Y-67.383
X109.283Y-69.717
X109.283Y-73.283
X109.283Y-75.617
X109.283Y-93.383
X109.283Y-95.717
X110.45Y-20.8
X110.45Y-24.1
X110.45Y-40.9
X110.45Y-44.2
X110.45Y-46.8
X110.45Y-50.1
X110.45Y-66.9
X110.45Y-70.2
X110.45Y-72.8
X110.45Y-76.1
X110.45Y-92.9
X110.45Y-96.2
X111.617Y-21.283
X111.617Y-23.617
X111.617Y-41.383
X111.617Y-43.717
X111.617Y-47.283
X111.617Y-49.617
X111.617Y-67.383
X111.617Y-69.717
X111.617Y-73.283
X111.617Y-75.617
X111.617Y-93.383
X111.617Y-95.717
X112.1Y-22.45
X112.1Y-42.55
X112.1Y-48.45
X112.1Y-68.55
X112.1Y-74.45
X112.1Y-94.55
X143.9Y-22.45
X143.9Y-42.55
X143.9Y-48.45
X143.9Y-68.55
X143.9Y-74.45
X143.9Y-94.55
X144.383Y-21.283
X144.383Y-23.617
X144.383Y-41.383
X144.383Y-43.717
X144.383Y-47.283
X144.383Y-49.617
X144.383Y-67.383
X144.383Y-69.717
X144.383Y-73.283
X144.383Y-75.617
X144.383Y-93.383
X144.383Y-95.717
X145.55Y-20.8
X145.55Y-24.1
X145.55Y-40.9
X145.55Y-44.2
X145.55Y-46.8
X145.55Y-50.1
X145.55Y-66.9
X145.55Y-70.2
X145.55Y-72.8
X145.55Y-76.1
X145.55Y-92.9
X145.55Y-96.2
X146.717Y-21.283
X146.717Y-23.617
X146.717Y-41.383
X146.717Y-43.717
X146.717Y-47.283
X146.717Y-49.617
X146.717Y-67.383
X146.717Y-69.717
X146.717Y-73.283
X146.717Y-75.617
X146.717Y-93.383
X146.717Y-95.717
X147.2Y-22.45
X147.2Y-42.55
X147.2Y-48.45
X147.2Y-68.55
X147.2Y-74.45
X147.2Y-94.55
X149.8Y-22.45
X149.8Y-42.55
X149.8Y-48.45
X149.8Y-68.55
X149.8Y-74.45
X149.8Y-94.55
X150.283Y-21.283
X150.283Y-23.617
X150.283Y-41.383
X150.283Y-43.717
X150.283Y-47.283
X150.283Y-49.617
X150.283Y-67.383
X150.283Y-69.717
X150.283Y-73.283
X150.283Y-75.617
X150.283Y-93.383
X150.283Y-95.717
X151.45Y-20.8
X151.45Y-24.1
X151.45Y-40.9
X151.45Y-44.2
X151.45Y-46.8
X151.45Y-50.1
X151.45Y-66.9
X151.45Y-70.2
X151.45Y-72.8
X151.45Y-76.1
X151.45Y-92.9
X151.45Y-96.2
X152.617Y-21.283
X152.617Y-23.617
X152.617Y-41.383
X152.617Y-43.717
X152.617Y-47.283
X152.617Y-49.617
X152.617Y-67.383
X152.617Y-69.717
X152.617Y-73.283
X152.617Y-75.617
X152.617Y-93.383
X152.617Y-95.717
X153.1Y-22.45
X153.1Y-42.55
X153.1Y-48.45
X153.1Y-68.55
X153.1Y-74.45
X153.1Y-94.55
X184.9Y-22.45
X184.9Y-42.55
X184.9Y-48.45
X184.9Y-68.55
X184.9Y-74.45
X184.9Y-94.55
X185.383Y-21.283
X185.383Y-23.617
X185.383Y-41.383
X185.383Y-43.717
X185.383Y-47.283
X185.383Y-49.617
X185.383Y-67.383
X185.383Y-69.717
X185.383Y-73.283
X185.383Y-75.617
X185.383Y-93.383
X185.383Y-95.717
X186.55Y-20.8
X186.55Y-24.1
X186.55Y-40.9
X186.55Y-44.2
X186.55Y-46.8
X186.55Y-50.1
X186.55Y-66.9
X186.55Y-70.2
X186.55Y-72.8
X186.55Y-76.1
X186.55Y-92.9
X186.55Y-96.2
X187.717Y-21.283
X187.717Y-23.617
X187.717Y-41.383
X187.717Y-43.717
X187.717Y-47.283
X187.717Y-49.617
X187.717Y-67.383
X187.717Y-69.717
X187.717Y-73.283
X187.717Y-75.617
X187.717Y-93.383
X187.717Y-95.717
X188.2Y-22.45
X188.2Y-42.55
X188.2Y-48.45
X188.2Y-68.55
X188.2Y-74.45
X188.2Y-94.55
T4
X139.5Y-29.91
X139.5Y-34.99
X139.5Y-55.91
X139.5Y-60.99
X139.5Y-81.91
X139.5Y-86.99
X180.5Y-29.91
X180.5Y-34.99
X180.5Y-55.91
X180.5Y-60.99
X180.5Y-81.91
X180.5Y-86.99
T5
X110.45Y-22.45
X110.45Y-42.55
X110.45Y-48.45
X110.45Y-68.55
X110.45Y-74.45
X110.45Y-94.55
X145.55Y-22.45
X145.55Y-42.55
X145.55Y-48.45
X145.55Y-68.55
X145.55Y-74.45
X145.55Y-94.55
X151.45Y-22.45
X151.45Y-42.55
X151.45Y-48.45
X151.45Y-68.55
X151.45Y-74.45
X151.45Y-94.55
X186.55Y-22.45
X186.55Y-42.55
X186.55Y-48.45
X186.55Y-68.55
X186.55Y-74.45
X186.55Y-94.55
T3
G00X111.57Y-28.18
M15
G01X110.77Y-28.18
M16
G05
G00X111.57Y-36.82
M15
G01X110.77Y-36.82
M16
G05
G00X111.57Y-54.18
M15
G01X110.77Y-54.18
M16
G05
G00X111.57Y-62.82
M15
G01X110.77Y-62.82
M16
G05
G00X111.57Y-80.18
M15
G01X110.77Y-80.18
M16
G05
G00X111.57Y-88.82
M15
G01X110.77Y-88.82
M16
G05
G00X115.9Y-28.18
M15
G01X114.8Y-28.18
M16
G05
G00X115.9Y-36.82
M15
G01X114.8Y-36.82
M16
G05
G00X115.9Y-54.18
M15
G01X114.8Y-54.18
M16
G05
G00X115.9Y-62.82
M15
G01X114.8Y-62.82
M16
G05
G00X115.9Y-80.18
M15
G01X114.8Y-80.18
M16
G05
G00X115.9Y-88.82
M15
G01X114.8Y-88.82
M16
G05
G00X152.57Y-28.18
M15
G01X151.77Y-28.18
M16
G05
G00X152.57Y-36.82
M15
G01X151.77Y-36.82
M16
G05
G00X152.57Y-54.18
M15
G01X151.77Y-54.18
M16
G05
G00X152.57Y-62.82
M15
G01X151.77Y-62.82
M16
G05
G00X152.57Y-80.18
M15
G01X151.77Y-80.18
M16
G05
G00X152.57Y-88.82
M15
G01X151.77Y-88.82
M16
G05
G00X156.9Y-28.18
M15
G01X155.8Y-28.18
M16
G05
G00X156.9Y-36.82
M15
G01X155.8Y-36.82
M16
G05
G00X156.9Y-54.18
M15
G01X155.8Y-54.18
M16
G05
G00X156.9Y-62.82
M15
G01X155.8Y-62.82
M16
G05
G00X156.9Y-80.18
M15
G01X155.8Y-80.18
M16
G05
G00X156.9Y-88.82
M15
G01X155.8Y-88.82
M16
G05
M30
