%TF.GenerationSoftware,KiCad,Pcbnew,10.0.3*%
%TF.CreationDate,2026-06-20T17:32:41+08:00*%
%TF.ProjectId,usb-booster.panelized,7573622d-626f-46f7-9374-65722e70616e,rev?*%
%TF.SameCoordinates,Original*%
%TF.FileFunction,Soldermask,Bot*%
%TF.FilePolarity,Negative*%
%FSLAX46Y46*%
G04 Gerber Fmt 4.6, Leading zero omitted, Abs format (unit mm)*
G04 Created by KiCad (PCBNEW 10.0.3) date 2026-06-20 17:32:41*
%MOMM*%
%LPD*%
G01*
G04 APERTURE LIST*
G04 Aperture macros list*
%AMRoundRect*
0 Rectangle with rounded corners*
0 $1 Rounding radius*
0 $2 $3 $4 $5 $6 $7 $8 $9 X,Y pos of 4 corners*
0 Add a 4 corners polygon primitive as box body*
4,1,4,$2,$3,$4,$5,$6,$7,$8,$9,$2,$3,0*
0 Add four circle primitives for the rounded corners*
1,1,$1+$1,$2,$3*
1,1,$1+$1,$4,$5*
1,1,$1+$1,$6,$7*
1,1,$1+$1,$8,$9*
0 Add four rect primitives between the rounded corners*
20,1,$1+$1,$2,$3,$4,$5,0*
20,1,$1+$1,$4,$5,$6,$7,0*
20,1,$1+$1,$6,$7,$8,$9,0*
20,1,$1+$1,$8,$9,$2,$3,0*%
G04 Aperture macros list end*
%ADD10C,0.500000*%
%ADD11C,0.650000*%
%ADD12O,2.100000X1.000000*%
%ADD13O,1.800000X1.000000*%
%ADD14C,0.700000*%
%ADD15C,4.400000*%
%ADD16RoundRect,0.250000X1.550000X-0.650000X1.550000X0.650000X-1.550000X0.650000X-1.550000X-0.650000X0*%
%ADD17O,3.600000X1.800000*%
G04 APERTURE END LIST*
D10*
%TO.C,KiKit_MB_2_2*%
X148000000Y-36166666D03*
%TD*%
D11*
%TO.C,J1*%
X155850000Y-29610000D03*
X155850000Y-35390000D03*
D12*
X156350000Y-28180000D03*
D13*
X152170000Y-28180000D03*
D12*
X156350000Y-36820000D03*
D13*
X152170000Y-36820000D03*
%TD*%
D10*
%TO.C,KiKit_MB_34_1*%
X157500000Y-72000000D03*
%TD*%
%TO.C,KiKit_MB_29_2*%
X117500000Y-72000000D03*
%TD*%
D11*
%TO.C,J1*%
X114850000Y-55610000D03*
X114850000Y-61390000D03*
D12*
X115350000Y-54180000D03*
D13*
X111170000Y-54180000D03*
D12*
X115350000Y-62820000D03*
D13*
X111170000Y-62820000D03*
%TD*%
D10*
%TO.C,KiKit_MB_16_2*%
X118500000Y-71000000D03*
%TD*%
%TO.C,KiKit_MB_17_4*%
X126500000Y-71000000D03*
%TD*%
D14*
%TO.C,H4*%
X108800000Y-68550000D03*
X109283274Y-67383274D03*
X109283274Y-69716726D03*
X110450000Y-66900000D03*
D15*
X110450000Y-68550000D03*
D14*
X110450000Y-70200000D03*
X111616726Y-67383274D03*
X111616726Y-69716726D03*
X112100000Y-68550000D03*
%TD*%
D10*
%TO.C,KiKit_MB_26_2*%
X179500000Y-71000000D03*
%TD*%
%TO.C,KiKit_MB_30_2*%
X127500000Y-72000000D03*
%TD*%
D16*
%TO.C,J2*%
X139500000Y-60990000D03*
D17*
X139500000Y-55910000D03*
%TD*%
D10*
%TO.C,KiKit_MB_12_2*%
X148000000Y-62166666D03*
%TD*%
D14*
%TO.C,H4*%
X149800000Y-68550000D03*
X150283274Y-67383274D03*
X150283274Y-69716726D03*
X151450000Y-66900000D03*
D15*
X151450000Y-68550000D03*
D14*
X151450000Y-70200000D03*
X152616726Y-67383274D03*
X152616726Y-69716726D03*
X153100000Y-68550000D03*
%TD*%
%TO.C,H4*%
X108800000Y-94550000D03*
X109283274Y-93383274D03*
X109283274Y-95716726D03*
X110450000Y-92900000D03*
D15*
X110450000Y-94550000D03*
D14*
X110450000Y-96200000D03*
X111616726Y-93383274D03*
X111616726Y-95716726D03*
X112100000Y-94550000D03*
%TD*%
D10*
%TO.C,KiKit_MB_21_4*%
X160500000Y-46000000D03*
%TD*%
%TO.C,KiKit_MB_5_4*%
X136500000Y-45000000D03*
%TD*%
%TO.C,KiKit_MB_20_4*%
X149000000Y-61166666D03*
%TD*%
%TO.C,KiKit_MB_11_4*%
X148000000Y-55833333D03*
%TD*%
%TO.C,KiKit_MB_27_1*%
X148000000Y-78833333D03*
%TD*%
%TO.C,KiKit_MB_33_3*%
X149000000Y-88166666D03*
%TD*%
%TO.C,KiKit_MB_25_1*%
X170500000Y-71000000D03*
%TD*%
%TO.C,KiKit_MB_5_3*%
X137500000Y-45000000D03*
%TD*%
%TO.C,KiKit_MB_17_1*%
X129500000Y-71000000D03*
%TD*%
%TO.C,KiKit_MB_1_1*%
X148000000Y-26833334D03*
%TD*%
%TO.C,KiKit_MB_10_3*%
X178500000Y-45000000D03*
%TD*%
%TO.C,KiKit_MB_31_3*%
X138500000Y-72000000D03*
%TD*%
%TO.C,KiKit_MB_17_2*%
X128500000Y-71000000D03*
%TD*%
%TO.C,KiKit_MB_18_3*%
X137500000Y-71000000D03*
%TD*%
%TO.C,KiKit_MB_11_2*%
X148000000Y-53833333D03*
%TD*%
%TO.C,KiKit_MB_4_2*%
X128500000Y-45000000D03*
%TD*%
%TO.C,KiKit_MB_31_2*%
X137500000Y-72000000D03*
%TD*%
%TO.C,KiKit_MB_15_2*%
X137500000Y-46000000D03*
%TD*%
%TO.C,KiKit_MB_9_2*%
X169500000Y-45000000D03*
%TD*%
D11*
%TO.C,J1*%
X114850000Y-81610000D03*
X114850000Y-87390000D03*
D12*
X115350000Y-80180000D03*
D13*
X111170000Y-80180000D03*
D12*
X115350000Y-88820000D03*
D13*
X111170000Y-88820000D03*
%TD*%
D10*
%TO.C,KiKit_MB_36_2*%
X178500000Y-72000000D03*
%TD*%
D14*
%TO.C,H3*%
X184900000Y-42550000D03*
X185383274Y-41383274D03*
X185383274Y-43716726D03*
X186550000Y-40900000D03*
D15*
X186550000Y-42550000D03*
D14*
X186550000Y-44200000D03*
X187716726Y-41383274D03*
X187716726Y-43716726D03*
X188200000Y-42550000D03*
%TD*%
D10*
%TO.C,KiKit_MB_7_4*%
X149000000Y-35166666D03*
%TD*%
%TO.C,KiKit_MB_8_2*%
X159500000Y-45000000D03*
%TD*%
%TO.C,KiKit_MB_27_2*%
X148000000Y-79833333D03*
%TD*%
D14*
%TO.C,H2*%
X184900000Y-74450000D03*
X185383274Y-73283274D03*
X185383274Y-75616726D03*
X186550000Y-72800000D03*
D15*
X186550000Y-74450000D03*
D14*
X186550000Y-76100000D03*
X187716726Y-73283274D03*
X187716726Y-75616726D03*
X188200000Y-74450000D03*
%TD*%
D10*
%TO.C,KiKit_MB_8_3*%
X158500000Y-45000000D03*
%TD*%
%TO.C,KiKit_MB_9_4*%
X167500000Y-45000000D03*
%TD*%
%TO.C,KiKit_MB_24_3*%
X158500000Y-71000000D03*
%TD*%
%TO.C,KiKit_MB_11_1*%
X148000000Y-52833333D03*
%TD*%
%TO.C,KiKit_MB_29_3*%
X118500000Y-72000000D03*
%TD*%
%TO.C,KiKit_MB_36_4*%
X180500000Y-72000000D03*
%TD*%
%TO.C,KiKit_MB_8_4*%
X157500000Y-45000000D03*
%TD*%
%TO.C,KiKit_MB_24_4*%
X157500000Y-71000000D03*
%TD*%
%TO.C,KiKit_MB_26_4*%
X177500000Y-71000000D03*
%TD*%
%TO.C,KiKit_MB_13_3*%
X118500000Y-46000000D03*
%TD*%
%TO.C,KiKit_MB_22_4*%
X170500000Y-46000000D03*
%TD*%
D11*
%TO.C,J1*%
X155850000Y-55610000D03*
X155850000Y-61390000D03*
D12*
X156350000Y-54180000D03*
D13*
X152170000Y-54180000D03*
D12*
X156350000Y-62820000D03*
D13*
X152170000Y-62820000D03*
%TD*%
D10*
%TO.C,KiKit_MB_33_1*%
X149000000Y-90166666D03*
%TD*%
D14*
%TO.C,H4*%
X149800000Y-94550000D03*
X150283274Y-93383274D03*
X150283274Y-95716726D03*
X151450000Y-92900000D03*
D15*
X151450000Y-94550000D03*
D14*
X151450000Y-96200000D03*
X152616726Y-93383274D03*
X152616726Y-95716726D03*
X153100000Y-94550000D03*
%TD*%
D10*
%TO.C,KiKit_MB_21_2*%
X158500000Y-46000000D03*
%TD*%
%TO.C,KiKit_MB_25_4*%
X167500000Y-71000000D03*
%TD*%
D14*
%TO.C,H2*%
X143900000Y-22450000D03*
X144383274Y-21283274D03*
X144383274Y-23616726D03*
X145550000Y-20800000D03*
D15*
X145550000Y-22450000D03*
D14*
X145550000Y-24100000D03*
X146716726Y-21283274D03*
X146716726Y-23616726D03*
X147200000Y-22450000D03*
%TD*%
D10*
%TO.C,KiKit_MB_32_1*%
X149000000Y-81833333D03*
%TD*%
D14*
%TO.C,H3*%
X143900000Y-42550000D03*
X144383274Y-41383274D03*
X144383274Y-43716726D03*
X145550000Y-40900000D03*
D15*
X145550000Y-42550000D03*
D14*
X145550000Y-44200000D03*
X146716726Y-41383274D03*
X146716726Y-43716726D03*
X147200000Y-42550000D03*
%TD*%
D10*
%TO.C,KiKit_MB_28_3*%
X148000000Y-89166666D03*
%TD*%
%TO.C,KiKit_MB_23_1*%
X177500000Y-46000000D03*
%TD*%
%TO.C,KiKit_MB_35_3*%
X169500000Y-72000000D03*
%TD*%
D14*
%TO.C,H2*%
X143900000Y-74450000D03*
X144383274Y-73283274D03*
X144383274Y-75616726D03*
X145550000Y-72800000D03*
D15*
X145550000Y-74450000D03*
D14*
X145550000Y-76100000D03*
X146716726Y-73283274D03*
X146716726Y-75616726D03*
X147200000Y-74450000D03*
%TD*%
%TO.C,H3*%
X143900000Y-68550000D03*
X144383274Y-67383274D03*
X144383274Y-69716726D03*
X145550000Y-66900000D03*
D15*
X145550000Y-68550000D03*
D14*
X145550000Y-70200000D03*
X146716726Y-67383274D03*
X146716726Y-69716726D03*
X147200000Y-68550000D03*
%TD*%
D10*
%TO.C,KiKit_MB_7_1*%
X149000000Y-38166666D03*
%TD*%
D16*
%TO.C,J2*%
X139500000Y-34990000D03*
D17*
X139500000Y-29910000D03*
%TD*%
D10*
%TO.C,KiKit_MB_4_4*%
X126500000Y-45000000D03*
%TD*%
%TO.C,KiKit_MB_1_2*%
X148000000Y-27833334D03*
%TD*%
%TO.C,KiKit_MB_3_4*%
X116500000Y-45000000D03*
%TD*%
%TO.C,KiKit_MB_16_1*%
X119500000Y-71000000D03*
%TD*%
D14*
%TO.C,H1*%
X108800000Y-22450000D03*
X109283274Y-21283274D03*
X109283274Y-23616726D03*
X110450000Y-20800000D03*
D15*
X110450000Y-22450000D03*
D14*
X110450000Y-24100000D03*
X111616726Y-21283274D03*
X111616726Y-23616726D03*
X112100000Y-22450000D03*
%TD*%
%TO.C,H1*%
X149800000Y-74450000D03*
X150283274Y-73283274D03*
X150283274Y-75616726D03*
X151450000Y-72800000D03*
D15*
X151450000Y-74450000D03*
D14*
X151450000Y-76100000D03*
X152616726Y-73283274D03*
X152616726Y-75616726D03*
X153100000Y-74450000D03*
%TD*%
D10*
%TO.C,KiKit_MB_9_3*%
X168500000Y-45000000D03*
%TD*%
D14*
%TO.C,H3*%
X184900000Y-94550000D03*
X185383274Y-93383274D03*
X185383274Y-95716726D03*
X186550000Y-92900000D03*
D15*
X186550000Y-94550000D03*
D14*
X186550000Y-96200000D03*
X187716726Y-93383274D03*
X187716726Y-95716726D03*
X188200000Y-94550000D03*
%TD*%
%TO.C,H3*%
X143900000Y-94550000D03*
X144383274Y-93383274D03*
X144383274Y-95716726D03*
X145550000Y-92900000D03*
D15*
X145550000Y-94550000D03*
D14*
X145550000Y-96200000D03*
X146716726Y-93383274D03*
X146716726Y-95716726D03*
X147200000Y-94550000D03*
%TD*%
D10*
%TO.C,KiKit_MB_35_4*%
X170500000Y-72000000D03*
%TD*%
D11*
%TO.C,J1*%
X155850000Y-81610000D03*
X155850000Y-87390000D03*
D12*
X156350000Y-80180000D03*
D13*
X152170000Y-80180000D03*
D12*
X156350000Y-88820000D03*
D13*
X152170000Y-88820000D03*
%TD*%
D10*
%TO.C,KiKit_MB_23_2*%
X178500000Y-46000000D03*
%TD*%
D14*
%TO.C,H1*%
X108800000Y-48450000D03*
X109283274Y-47283274D03*
X109283274Y-49616726D03*
X110450000Y-46800000D03*
D15*
X110450000Y-48450000D03*
D14*
X110450000Y-50100000D03*
X111616726Y-47283274D03*
X111616726Y-49616726D03*
X112100000Y-48450000D03*
%TD*%
D10*
%TO.C,KiKit_MB_28_1*%
X148000000Y-87166666D03*
%TD*%
%TO.C,KiKit_MB_5_1*%
X139500000Y-45000000D03*
%TD*%
%TO.C,KiKit_MB_19_3*%
X149000000Y-53833333D03*
%TD*%
D14*
%TO.C,H2*%
X184900000Y-48450000D03*
X185383274Y-47283274D03*
X185383274Y-49616726D03*
X186550000Y-46800000D03*
D15*
X186550000Y-48450000D03*
D14*
X186550000Y-50100000D03*
X187716726Y-47283274D03*
X187716726Y-49616726D03*
X188200000Y-48450000D03*
%TD*%
D10*
%TO.C,KiKit_MB_9_1*%
X170500000Y-45000000D03*
%TD*%
D14*
%TO.C,H4*%
X108800000Y-42550000D03*
X109283274Y-41383274D03*
X109283274Y-43716726D03*
X110450000Y-40900000D03*
D15*
X110450000Y-42550000D03*
D14*
X110450000Y-44200000D03*
X111616726Y-41383274D03*
X111616726Y-43716726D03*
X112100000Y-42550000D03*
%TD*%
D10*
%TO.C,KiKit_MB_15_4*%
X139500000Y-46000000D03*
%TD*%
%TO.C,KiKit_MB_34_4*%
X160500000Y-72000000D03*
%TD*%
%TO.C,KiKit_MB_10_4*%
X177500000Y-45000000D03*
%TD*%
%TO.C,KiKit_MB_27_4*%
X148000000Y-81833333D03*
%TD*%
%TO.C,KiKit_MB_1_3*%
X148000000Y-28833334D03*
%TD*%
%TO.C,KiKit_MB_27_3*%
X148000000Y-80833333D03*
%TD*%
D16*
%TO.C,J2*%
X180500000Y-60990000D03*
D17*
X180500000Y-55910000D03*
%TD*%
D14*
%TO.C,H1*%
X149800000Y-48450000D03*
X150283274Y-47283274D03*
X150283274Y-49616726D03*
X151450000Y-46800000D03*
D15*
X151450000Y-48450000D03*
D14*
X151450000Y-50100000D03*
X152616726Y-47283274D03*
X152616726Y-49616726D03*
X153100000Y-48450000D03*
%TD*%
D10*
%TO.C,KiKit_MB_13_2*%
X117500000Y-46000000D03*
%TD*%
D14*
%TO.C,H1*%
X149800000Y-22450000D03*
X150283274Y-21283274D03*
X150283274Y-23616726D03*
X151450000Y-20800000D03*
D15*
X151450000Y-22450000D03*
D14*
X151450000Y-24100000D03*
X152616726Y-21283274D03*
X152616726Y-23616726D03*
X153100000Y-22450000D03*
%TD*%
D10*
%TO.C,KiKit_MB_11_3*%
X148000000Y-54833333D03*
%TD*%
%TO.C,KiKit_MB_24_2*%
X159500000Y-71000000D03*
%TD*%
%TO.C,KiKit_MB_19_1*%
X149000000Y-55833333D03*
%TD*%
%TO.C,KiKit_MB_22_1*%
X167500000Y-46000000D03*
%TD*%
%TO.C,KiKit_MB_7_2*%
X149000000Y-37166666D03*
%TD*%
D16*
%TO.C,J2*%
X180500000Y-86990000D03*
D17*
X180500000Y-81910000D03*
%TD*%
D10*
%TO.C,KiKit_MB_22_3*%
X169500000Y-46000000D03*
%TD*%
%TO.C,KiKit_MB_13_4*%
X119500000Y-46000000D03*
%TD*%
%TO.C,KiKit_MB_5_2*%
X138500000Y-45000000D03*
%TD*%
%TO.C,KiKit_MB_12_3*%
X148000000Y-63166666D03*
%TD*%
%TO.C,KiKit_MB_20_1*%
X149000000Y-64166666D03*
%TD*%
%TO.C,KiKit_MB_32_2*%
X149000000Y-80833333D03*
%TD*%
%TO.C,KiKit_MB_23_3*%
X179500000Y-46000000D03*
%TD*%
%TO.C,KiKit_MB_34_3*%
X159500000Y-72000000D03*
%TD*%
%TO.C,KiKit_MB_3_2*%
X118500000Y-45000000D03*
%TD*%
%TO.C,KiKit_MB_2_4*%
X148000000Y-38166666D03*
%TD*%
D14*
%TO.C,H1*%
X108800000Y-74450000D03*
X109283274Y-73283274D03*
X109283274Y-75616726D03*
X110450000Y-72800000D03*
D15*
X110450000Y-74450000D03*
D14*
X110450000Y-76100000D03*
X111616726Y-73283274D03*
X111616726Y-75616726D03*
X112100000Y-74450000D03*
%TD*%
D10*
%TO.C,KiKit_MB_25_2*%
X169500000Y-71000000D03*
%TD*%
%TO.C,KiKit_MB_12_1*%
X148000000Y-61166666D03*
%TD*%
%TO.C,KiKit_MB_32_4*%
X149000000Y-78833333D03*
%TD*%
%TO.C,KiKit_MB_18_1*%
X139500000Y-71000000D03*
%TD*%
%TO.C,KiKit_MB_17_3*%
X127500000Y-71000000D03*
%TD*%
%TO.C,KiKit_MB_29_1*%
X116500000Y-72000000D03*
%TD*%
%TO.C,KiKit_MB_34_2*%
X158500000Y-72000000D03*
%TD*%
%TO.C,KiKit_MB_19_4*%
X149000000Y-52833333D03*
%TD*%
%TO.C,KiKit_MB_15_1*%
X136500000Y-46000000D03*
%TD*%
%TO.C,KiKit_MB_15_3*%
X138500000Y-46000000D03*
%TD*%
D16*
%TO.C,J2*%
X180500000Y-34990000D03*
D17*
X180500000Y-29910000D03*
%TD*%
D10*
%TO.C,KiKit_MB_24_1*%
X160500000Y-71000000D03*
%TD*%
%TO.C,KiKit_MB_12_4*%
X148000000Y-64166666D03*
%TD*%
%TO.C,KiKit_MB_33_4*%
X149000000Y-87166666D03*
%TD*%
%TO.C,KiKit_MB_20_2*%
X149000000Y-63166666D03*
%TD*%
%TO.C,KiKit_MB_35_1*%
X167500000Y-72000000D03*
%TD*%
%TO.C,KiKit_MB_30_4*%
X129500000Y-72000000D03*
%TD*%
D14*
%TO.C,H2*%
X143900000Y-48450000D03*
X144383274Y-47283274D03*
X144383274Y-49616726D03*
X145550000Y-46800000D03*
D15*
X145550000Y-48450000D03*
D14*
X145550000Y-50100000D03*
X146716726Y-47283274D03*
X146716726Y-49616726D03*
X147200000Y-48450000D03*
%TD*%
D10*
%TO.C,KiKit_MB_10_2*%
X179500000Y-45000000D03*
%TD*%
%TO.C,KiKit_MB_4_3*%
X127500000Y-45000000D03*
%TD*%
%TO.C,KiKit_MB_2_1*%
X148000000Y-35166666D03*
%TD*%
%TO.C,KiKit_MB_6_4*%
X149000000Y-26833334D03*
%TD*%
%TO.C,KiKit_MB_3_3*%
X117500000Y-45000000D03*
%TD*%
%TO.C,KiKit_MB_26_3*%
X178500000Y-71000000D03*
%TD*%
%TO.C,KiKit_MB_18_2*%
X138500000Y-71000000D03*
%TD*%
%TO.C,KiKit_MB_6_1*%
X149000000Y-29833334D03*
%TD*%
%TO.C,KiKit_MB_30_1*%
X126500000Y-72000000D03*
%TD*%
%TO.C,KiKit_MB_31_4*%
X139500000Y-72000000D03*
%TD*%
%TO.C,KiKit_MB_32_3*%
X149000000Y-79833333D03*
%TD*%
%TO.C,KiKit_MB_25_3*%
X168500000Y-71000000D03*
%TD*%
%TO.C,KiKit_MB_35_2*%
X168500000Y-72000000D03*
%TD*%
%TO.C,KiKit_MB_22_2*%
X168500000Y-46000000D03*
%TD*%
%TO.C,KiKit_MB_8_1*%
X160500000Y-45000000D03*
%TD*%
%TO.C,KiKit_MB_7_3*%
X149000000Y-36166666D03*
%TD*%
%TO.C,KiKit_MB_21_3*%
X159500000Y-46000000D03*
%TD*%
%TO.C,KiKit_MB_21_1*%
X157500000Y-46000000D03*
%TD*%
%TO.C,KiKit_MB_2_3*%
X148000000Y-37166666D03*
%TD*%
%TO.C,KiKit_MB_18_4*%
X136500000Y-71000000D03*
%TD*%
D14*
%TO.C,H2*%
X184900000Y-22450000D03*
X185383274Y-21283274D03*
X185383274Y-23616726D03*
X186550000Y-20800000D03*
D15*
X186550000Y-22450000D03*
D14*
X186550000Y-24100000D03*
X187716726Y-21283274D03*
X187716726Y-23616726D03*
X188200000Y-22450000D03*
%TD*%
D10*
%TO.C,KiKit_MB_14_4*%
X129500000Y-46000000D03*
%TD*%
%TO.C,KiKit_MB_29_4*%
X119500000Y-72000000D03*
%TD*%
%TO.C,KiKit_MB_36_1*%
X177500000Y-72000000D03*
%TD*%
%TO.C,KiKit_MB_31_1*%
X136500000Y-72000000D03*
%TD*%
%TO.C,KiKit_MB_30_3*%
X128500000Y-72000000D03*
%TD*%
%TO.C,KiKit_MB_6_3*%
X149000000Y-27833334D03*
%TD*%
%TO.C,KiKit_MB_3_1*%
X119500000Y-45000000D03*
%TD*%
%TO.C,KiKit_MB_20_3*%
X149000000Y-62166666D03*
%TD*%
D16*
%TO.C,J2*%
X139500000Y-86990000D03*
D17*
X139500000Y-81910000D03*
%TD*%
D10*
%TO.C,KiKit_MB_23_4*%
X180500000Y-46000000D03*
%TD*%
%TO.C,KiKit_MB_19_2*%
X149000000Y-54833333D03*
%TD*%
%TO.C,KiKit_MB_4_1*%
X129500000Y-45000000D03*
%TD*%
%TO.C,KiKit_MB_16_3*%
X117500000Y-71000000D03*
%TD*%
%TO.C,KiKit_MB_36_3*%
X179500000Y-72000000D03*
%TD*%
%TO.C,KiKit_MB_1_4*%
X148000000Y-29833334D03*
%TD*%
%TO.C,KiKit_MB_33_2*%
X149000000Y-89166666D03*
%TD*%
%TO.C,KiKit_MB_10_1*%
X180500000Y-45000000D03*
%TD*%
%TO.C,KiKit_MB_14_3*%
X128500000Y-46000000D03*
%TD*%
%TO.C,KiKit_MB_28_2*%
X148000000Y-88166666D03*
%TD*%
%TO.C,KiKit_MB_14_1*%
X126500000Y-46000000D03*
%TD*%
%TO.C,KiKit_MB_6_2*%
X149000000Y-28833334D03*
%TD*%
%TO.C,KiKit_MB_16_4*%
X116500000Y-71000000D03*
%TD*%
%TO.C,KiKit_MB_26_1*%
X180500000Y-71000000D03*
%TD*%
%TO.C,KiKit_MB_14_2*%
X127500000Y-46000000D03*
%TD*%
D11*
%TO.C,J1*%
X114850000Y-29610000D03*
X114850000Y-35390000D03*
D12*
X115350000Y-28180000D03*
D13*
X111170000Y-28180000D03*
D12*
X115350000Y-36820000D03*
D13*
X111170000Y-36820000D03*
%TD*%
D10*
%TO.C,KiKit_MB_13_1*%
X116500000Y-46000000D03*
%TD*%
%TO.C,KiKit_MB_28_4*%
X148000000Y-90166666D03*
%TD*%
D14*
%TO.C,H4*%
X149800000Y-42550000D03*
X150283274Y-41383274D03*
X150283274Y-43716726D03*
X151450000Y-40900000D03*
D15*
X151450000Y-42550000D03*
D14*
X151450000Y-44200000D03*
X152616726Y-41383274D03*
X152616726Y-43716726D03*
X153100000Y-42550000D03*
%TD*%
%TO.C,H3*%
X184900000Y-68550000D03*
X185383274Y-67383274D03*
X185383274Y-69716726D03*
X186550000Y-66900000D03*
D15*
X186550000Y-68550000D03*
D14*
X186550000Y-70200000D03*
X187716726Y-67383274D03*
X187716726Y-69716726D03*
X188200000Y-68550000D03*
%TD*%
M02*
