M48
; DRILL file KiCad 10.0.4 date 2026-07-17T11:28:48
; FORMAT={-:-/ absolute / metric / decimal}
; #@! TF.CreationDate,2026-07-17T11:28:48+08:00
; #@! TF.GenerationSoftware,Kicad,Pcbnew,10.0.4
; #@! TF.FileFunction,Plated,1,2,PTH
FMAT,2
METRIC
; #@! TA.AperFunction,Plated,PTH,ViaDrill
T1C0.400
; #@! TA.AperFunction,Plated,PTH,ComponentDrill
T2C0.400
; #@! TA.AperFunction,Plated,PTH,ComponentDrill
T3C0.600
; #@! TA.AperFunction,Plated,PTH,ComponentDrill
T4C1.200
; #@! TA.AperFunction,Plated,PTH,ComponentDrill
T5C2.200
%
G90
G05
T1
X125.75Y-109.25
X125.75Y-110.0
X125.75Y-113.25
X125.75Y-114.0
X126.5Y-109.25
X126.5Y-110.0
X126.5Y-113.25
X126.5Y-114.0
X127.25Y-109.25
X127.25Y-110.0
X127.25Y-113.25
X127.25Y-114.0
X128.0Y-109.25
X128.0Y-110.0
X128.0Y-113.25
X128.0Y-114.0
X128.98Y-95.935
X128.98Y-100.46
X128.98Y-104.9
X131.15Y-110.15
X131.25Y-102.5
X131.75Y-97.75
X131.75Y-103.25
X131.75Y-104.0
X132.5Y-95.75
X132.5Y-96.5
X132.5Y-97.25
X133.5Y-104.0
X133.75Y-103.25
X134.25Y-102.5
X134.75Y-95.75
X134.75Y-96.5
X134.75Y-97.25
X134.75Y-98.0
X134.75Y-98.75
X134.75Y-99.5
X134.75Y-100.25
X134.75Y-101.0
X134.75Y-101.75
X136.28Y-108.68
X138.75Y-112.25
X138.75Y-113.0
X139.5Y-112.25
X139.5Y-113.0
X140.25Y-112.25
X140.25Y-113.0
X141.0Y-103.25
X141.0Y-104.0
X141.0Y-104.75
X141.0Y-105.5
X141.0Y-112.25
X141.0Y-113.0
X141.75Y-103.25
X141.75Y-104.0
X141.75Y-104.75
X141.75Y-105.5
X145.0Y-107.75
X145.0Y-108.5
X145.0Y-109.25
X145.0Y-110.0
X145.5Y-102.0
X145.5Y-102.75
X145.75Y-107.75
X145.75Y-108.5
X145.75Y-109.25
X145.75Y-110.0
X146.25Y-102.0
X146.25Y-102.75
X146.75Y-92.0
X146.75Y-92.75
X146.75Y-95.75
X146.75Y-96.5
X146.772Y-103.812
X147.5Y-92.0
X147.5Y-92.75
X147.5Y-95.75
X147.5Y-96.5
X148.25Y-92.0
X148.25Y-92.75
X148.25Y-95.75
X148.25Y-96.5
X149.0Y-92.0
X149.0Y-92.75
X149.0Y-95.75
X149.0Y-96.5
T2
X120.8Y-92.45
X120.8Y-112.55
X121.283Y-91.283
X121.283Y-93.617
X121.283Y-111.383
X121.283Y-113.717
X122.45Y-90.8
X122.45Y-94.1
X122.45Y-110.9
X122.45Y-114.2
X123.617Y-91.283
X123.617Y-93.617
X123.617Y-111.383
X123.617Y-113.717
X124.1Y-92.45
X124.1Y-112.55
X155.9Y-92.45
X155.9Y-112.55
X156.383Y-91.283
X156.383Y-93.617
X156.383Y-111.383
X156.383Y-113.717
X157.55Y-90.8
X157.55Y-94.1
X157.55Y-110.9
X157.55Y-114.2
X158.717Y-91.283
X158.717Y-93.617
X158.717Y-111.383
X158.717Y-113.717
X159.2Y-92.45
X159.2Y-112.55
T4
X151.5Y-99.91
X151.5Y-104.99
T5
X122.45Y-92.45
X122.45Y-112.55
X157.55Y-92.45
X157.55Y-112.55
T3
G00X123.57Y-98.18
M15
G01X122.77Y-98.18
M16
G05
G00X123.57Y-106.82
M15
G01X122.77Y-106.82
M16
G05
G00X127.9Y-98.18
M15
G01X126.8Y-98.18
M16
G05
G00X127.9Y-106.82
M15
G01X126.8Y-106.82
M16
G05
M30
