%TF.GenerationSoftware,KiCad,Pcbnew,10.0.3*%
%TF.CreationDate,2026-06-24T20:58:13+08:00*%
%TF.ProjectId,usb-booster,7573622d-626f-46f7-9374-65722e6b6963,rev?*%
%TF.SameCoordinates,Original*%
%TF.FileFunction,Soldermask,Top*%
%TF.FilePolarity,Negative*%
%FSLAX46Y46*%
G04 Gerber Fmt 4.6, Leading zero omitted, Abs format (unit mm)*
G04 Created by KiCad (PCBNEW 10.0.3) date 2026-06-24 20:58:13*
%MOMM*%
%LPD*%
G01*
G04 APERTURE LIST*
G04 Aperture macros list*
%AMRoundRect*
0 Rectangle with rounded corners*
0 $1 Rounding radius*
0 $2 $3 $4 $5 $6 $7 $8 $9 X,Y pos of 4 corners*
0 Add a 4 corners polygon primitive as box body*
4,1,4,$2,$3,$4,$5,$6,$7,$8,$9,$2,$3,0*
0 Add four circle primitives for the rounded corners*
1,1,$1+$1,$2,$3*
1,1,$1+$1,$4,$5*
1,1,$1+$1,$6,$7*
1,1,$1+$1,$8,$9*
0 Add four rect primitives between the rounded corners*
20,1,$1+$1,$2,$3,$4,$5,0*
20,1,$1+$1,$4,$5,$6,$7,0*
20,1,$1+$1,$6,$7,$8,$9,0*
20,1,$1+$1,$8,$9,$2,$3,0*%
G04 Aperture macros list end*
%ADD10RoundRect,0.200000X-0.275000X0.200000X-0.275000X-0.200000X0.275000X-0.200000X0.275000X0.200000X0*%
%ADD11RoundRect,0.218750X0.218750X0.256250X-0.218750X0.256250X-0.218750X-0.256250X0.218750X-0.256250X0*%
%ADD12RoundRect,0.225000X-0.250000X0.225000X-0.250000X-0.225000X0.250000X-0.225000X0.250000X0.225000X0*%
%ADD13RoundRect,0.235000X0.940000X1.465000X-0.940000X1.465000X-0.940000X-1.465000X0.940000X-1.465000X0*%
%ADD14RoundRect,0.250000X-0.550000X1.250000X-0.550000X-1.250000X0.550000X-1.250000X0.550000X1.250000X0*%
%ADD15RoundRect,0.150000X-0.825000X-0.150000X0.825000X-0.150000X0.825000X0.150000X-0.825000X0.150000X0*%
%ADD16C,0.700000*%
%ADD17C,4.400000*%
%ADD18RoundRect,0.250000X1.000000X0.650000X-1.000000X0.650000X-1.000000X-0.650000X1.000000X-0.650000X0*%
%ADD19RoundRect,0.250000X-0.945000X0.420000X-0.945000X-0.420000X0.945000X-0.420000X0.945000X0.420000X0*%
%ADD20RoundRect,0.250000X-1.500000X-0.550000X1.500000X-0.550000X1.500000X0.550000X-1.500000X0.550000X0*%
%ADD21RoundRect,0.200000X0.275000X-0.200000X0.275000X0.200000X-0.275000X0.200000X-0.275000X-0.200000X0*%
%ADD22RoundRect,0.200000X0.200000X0.275000X-0.200000X0.275000X-0.200000X-0.275000X0.200000X-0.275000X0*%
%ADD23RoundRect,0.250000X1.550000X-0.650000X1.550000X0.650000X-1.550000X0.650000X-1.550000X-0.650000X0*%
%ADD24O,3.600000X1.800000*%
%ADD25C,0.650000*%
%ADD26RoundRect,0.150000X-0.425000X0.150000X-0.425000X-0.150000X0.425000X-0.150000X0.425000X0.150000X0*%
%ADD27RoundRect,0.075000X-0.500000X0.075000X-0.500000X-0.075000X0.500000X-0.075000X0.500000X0.075000X0*%
%ADD28O,2.100000X1.000000*%
%ADD29O,1.800000X1.000000*%
%ADD30RoundRect,0.250000X-0.420000X-0.945000X0.420000X-0.945000X0.420000X0.945000X-0.420000X0.945000X0*%
G04 APERTURE END LIST*
D10*
%TO.C,R4*%
X139965000Y-106140000D03*
X139965000Y-107790000D03*
%TD*%
%TO.C,R6*%
X147505000Y-103080000D03*
X147505000Y-104730000D03*
%TD*%
D11*
%TO.C,D2*%
X127830000Y-94205000D03*
X126255000Y-94205000D03*
%TD*%
D12*
%TO.C,C5*%
X147505000Y-106290000D03*
X147505000Y-107840000D03*
%TD*%
D13*
%TO.C,L1*%
X138630000Y-100095000D03*
X132580000Y-100095000D03*
%TD*%
D14*
%TO.C,C7*%
X143255000Y-99910000D03*
X143255000Y-104310000D03*
%TD*%
D15*
%TO.C,U1*%
X132580000Y-104870000D03*
X132580000Y-106140000D03*
X132580000Y-107410000D03*
X132580000Y-108680000D03*
X137530000Y-108680000D03*
X137530000Y-107410000D03*
X137530000Y-106140000D03*
X137530000Y-104870000D03*
%TD*%
D16*
%TO.C,H1*%
X120800000Y-92450000D03*
X121283274Y-91283274D03*
X121283274Y-93616726D03*
X122450000Y-90800000D03*
D17*
X122450000Y-92450000D03*
D16*
X122450000Y-94100000D03*
X123616726Y-91283274D03*
X123616726Y-93616726D03*
X124100000Y-92450000D03*
%TD*%
D10*
%TO.C,R5*%
X147505000Y-99910000D03*
X147505000Y-101560000D03*
%TD*%
D12*
%TO.C,C3*%
X139965000Y-109380000D03*
X139965000Y-110930000D03*
%TD*%
D18*
%TO.C,D1*%
X131150000Y-111665000D03*
X127150000Y-111665000D03*
%TD*%
D10*
%TO.C,R1*%
X130135000Y-104250000D03*
X130135000Y-105900000D03*
%TD*%
D19*
%TO.C,C2*%
X142825000Y-107370000D03*
X142825000Y-110450000D03*
%TD*%
D20*
%TO.C,C6*%
X142385000Y-94270000D03*
X147785000Y-94270000D03*
%TD*%
D21*
%TO.C,R2*%
X130135000Y-101250000D03*
X130135000Y-99600000D03*
%TD*%
D22*
%TO.C,R3*%
X127905000Y-95935000D03*
X126255000Y-95935000D03*
%TD*%
D16*
%TO.C,H4*%
X120800000Y-112550000D03*
X121283274Y-111383274D03*
X121283274Y-113716726D03*
X122450000Y-110900000D03*
D17*
X122450000Y-112550000D03*
D16*
X122450000Y-114200000D03*
X123616726Y-111383274D03*
X123616726Y-113716726D03*
X124100000Y-112550000D03*
%TD*%
%TO.C,H2*%
X155900000Y-92450000D03*
X156383274Y-91283274D03*
X156383274Y-93616726D03*
X157550000Y-90800000D03*
D17*
X157550000Y-92450000D03*
D16*
X157550000Y-94100000D03*
X158716726Y-91283274D03*
X158716726Y-93616726D03*
X159200000Y-92450000D03*
%TD*%
D18*
%TO.C,D3*%
X137582500Y-94270000D03*
X133582500Y-94270000D03*
%TD*%
D23*
%TO.C,J2*%
X151500000Y-104990000D03*
D24*
X151500000Y-99910000D03*
%TD*%
D16*
%TO.C,H3*%
X155900000Y-112550000D03*
X156383274Y-111383274D03*
X156383274Y-113716726D03*
X157550000Y-110900000D03*
D17*
X157550000Y-112550000D03*
D16*
X157550000Y-114200000D03*
X158716726Y-111383274D03*
X158716726Y-113716726D03*
X159200000Y-112550000D03*
%TD*%
D12*
%TO.C,C4*%
X130135000Y-107410000D03*
X130135000Y-108960000D03*
%TD*%
D25*
%TO.C,J1*%
X126850000Y-99610000D03*
X126850000Y-105390000D03*
D26*
X127925000Y-99300000D03*
X127925000Y-100100000D03*
D27*
X127925000Y-101250000D03*
X127925000Y-102250000D03*
X127925000Y-102750000D03*
X127925000Y-103750000D03*
D26*
X127925000Y-104900000D03*
X127925000Y-105700000D03*
X127925000Y-105700000D03*
X127925000Y-104900000D03*
D27*
X127925000Y-104250000D03*
X127925000Y-103250000D03*
X127925000Y-101750000D03*
X127925000Y-100750000D03*
D26*
X127925000Y-100100000D03*
X127925000Y-99300000D03*
D28*
X127350000Y-98180000D03*
D29*
X123170000Y-98180000D03*
D28*
X127350000Y-106820000D03*
D29*
X123170000Y-106820000D03*
%TD*%
D30*
%TO.C,C1*%
X134160000Y-111665000D03*
X137240000Y-111665000D03*
%TD*%
M02*
